<?xml version="1.0" encoding="utf-8"?>
<!-- Generator: Adobe Illustrator 23.0.5, SVG Export Plug-In . SVG Version: 6.00 Build 0)  -->
<svg version="1.1" id="圖層_1" xmlns="http://www.w3.org/2000/svg" xmlns:xlink="http://www.w3.org/1999/xlink" x="0px" y="0px"
	 viewBox="0 0 2500 2500" style="enable-background:new 0 0 2500 2500;" xml:space="preserve">
<style type="text/css">
	.st0{fill:#535655;}
	.st1{fill:#834F31;}
	.st2{fill:#FFFFFF;}
	.st3{fill:none;stroke:#663D28;stroke-width:2;stroke-miterlimit:10;}
	.st4{fill:#96873C;}
	.st5{fill:#895237;}
	.st6{fill:#F8D183;}
	.st7{fill:#857D75;}
	.st8{fill:#D4C9B6;}
	.st9{fill:#FCCB4F;}
	.st10{fill:#3B190C;}
</style>
<path class="st0" d="M473.29,1845H41.62c48.54-73.36,97.08-146.71,145.62-220.07c55.48,0,110.95,0,166.43,0
	C393.54,1698.29,433.42,1771.64,473.29,1845z"/>
<path class="st0" d="M2408,1824.04h-431.67c48.54-73.36,97.08-146.71,145.62-220.07c55.48,0,110.95,0,166.43,0
	C2328.25,1677.33,2368.13,1750.69,2408,1824.04z"/>
<rect x="254.85" y="949.01" class="st1" width="2017.93" height="765"/>
<path class="st0" d="M2340.39,833.74c-81.48,0-162.96,0-244.44,0v5.83c-639.7,1.55-1279.41,3.1-1919.11,4.65c0,1.75,0,3.49,0,5.24
	c0,62.88,0,125.75,0,188.63v712.6h197.63v-728.37c99.52-7.92,200.07-14.9,301.65-20.9c492.38-29.08,966.3-32.35,1419.83-15.8v770.32
	h208.03c10-253.27,20-506.54,30-759.82c0.4,0.02,0.81,0.04,1.21,0.06c1.73-52.4,3.47-104.79,5.2-157.19c-0.07,0-0.14,0-0.21,0
	C2340.25,837.23,2340.32,835.48,2340.39,833.74z"/>
<ellipse class="st2" cx="299.06" cy="1056.42" rx="28.6" ry="28.82"/>
<ellipse class="st2" cx="299.06" cy="1307.93" rx="28.6" ry="28.82"/>
<ellipse class="st2" cx="299.06" cy="1606.59" rx="28.6" ry="28.82"/>
<ellipse class="st2" cx="2166.16" cy="1030.23" rx="28.6" ry="28.82"/>
<ellipse class="st2" cx="2166.16" cy="1281.73" rx="28.6" ry="28.82"/>
<ellipse class="st2" cx="2166.16" cy="1580.39" rx="28.6" ry="28.82"/>
<path class="st2" d="M612.91,954.25H276.46c-3.3,0-6-2.7-6-6v-50.88c0-3.3,2.7-6,6-6h336.46c3.3,0,6,2.7,6,6v50.88
	C618.91,951.55,616.21,954.25,612.91,954.25z"/>
<line class="st3" x1="374.47" y1="1223.93" x2="2101.15" y2="1223.93"/>
<line class="st3" x1="374.47" y1="1454.03" x2="2095.95" y2="1454.03"/>
<path class="st4" d="M1658.13,1713.24c-136.89-1.89-273.78-3.13-410.65-3.73c-125.87-0.54-251.74-0.54-377.63,0.01
	c0.51-269.08,1.02-538.16,1.54-807.24c263.27-2.31,526.55-4.63,789.82-6.94C1660.18,1167.98,1659.16,1440.61,1658.13,1713.24z"/>
<path class="st5" d="M2334.3,850.47c-722.62,1.41-1445.24,2.82-2167.86,4.23c2.11-82.49,14.42-194.44,57.17-321.32
	c41.91-124.38,99.35-222.35,147.7-291.73c587.62,0,1175.25,0,1762.87,0c48.17,61.48,110.02,155.18,152.46,279.04
	C2332.78,655.33,2337.79,772.56,2334.3,850.47z"/>
<g>
	<rect x="188.07" y="703.4" class="st6" width="2152.32" height="146.71"/>
	<rect x="166.44" y="692.92" class="st7" width="227.13" height="162.43"/>
	<rect x="2113.26" y="698.16" class="st7" width="227.13" height="162.43"/>
	<path class="st8" d="M1908.17,876.31h-44.08c-2.75,0-5-2.25-5-5V682.2c0-2.75,2.25-5,5-5h44.08c2.75,0,5,2.25,5,5v189.11
		C1913.17,874.06,1910.92,876.31,1908.17,876.31z"/>
	<path class="st9" d="M1264.23,635.28h-27.04c-35.69,0-64.89,28.29-64.89,62.88v193.87c0,34.58,29.2,62.88,64.89,62.88h27.04
		c35.69,0,64.89-28.29,64.89-62.88V698.16C1329.12,663.58,1299.92,635.28,1264.23,635.28z M1291.27,750.56
		c0,23.05-19.47,41.92-43.26,41.92c-23.79,0-43.26-18.86-43.26-41.92v-41.92c0-23.05,19.47-41.92,43.26-41.92
		c23.79,0,43.26,18.86,43.26,41.92V750.56z"/>
	<ellipse class="st10" cx="1248.01" cy="850.11" rx="32.45" ry="31.44"/>
	<path class="st8" d="M767.12,876.31h-44.08c-2.75,0-5-2.25-5-5V682.2c0-2.75,2.25-5,5-5h44.08c2.75,0,5,2.25,5,5v189.11
		C772.12,874.06,769.87,876.31,767.12,876.31z"/>
</g>
<path class="st3" d="M306.86,369.86c634.5,0.93,1269,1.86,1903.51,2.79"/>
<path class="st3" d="M208.05,582.23c698.65,1.75,1397.29,3.49,2095.94,5.24"/>
</svg>
