<?xml version="1.0" encoding="utf-8"?>
<!-- Generator: Adobe Illustrator 23.0.5, SVG Export Plug-In . SVG Version: 6.00 Build 0)  -->
<svg version="1.1" id="圖層_1" xmlns="http://www.w3.org/2000/svg" xmlns:xlink="http://www.w3.org/1999/xlink" x="0px" y="0px"
	 viewBox="0 0 1920 1080" style="enable-background:new 0 0 1920 1080;" xml:space="preserve">
<style type="text/css">
	.st0{fill:#535655;}
	.st1{fill:#834F31;}
	.st2{fill:#FFFFFF;}
	.st3{fill:none;stroke:#663D28;stroke-width:2;stroke-miterlimit:10;}
	.st4{fill:#96873C;}
	.st5{fill:#895237;}
	.st6{fill:#F8D183;}
	.st7{fill:#857D75;}
	.st8{fill:#D4C9B6;}
	.st9{fill:#FCCB4F;}
	.st10{fill:#3B190C;}
</style>
<g>
	<path class="st0" d="M463.92,949H183c31.59-39.53,63.18-79.06,94.77-118.59c36.1,0,72.21,0,108.31,0
		C412.03,869.94,437.97,909.47,463.92,949z"/>
	<path class="st0" d="M1723,937.71h-280.92c31.59-39.53,63.18-79.06,94.77-118.59c36.1,0,72.21,0,108.31,0
		C1671.1,858.65,1697.05,898.18,1723,937.71z"/>
	<rect x="321.77" y="466.18" class="st1" width="1313.23" height="412.24"/>
	<path class="st0" d="M1679,404.06c-53.03,0-106.05,0-159.08,0v3.14c-416.31,0.83-832.62,1.67-1248.92,2.5c0,0.94,0,1.88,0,2.82
		c0,33.88,0,67.76,0,101.65v384h128.62v-392.5c64.76-4.27,130.2-8.03,196.31-11.26c320.44-15.67,628.85-17.44,924-8.52V901h135.38
		c6.51-136.48,13.01-272.96,19.52-409.44c0.26,0.01,0.53,0.02,0.79,0.03c1.13-28.24,2.26-56.47,3.38-84.71c-0.04,0-0.09,0-0.13,0
		C1678.91,405.94,1678.96,405,1679,404.06z"/>
	<ellipse class="st2" cx="350.54" cy="524.06" rx="18.62" ry="15.53"/>
	<ellipse class="st2" cx="350.54" cy="659.59" rx="18.62" ry="15.53"/>
	<ellipse class="st2" cx="350.54" cy="820.53" rx="18.62" ry="15.53"/>
	<ellipse class="st2" cx="1565.62" cy="509.94" rx="18.62" ry="15.53"/>
	<ellipse class="st2" cx="1565.62" cy="645.47" rx="18.62" ry="15.53"/>
	<ellipse class="st2" cx="1565.62" cy="806.41" rx="18.62" ry="15.53"/>
	<path class="st2" d="M552.69,469H337.92c-3.3,0-6-2.7-6-6v-21.88c0-3.3,2.7-6,6-6h214.77c3.3,0,6,2.7,6,6V463
		C558.69,466.3,555.99,469,552.69,469z"/>
	<line class="st3" x1="399.62" y1="614.32" x2="1523.31" y2="614.32"/>
	<line class="st3" x1="399.62" y1="738.32" x2="1519.92" y2="738.32"/>
	<path class="st4" d="M1087.86,634.13c-32.75,5.19-75.02,9.78-124.41,9.93c-51.56,0.15-95.53-4.59-129.2-9.93
		c-1.6-67.28-3.19-134.56-4.79-201.83c92.51,1.1,185.03,2.21,277.54,3.31C1100.62,501.78,1094.24,567.95,1087.86,634.13z"/>
</g>
<path class="st5" d="M1675.03,413.07c-470.27,0.76-940.54,1.52-1410.8,2.28c1.37-44.45,9.38-104.78,37.21-173.15
	c27.28-67.02,64.65-119.82,96.12-157.2c382.42,0,764.83,0,1147.25,0c31.35,33.13,71.6,83.62,99.22,150.37
	C1674.05,307.92,1677.31,371.09,1675.03,413.07z"/>
<g>
	<rect x="278.31" y="333.82" class="st6" width="1400.69" height="79.06"/>
	<rect x="264.23" y="328.18" class="st7" width="147.81" height="87.53"/>
	<rect x="1531.19" y="331" class="st7" width="147.81" height="87.53"/>
	<path class="st8" d="M1395.97,427h-25.19c-2.75,0-5-2.25-5-5v-97.29c0-2.75,2.25-5,5-5h25.19c2.75,0,5,2.25,5,5V422
		C1400.97,424.75,1398.72,427,1395.97,427z"/>
	<path class="st9" d="M978.65,297.12h-17.6c-23.23,0-42.23,15.25-42.23,33.88v104.47c0,18.64,19,33.88,42.23,33.88h17.6
		c23.23,0,42.23-15.25,42.23-33.88V331C1020.89,312.36,1001.88,297.12,978.65,297.12z M996.25,359.24
		c0,12.42-12.67,22.59-28.15,22.59s-28.15-10.16-28.15-22.59v-22.59c0-12.42,12.67-22.59,28.15-22.59s28.15,10.16,28.15,22.59
		V359.24z"/>
	<ellipse class="st10" cx="968.1" cy="412.88" rx="21.12" ry="16.94"/>
	<path class="st8" d="M653.4,427H628.2c-2.75,0-5-2.25-5-5v-97.29c0-2.75,2.25-5,5-5h25.19c2.75,0,5,2.25,5,5V422
		C658.4,424.75,656.15,427,653.4,427z"/>
</g>
<path class="st3" d="M355.62,154.09c412.92,0.5,825.85,1,1238.77,1.5"/>
<path class="st3" d="M291.31,268.53c454.67,0.94,909.33,1.88,1364,2.82"/>
</svg>
