<?xml version="1.0" encoding="utf-8"?>
<!-- Generator: Adobe Illustrator 23.0.5, SVG Export Plug-In . SVG Version: 6.00 Build 0)  -->
<svg version="1.1" id="圖層_1" xmlns="http://www.w3.org/2000/svg" xmlns:xlink="http://www.w3.org/1999/xlink" x="0px" y="0px"
	 viewBox="0 0 3840 2160" style="enable-background:new 0 0 3840 2160;" xml:space="preserve">
<style type="text/css">
	.st0{fill:#535655;}
	.st1{fill:#834F31;}
	.st2{fill:#FFFFFF;}
	.st3{fill:none;stroke:#663D28;stroke-width:2;stroke-miterlimit:10;}
	.st4{fill:#96873C;}
	.st5{fill:#895237;}
	.st6{fill:#F8D183;}
	.st7{fill:#857D75;}
	.st8{fill:#D4C9B6;}
	.st9{fill:#FCCB4F;}
	.st10{fill:#3B190C;}
</style>
<path class="st0" d="M735.13,2075H87c72.88-91.27,145.76-182.55,218.65-273.82c83.29,0,166.59,0,249.88,0
	C615.4,1892.45,675.26,1983.73,735.13,2075z"/>
<path class="st0" d="M3640,2048.92h-648.13c72.88-91.27,145.76-182.55,218.65-273.82c83.29,0,166.59,0,249.88,0
	C3520.27,1866.37,3580.13,1957.65,3640,2048.92z"/>
<rect x="407.16" y="960.15" class="st1" width="3029.81" height="951.86"/>
<path class="st0" d="M3538.49,816.72c-122.34,0-244.68,0-367.01,0v7.26c-960.48,1.93-1920.96,3.86-2881.44,5.78
	c0,2.17,0,4.35,0,6.52c0,78.24,0,156.47,0,234.71v886.67h296.73v-906.29c149.42-9.85,300.4-18.54,452.91-26.01
	c739.29-36.19,1450.85-40.26,2131.8-19.66v958.49h312.35c15.01-315.14,30.02-630.28,45.04-945.42c0.6,0.03,1.21,0.05,1.81,0.07
	c2.6-65.2,5.21-130.39,7.81-195.59c-0.1,0-0.21,0-0.31,0C3538.28,821.06,3538.38,818.89,3538.49,816.72z"/>
<ellipse class="st2" cx="473.54" cy="1093.8" rx="42.95" ry="35.86"/>
<ellipse class="st2" cx="473.54" cy="1406.74" rx="42.95" ry="35.86"/>
<ellipse class="st2" cx="473.54" cy="1778.36" rx="42.95" ry="35.86"/>
<ellipse class="st2" cx="3276.89" cy="1061.2" rx="42.95" ry="35.86"/>
<ellipse class="st2" cx="3276.89" cy="1374.14" rx="42.95" ry="35.86"/>
<ellipse class="st2" cx="3276.89" cy="1745.76" rx="42.95" ry="35.86"/>
<path class="st2" d="M947.78,966.67H436.59c-3.3,0-6-2.7-6-6v-66.24c0-3.3,2.7-6,6-6h511.19c3.3,0,6,2.7,6,6v66.24
	C953.78,963.97,951.08,966.67,947.78,966.67z"/>
<line class="st3" x1="586.76" y1="1302.22" x2="3179.28" y2="1302.22"/>
<line class="st3" x1="586.76" y1="1588.53" x2="3171.47" y2="1588.53"/>
<path class="st4" d="M2514.11,1911.06c-205.54-2.35-411.06-3.9-616.57-4.64c-188.98-0.68-377.98-0.67-566.99,0.02
	c0.77-334.81,1.54-669.62,2.31-1004.43c395.29-2.88,790.58-5.76,1185.87-8.64C2517.19,1232.6,2515.65,1571.83,2514.11,1911.06z"/>
<path class="st5" d="M3529.34,837.53c-1084.98,1.75-2169.95,3.51-3254.93,5.26c3.17-102.65,21.65-241.93,85.84-399.81
	C423.18,288.23,509.42,166.32,582.02,80c882.29,0,1764.58,0,2646.86,0c72.32,76.5,165.2,193.08,228.92,347.2
	C3527.06,594.73,3534.59,740.6,3529.34,837.53z"/>
<g>
	<rect x="306.89" y="654.54" class="st6" width="3231.6" height="182.55"/>
	<rect x="274.41" y="641.5" class="st7" width="341.02" height="202.11"/>
	<rect x="3197.46" y="648.02" class="st7" width="341.02" height="202.11"/>
	<path class="st8" d="M2892.04,869.69h-71.2c-2.75,0-5-2.25-5-5V626.94c0-2.75,2.25-5,5-5h71.2c2.75,0,5,2.25,5,5v237.75
		C2897.04,867.44,2894.79,869.69,2892.04,869.69z"/>
	<path class="st9" d="M1922.69,569.79h-40.6c-53.59,0-97.44,35.21-97.44,78.24v241.23c0,43.03,43.85,78.24,97.44,78.24h40.6
		c53.59,0,97.44-35.21,97.44-78.24V648.02C2020.12,604.99,1976.28,569.79,1922.69,569.79z M1963.29,713.22
		c0,28.69-29.23,52.16-64.96,52.16c-35.73,0-64.96-23.47-64.96-52.16v-52.16c0-28.69,29.23-52.16,64.96-52.16
		c35.73,0,64.96,23.47,64.96,52.16V713.22z"/>
	<ellipse class="st10" cx="1898.33" cy="837.09" rx="48.72" ry="39.12"/>
	<path class="st8" d="M1178.8,869.69h-71.2c-2.75,0-5-2.25-5-5V626.94c0-2.75,2.25-5,5-5h71.2c2.75,0,5,2.25,5,5v237.75
		C1183.8,867.44,1181.55,869.69,1178.8,869.69z"/>
</g>
<path class="st3" d="M485.25,239.52c952.67,1.16,1905.35,2.31,2858.02,3.47"/>
<path class="st3" d="M336.88,503.77c1048.98,2.17,2097.96,4.35,3146.94,6.52"/>
</svg>
