<?xml version="1.0" encoding="utf-8"?>
<!-- Generator: Adobe Illustrator 23.0.5, SVG Export Plug-In . SVG Version: 6.00 Build 0)  -->
<svg version="1.1" id="圖層_1" xmlns="http://www.w3.org/2000/svg" xmlns:xlink="http://www.w3.org/1999/xlink" x="0px" y="0px"
	 viewBox="0 0 2500 2500" style="enable-background:new 0 0 2500 2500;" xml:space="preserve">
<style type="text/css">
	.st0{fill:#BEA16E;}
	.st1{fill:#511C0A;}
	.st2{fill:#74391B;}
	.st3{fill:url(#SVGID_1_);}
	.st4{fill:#605A55;}
	.st5{fill:#F3C415;}
	.st6{fill:#F8D183;}
	.st7{fill:#857D75;}
	.st8{fill:#D4C9B6;}
	.st9{fill:#FCCB4F;}
	.st10{fill:#3B190C;}
	.st11{fill:#535655;}
	.st12{fill:#834F31;}
	.st13{fill:#FFFFFF;}
	.st14{fill:none;stroke:#663D28;stroke-width:2;stroke-miterlimit:10;}
	.st15{fill:#96873C;}
</style>
<path class="st0" d="M2377.63,1379.39c-727.37,1.49-1454.74,2.97-2182.1,4.46c80.82-133.69,161.64-267.38,242.46-401.07
	c571.12,7.43,1142.24,14.85,1713.36,22.28C2226.77,1129.84,2302.2,1254.62,2377.63,1379.39z"/>
<path class="st1" d="M2269.87,1348.2c-655.53,4.46-1311.06,8.91-1966.59,13.37c53.88-120.32,107.76-240.64,161.64-360.96
	c553.16,7.43,1106.32,14.85,1659.48,22.28C2172.89,1131.33,2221.38,1239.76,2269.87,1348.2z"/>
<path class="st2" d="M2172.89,1009.52c-589.08-7.43-1178.16-14.85-1767.24-22.28C344.59,785.22,283.53,583.2,222.46,381.19
	c720.18,0,1440.37,0,2160.55,0C2312.97,590.63,2242.93,800.08,2172.89,1009.52z"/>
<linearGradient id="SVGID_1_" gradientUnits="userSpaceOnUse" x1="1317.415" y1="1028.7529" x2="1302.4592" y2="436.8678">
	<stop  offset="0" style="stop-color:#582712"/>
	<stop  offset="0.5753" style="stop-color:#2B120A"/>
	<stop  offset="0.8433" style="stop-color:#110603"/>
</linearGradient>
<path class="st3" d="M2081.29,880.29c-540.59,1.49-1081.17,2.97-1621.76,4.46c-34.12-145.57-68.25-291.14-102.37-436.72h1891.16
	C2192.64,592.12,2136.97,736.2,2081.29,880.29z"/>
<path class="st4" d="M222.46,381.19c37.72,0,75.43,0,113.15,0c10.78,35.65,21.55,71.3,32.33,106.95H254.79
	C244.02,452.49,233.24,416.84,222.46,381.19z"/>
<path class="st4" d="M2383.02,381.19c-37.72,0-75.43,0-113.15,0c-10.78,35.65-21.55,71.3-32.33,106.95h113.15
	C2361.47,452.49,2372.24,416.84,2383.02,381.19z"/>
<g>
	<path class="st5" d="M418.77,1348.38c-8.77-47.23,17.51-97.73,65.01-124.92c12.6-7.21,26.6-12.95,37.55-21.82
		c9.51-7.7,16.25-17.38,24.57-25.96c21.31-21.98,52.08-35.97,82.02-49.4c99.69-44.72,203.35-90.44,316.5-96.86
		c12.9-0.73,26.04-0.97,38.35-4.26c18.43-4.92,33.22-16.15,49.73-24.51c35.3-17.86,80.09-22.31,119.5-11.86
		c8.4,2.23,16.85,5.13,25.66,4.72c9.48-0.44,18.02-4.65,26.22-8.61c48.67-23.48,102.15-42.12,158.38-45.09
		c56.23-2.97,115.66,11.5,153.83,45.78c14.25,12.8,26.25,28.61,45.68,35.27c64.65,22.16,126.49-74.05,190.07-49.86
		c22.05,8.39,33.11,28.63,50.35,42.76c54.23,44.47,155.76,20.7,211.46,63.91c19.92,15.45,30.51,37.16,44.27,56.67
		c52.52,74.46,133.69,130.03,158.07,213.85c-607.36,13.42-1197.8,32.24-1804.95,13.37"/>
</g>
<g>
	<rect x="244.02" y="255.93" class="st6" width="2144.39" height="124.78"/>
	<rect x="222.46" y="247.02" class="st7" width="226.29" height="138.14"/>
	<rect x="2162.11" y="251.48" class="st7" width="226.29" height="138.14"/>
	<path class="st8" d="M1957.76,402.99h-43.88c-2.75,0-5-2.25-5-5V238.65c0-2.75,2.25-5,5-5h43.88c2.75,0,5,2.25,5,5v159.34
		C1962.76,400.74,1960.51,402.99,1957.76,402.99z"/>
	<path class="st9" d="M1316.21,198h-26.94c-35.56,0-64.66,24.06-64.66,53.48v164.88c0,29.41,29.09,53.48,64.66,53.48h26.94
		c35.56,0,64.66-24.06,64.66-53.48V251.48C1380.87,222.06,1351.77,198,1316.21,198z M1343.15,296.04c0,19.61-19.4,35.65-43.1,35.65
		s-43.1-16.04-43.1-35.65v-35.65c0-19.61,19.4-35.65,43.1-35.65s43.1,16.04,43.1,35.65V296.04z"/>
	<ellipse class="st10" cx="1300.05" cy="380.71" rx="32.33" ry="26.74"/>
	<path class="st8" d="M820.91,402.99h-43.88c-2.75,0-5-2.25-5-5V238.65c0-2.75,2.25-5,5-5h43.88c2.75,0,5,2.25,5,5v159.34
		C825.91,400.74,823.66,402.99,820.91,402.99z"/>
</g>
<path class="st11" d="M475.7,2235H28.5c50.29-62.39,100.57-124.78,150.86-187.16c57.47,0,114.94,0,172.41,0
	C393.08,2110.22,434.39,2172.61,475.7,2235z"/>
<path class="st11" d="M2480,2217.17h-447.2c50.29-62.39,100.57-124.78,150.86-187.16c57.47,0,114.94,0,172.41,0
	C2397.39,2092.4,2438.69,2154.79,2480,2217.17z"/>
<rect x="249.4" y="1472.98" class="st12" width="2090.51" height="650.62"/>
<path class="st11" d="M2409.96,1374.94c-84.41,0-168.82,0-253.23,0v4.96c-662.71,1.32-1325.43,2.64-1988.14,3.95
	c0,1.49,0,2.97,0,4.46c0,53.48,0,106.95,0,160.43v606.05h204.74v-619.47c103.1-6.73,207.27-12.68,312.5-17.78
	c510.1-24.73,1001.06-27.52,1470.9-13.44v655.15h215.52c10.36-215.4,20.72-430.81,31.08-646.21c0.42,0.02,0.84,0.03,1.25,0.05
	c1.8-44.56,3.59-89.13,5.39-133.69c-0.07,0-0.14,0-0.21,0C2409.81,1377.91,2409.89,1376.42,2409.96,1374.94z"/>
<ellipse class="st13" cx="295.2" cy="1564.33" rx="29.63" ry="24.51"/>
<ellipse class="st13" cx="295.2" cy="1778.23" rx="29.63" ry="24.51"/>
<ellipse class="st13" cx="295.2" cy="2032.24" rx="29.63" ry="24.51"/>
<ellipse class="st13" cx="2229.46" cy="1542.05" rx="29.63" ry="24.51"/>
<ellipse class="st13" cx="2229.46" cy="1755.95" rx="29.63" ry="24.51"/>
<ellipse class="st13" cx="2229.46" cy="2009.96" rx="29.63" ry="24.51"/>
<path class="st13" d="M620.56,1477.43H271.57c-3.3,0-6-2.7-6-6v-41.48c0-3.3,2.7-6,6-6h348.99c3.3,0,6,2.7,6,6v41.48
	C626.56,1474.73,623.86,1477.43,620.56,1477.43z"/>
<line class="st14" x1="373.33" y1="1706.79" x2="2162.11" y2="1706.79"/>
<line class="st14" x1="373.33" y1="1902.49" x2="2156.73" y2="1902.49"/>
<path class="st15" d="M1672.6,2123.6c-141.08-1.54-282.16-2.55-423.23-3.04c-129.72-0.44-259.45-0.44-389.2,0.01
	c0.53-219.24,1.06-438.48,1.58-657.72c271.34-1.89,542.67-3.77,814.01-5.66C1674.71,1679.33,1673.65,1901.47,1672.6,2123.6z"/>
</svg>
