<?xml version="1.0" encoding="utf-8"?>
<!-- Generator: Adobe Illustrator 23.0.5, SVG Export Plug-In . SVG Version: 6.00 Build 0)  -->
<svg version="1.1" id="圖層_1" xmlns="http://www.w3.org/2000/svg" xmlns:xlink="http://www.w3.org/1999/xlink" x="0px" y="0px"
	 viewBox="0 0 3840 2160" style="enable-background:new 0 0 3840 2160;" xml:space="preserve">
<style type="text/css">
	.st0{fill:#BEA16E;}
	.st1{fill:#511C0A;}
	.st2{fill:#74391B;}
	.st3{fill:url(#SVGID_1_);}
	.st4{fill:#605A55;}
	.st5{fill:#F3C415;}
	.st6{fill:#F8D183;}
	.st7{fill:#857D75;}
	.st8{fill:#D4C9B6;}
	.st9{fill:#FCCB4F;}
	.st10{fill:#3B190C;}
	.st11{fill:#535655;}
	.st12{fill:#834F31;}
	.st13{fill:#FFFFFF;}
	.st14{fill:none;stroke:#663D28;stroke-width:2;stroke-miterlimit:10;}
	.st15{fill:#96873C;}
</style>
<path class="st0" d="M3079.87,1258.93c-810.89,1.53-1621.78,3.06-2432.67,4.59c90.1-137.82,180.2-275.65,270.3-413.47
	c636.7,7.66,1273.4,15.31,1910.1,22.97C2911.69,1001.66,2995.78,1130.3,3079.87,1258.93z"/>
<path class="st1" d="M2959.74,1226.77c-730.8,4.59-1461.6,9.19-2192.41,13.78c60.07-124.04,120.13-248.08,180.2-372.12
	c616.68,7.66,1233.35,15.31,1850.03,22.97C2851.62,1003.19,2905.68,1114.98,2959.74,1226.77z"/>
<path class="st2" d="M2851.62,877.62c-656.72-7.66-1313.44-15.31-1970.16-22.97c-68.07-208.27-136.15-416.53-204.22-624.8
	c802.88,0,1605.76,0,2408.64,0C3007.8,445.77,2929.71,661.7,2851.62,877.62z"/>
<linearGradient id="SVGID_1_" gradientUnits="userSpaceOnUse" x1="1896.7538" y1="900.0873" x2="1881.2205" y2="285.3498">
	<stop  offset="0" style="stop-color:#582712"/>
	<stop  offset="0.5753" style="stop-color:#2B120A"/>
	<stop  offset="0.8433" style="stop-color:#110603"/>
</linearGradient>
<path class="st3" d="M2749.51,744.39c-602.66,1.53-1205.32,3.06-1807.98,4.59c-38.04-150.07-76.08-300.15-114.13-450.22h2108.31
	C2873.65,447.31,2811.58,595.85,2749.51,744.39z"/>
<path class="st4" d="M677.24,229.85c42.05,0,84.09,0,126.14,0c12.01,36.75,24.03,73.51,36.04,110.26H713.28
	C701.26,303.36,689.25,266.6,677.24,229.85z"/>
<path class="st4" d="M3085.88,229.85c-42.05,0-84.09,0-126.14,0c-12.01,36.75-24.03,73.51-36.04,110.26h126.14
	C3061.85,303.36,3073.87,266.6,3085.88,229.85z"/>
<g>
	<path class="st5" d="M896.09,1226.95c-9.78-48.69,19.52-100.75,72.48-128.79c14.05-7.44,29.66-13.35,41.87-22.49
		c10.6-7.93,18.12-17.92,27.4-26.77c23.76-22.66,58.06-37.08,91.44-50.93c111.14-46.11,226.71-93.23,352.85-99.86
		c14.38-0.76,29.03-1,42.75-4.39c20.54-5.07,37.03-16.65,55.44-25.26c39.35-18.42,89.29-23,133.22-12.22
		c9.36,2.3,18.79,5.29,28.6,4.87c10.57-0.45,20.09-4.8,29.23-8.88c54.26-24.2,113.88-43.42,176.56-46.48
		c62.69-3.06,128.94,11.85,171.5,47.19c15.89,13.19,29.26,29.5,50.93,36.37c72.08,22.85,141.01-76.34,211.89-51.4
		c24.58,8.65,36.92,29.52,56.13,44.08c60.45,45.84,173.64,21.34,235.74,65.89c22.21,15.93,34.01,38.31,49.36,58.43
		c58.55,76.77,149.05,134.05,176.22,220.46c-677.1,13.84-1335.34,33.24-2012.21,13.78"/>
</g>
<g>
	<rect x="701.26" y="100.72" class="st6" width="2390.62" height="128.64"/>
	<rect x="677.24" y="91.54" class="st7" width="252.28" height="142.42"/>
	<rect x="2839.61" y="96.13" class="st7" width="252.28" height="142.42"/>
	<path class="st8" d="M2612.37,252.33h-50.07c-2.75,0-5-2.25-5-5V82.75c0-2.75,2.25-5,5-5h50.07c2.75,0,5,2.25,5,5v164.58
		C2617.37,250.08,2615.12,252.33,2612.37,252.33z"/>
	<path class="st9" d="M1896.58,41h-30.03c-39.64,0-72.08,24.81-72.08,55.13v169.98c0,30.32,32.44,55.13,72.08,55.13h30.03
		c39.64,0,72.08-24.81,72.08-55.13V96.13C1968.65,65.81,1936.22,41,1896.58,41z M1926.61,142.07c0,20.21-21.62,36.75-48.05,36.75
		s-48.05-16.54-48.05-36.75v-36.75c0-20.21,21.62-36.75,48.05-36.75s48.05,16.54,48.05,36.75V142.07z"/>
	<ellipse class="st10" cx="1878.56" cy="229.36" rx="36.04" ry="27.56"/>
	<path class="st8" d="M1344.98,252.33h-50.07c-2.75,0-5-2.25-5-5V82.75c0-2.75,2.25-5,5-5h50.07c2.75,0,5,2.25,5,5v164.58
		C1349.98,250.08,1347.73,252.33,1344.98,252.33z"/>
</g>
<path class="st11" d="M959.55,2141H461c56.06-64.32,112.12-128.64,168.18-192.95c64.07,0,128.14,0,192.21,0
	C867.45,2012.36,913.5,2076.68,959.55,2141z"/>
<path class="st11" d="M3194,2122.62h-498.55c56.06-64.32,112.12-128.64,168.18-192.95c64.07,0,128.14,0,192.21,0
	C3101.9,1993.99,3147.95,2058.31,3194,2122.62z"/>
<rect x="707.27" y="1355.41" class="st12" width="2330.56" height="670.74"/>
<path class="st11" d="M3115.91,1254.34c-94.1,0-188.21,0-282.31,0v5.11c-738.81,1.36-1477.62,2.72-2216.43,4.08
	c0,1.53,0,3.06,0,4.59c0,55.13,0,110.26,0,165.39v624.8h228.25v-638.63c114.93-6.94,231.07-13.07,348.38-18.33
	c568.67-25.5,1116.01-28.37,1639.8-13.86v675.41h240.26c11.55-222.07,23.1-444.13,34.64-666.2c0.46,0.02,0.93,0.03,1.4,0.05
	c2-45.94,4-91.88,6.01-137.82c-0.08,0-0.16,0-0.24,0C3115.75,1257.4,3115.84,1255.87,3115.91,1254.34z"/>
<ellipse class="st13" cx="758.33" cy="1449.59" rx="33.04" ry="25.27"/>
<ellipse class="st13" cx="758.33" cy="1670.1" rx="33.04" ry="25.27"/>
<ellipse class="st13" cx="758.33" cy="1931.97" rx="33.04" ry="25.27"/>
<ellipse class="st13" cx="2914.69" cy="1426.62" rx="33.04" ry="25.27"/>
<ellipse class="st13" cx="2914.69" cy="1647.13" rx="33.04" ry="25.27"/>
<ellipse class="st13" cx="2914.69" cy="1909" rx="33.04" ry="25.27"/>
<path class="st13" d="M1121.73,1360H731.29c-3.3,0-6-2.7-6-6v-43.13c0-3.3,2.7-6,6-6h390.44c3.3,0,6,2.7,6,6V1354
	C1127.73,1357.3,1125.03,1360,1121.73,1360z"/>
<line class="st14" x1="845.42" y1="1596.45" x2="2839.61" y2="1596.45"/>
<line class="st14" x1="845.42" y1="1798.2" x2="2833.6" y2="1798.2"/>
<path class="st15" d="M2293.88,2026.16c-157.29-1.59-314.56-2.63-471.82-3.13c-144.62-0.46-289.25-0.45-433.89,0.01
	c0.59-226.02,1.18-452.04,1.77-678.06c302.49-1.94,604.98-3.89,907.48-5.83C2296.24,1568.15,2295.06,1797.15,2293.88,2026.16z"/>
</svg>
