<?xml version="1.0" encoding="utf-8"?>
<!-- Generator: Adobe Illustrator 23.0.5, SVG Export Plug-In . SVG Version: 6.00 Build 0)  -->
<svg version="1.1" id="圖層_1" xmlns="http://www.w3.org/2000/svg" xmlns:xlink="http://www.w3.org/1999/xlink" x="0px" y="0px"
	 viewBox="0 0 3840 2160" style="enable-background:new 0 0 3840 2160;" xml:space="preserve">
<style type="text/css">
	.st0{fill:#BEA16E;}
	.st1{fill:#511C0A;}
	.st2{fill:#74391B;}
	.st3{fill:url(#SVGID_1_);}
	.st4{fill:#605A55;}
	.st5{fill:#F3C415;}
	.st6{fill:#F8D183;}
	.st7{fill:#857D75;}
	.st8{fill:#D4C9B6;}
	.st9{fill:#FCCB4F;}
	.st10{fill:#3B190C;}
	.st11{fill:#535655;}
	.st12{fill:#834F31;}
	.st13{fill:#FFFFFF;}
	.st14{fill:none;stroke:#663D28;stroke-width:2;stroke-miterlimit:10;}
	.st15{fill:#96873C;}
</style>
<g>
	<path class="st0" d="M3293.87,832.53c-949.45,0.99-1898.9,1.99-2848.35,2.98C551.01,745.94,656.51,656.37,762,566.8
		c745.5,4.98,1490.99,9.95,2236.49,14.93C3096.95,665.33,3195.41,748.93,3293.87,832.53z"/>
	<path class="st1" d="M3153.21,811.63c-855.68,2.98-1711.35,5.97-2567.04,8.96c70.33-80.61,140.66-161.23,210.99-241.84
		c722.05,4.98,1444.1,9.95,2166.15,14.93C3026.62,666.32,3089.91,738.97,3153.21,811.63z"/>
	<path class="st2" d="M3026.62,584.72c-768.94-4.98-1537.87-9.95-2306.81-14.93c-79.7-135.35-159.41-270.7-239.12-406.05
		c940.07,0,1880.14,0,2820.22,0C3209.48,304.06,3118.05,444.39,3026.62,584.72z"/>
	
		<linearGradient id="SVGID_1_" gradientUnits="userSpaceOnUse" x1="1901.1284" y1="1542.4004" x2="1890.238" y2="1973.3901" gradientTransform="matrix(1 0 0 -1 0 2160)">
		<stop  offset="0" style="stop-color:#582712"/>
		<stop  offset="0.5753" style="stop-color:#2B120A"/>
		<stop  offset="0.8433" style="stop-color:#110603"/>
	</linearGradient>
	<path class="st3" d="M2907.06,498.13c-705.64,0.99-1411.28,1.99-2116.92,2.98c-44.54-97.53-89.08-195.07-133.63-292.6h2468.57
		C3052.41,305.06,2979.73,401.59,2907.06,498.13z"/>
	<path class="st4" d="M480.69,163.73c49.24,0,98.46,0,147.69,0c14.06,23.88,28.14,47.77,42.2,71.66H522.89
		C508.81,211.51,494.75,187.62,480.69,163.73z"/>
	<path class="st4" d="M3300.91,163.73c-49.24,0-98.46,0-147.69,0c-14.06,23.88-28.14,47.77-42.2,71.66h147.69
		C3272.77,211.51,3286.84,187.62,3300.91,163.73z"/>
	<g>
		<path class="st5" d="M736.94,811.74c-11.45-31.64,22.86-65.48,84.86-83.7c16.45-4.84,34.73-8.68,49.02-14.62
			c12.41-5.15,21.22-11.65,32.08-17.4c27.82-14.73,67.98-24.1,107.06-33.1c130.13-29.97,265.45-60.59,413.14-64.9
			c16.84-0.49,33.99-0.65,50.05-2.85c24.05-3.29,43.36-10.82,64.91-16.42c46.07-11.97,104.55-14.95,155.98-7.94
			c10.96,1.49,22,3.44,33.49,3.16c12.38-0.29,23.52-3.12,34.22-5.77c63.53-15.73,133.34-28.22,206.73-30.21
			c73.4-1.99,150.97,7.7,200.8,30.67c18.61,8.57,34.26,19.17,59.63,23.64c84.4,14.85,165.1-49.61,248.1-33.4
			c28.78,5.62,43.23,19.18,65.72,28.65c70.78,29.79,203.31,13.87,276.02,42.82c26.01,10.35,39.82,24.9,57.79,37.97
			c68.55,49.89,174.52,87.12,206.33,143.28c-792.8,8.99-1563.52,21.6-2356.05,8.96"/>
	</g>
	<g>
		<rect x="508.81" y="79.81" class="st6" width="2799.12" height="83.6"/>
		<rect x="480.69" y="73.85" class="st7" width="295.39" height="92.56"/>
		<rect x="3012.55" y="76.83" class="st7" width="295.39" height="92.56"/>
		<path class="st8" d="M2746.48,178.34h-58.63c-3.22,0-5.85-1.46-5.85-3.25V68.13c0-1.79,2.63-3.25,5.85-3.25h58.63
			c3.22,0,5.85,1.46,5.85,3.25v106.96C2752.34,176.88,2749.7,178.34,2746.48,178.34z"/>
		<path class="st9" d="M1908.38,41h-35.16c-46.41,0-84.4,16.12-84.4,35.83V187.3c0,19.7,37.98,35.83,84.4,35.83h35.16
			c46.41,0,84.4-16.12,84.4-35.83V76.83C1992.77,57.12,1954.8,41,1908.38,41z M1943.55,106.68c0,13.13-25.31,23.88-56.26,23.88
			s-56.26-10.75-56.26-23.88V82.8c0-13.13,25.31-23.88,56.26-23.88s56.26,10.75,56.26,23.88V106.68z"/>
		<ellipse class="st10" cx="1887.28" cy="163.41" rx="42.2" ry="17.91"/>
		<path class="st8" d="M1262.53,178.34h-58.63c-3.22,0-5.85-1.46-5.85-3.25V68.13c0-1.79,2.63-3.25,5.85-3.25h58.63
			c3.22,0,5.85,1.46,5.85,3.25v106.96C1268.38,176.88,1265.75,178.34,1262.53,178.34z"/>
	</g>
</g>
<path class="st11" d="M811.24,2127.39H227.5c65.64-94.45,131.28-188.9,196.92-283.33c75.02,0,150.04,0,225.05,0
	C703.4,1938.49,757.32,2032.94,811.24,2127.39z"/>
<path class="st11" d="M3427.5,2100.4h-583.74c65.64-94.45,131.28-188.9,196.92-283.33c75.02,0,150.04,0,225.05,0
	C3319.66,1911.52,3373.58,2005.97,3427.5,2100.4z"/>
<rect x="515.85" y="973.81" class="st12" width="2728.79" height="984.94"/>
<path class="st11" d="M3336.07,825.39c-110.18,0-220.37,0-330.55,0v7.5c-865.05,2-1730.11,3.99-2595.16,5.99c0,2.25,0,4.49,0,6.74
	c0,80.95,0,161.91,0,242.86v917.48h267.25v-937.78c134.57-10.19,270.55-19.19,407.91-26.92c665.84-37.45,1306.71-41.66,1920-20.35
	v991.79h281.31c13.52-326.09,27.05-652.17,40.56-978.27c0.54,0.03,1.09,0.04,1.64,0.07c2.34-67.46,4.68-134.92,7.04-202.38
	c-0.09,0-0.19,0-0.28,0C3335.88,829.89,3335.98,827.64,3336.07,825.39z"/>
<ellipse class="st13" cx="575.64" cy="1112.1" rx="38.69" ry="37.11"/>
<ellipse class="st13" cx="575.64" cy="1435.91" rx="38.69" ry="37.11"/>
<ellipse class="st13" cx="575.64" cy="1820.45" rx="38.69" ry="37.11"/>
<ellipse class="st13" cx="3100.46" cy="1078.37" rx="38.69" ry="37.11"/>
<ellipse class="st13" cx="3100.46" cy="1402.18" rx="38.69" ry="37.11"/>
<ellipse class="st13" cx="3100.46" cy="1786.72" rx="38.69" ry="37.11"/>
<path class="st13" d="M1001.13,980.55H543.98c-3.86,0-7.03-3.96-7.03-8.81V908.4c0-4.85,3.16-8.81,7.03-8.81h457.16
	c3.86,0,7.03,3.96,7.03,8.81v63.33C1008.16,976.58,1005,980.55,1001.13,980.55z"/>
<line class="st14" x1="677.61" y1="1327.76" x2="3012.55" y2="1327.76"/>
<line class="st14" x1="677.61" y1="1624.01" x2="3005.52" y2="1624.01"/>
<path class="st15" d="M2373.57,1958.76c-184.17-2.33-368.31-3.86-552.44-4.6c-169.33-0.68-338.68-0.66-508.03,0.01
	c0.69-331.9,1.38-663.79,2.07-995.69c354.18-2.85,708.36-5.71,1062.55-8.56C2376.34,1286.2,2374.95,1622.47,2373.57,1958.76z"/>
</svg>
