<?xml version="1.0" encoding="utf-8"?>
<!-- Generator: Adobe Illustrator 23.0.5, SVG Export Plug-In . SVG Version: 6.00 Build 0)  -->
<svg version="1.1" id="圖層_1" xmlns="http://www.w3.org/2000/svg" xmlns:xlink="http://www.w3.org/1999/xlink" x="0px" y="0px"
	 viewBox="0 0 1920 1080" style="enable-background:new 0 0 1920 1080;" xml:space="preserve">
<style type="text/css">
	.st0{fill:#BEA16E;}
	.st1{fill:#511C0A;}
	.st2{fill:#74391B;}
	.st3{fill:url(#SVGID_1_);}
	.st4{fill:#605A55;}
	.st5{fill:#F3C415;}
	.st6{fill:#F8D183;}
	.st7{fill:#857D75;}
	.st8{fill:#D4C9B6;}
	.st9{fill:#FCCB4F;}
	.st10{fill:#3B190C;}
	.st11{fill:#535655;}
	.st12{fill:#834F31;}
	.st13{fill:#FFFFFF;}
	.st14{fill:none;stroke:#663D28;stroke-width:2;stroke-miterlimit:10;}
	.st15{fill:#96873C;}
</style>
<path class="st0" d="M1520.9,641.89c-384.38,0.75-768.76,1.49-1153.14,2.24c42.71-67.21,85.42-134.41,128.13-201.62
	c301.81,3.73,603.62,7.47,905.43,11.2C1441.18,516.44,1481.04,579.16,1520.9,641.89z"/>
<path class="st1" d="M1463.96,626.21c-346.42,2.24-692.83,4.48-1039.25,6.72c28.47-60.48,56.95-120.97,85.42-181.45
	c292.32,3.73,584.64,7.47,876.95,11.2C1412.71,517.18,1438.33,571.69,1463.96,626.21z"/>
<path class="st2" d="M1412.71,455.95c-311.3-3.73-622.6-7.47-933.9-11.2C446.54,343.2,414.27,241.64,382,140.09
	c380.58,0,761.17,0,1141.75,0C1486.74,245.38,1449.72,350.66,1412.71,455.95z"/>
<linearGradient id="SVGID_1_" gradientUnits="userSpaceOnUse" x1="960.2723" y1="466.4301" x2="952.7187" y2="167.494">
	<stop  offset="0" style="stop-color:#582712"/>
	<stop  offset="0.5753" style="stop-color:#2B120A"/>
	<stop  offset="0.8433" style="stop-color:#110603"/>
</linearGradient>
<path class="st3" d="M1364.3,390.99c-285.67,0.75-571.35,1.49-857.02,2.24c-18.03-73.18-36.07-146.36-54.1-219.54h999.39
	C1423.15,246.12,1393.72,318.55,1364.3,390.99z"/>
<path class="st4" d="M382,140.09c19.93,0,39.86,0,59.79,0c5.69,17.92,11.39,35.84,17.08,53.76h-59.79
	C393.39,175.93,387.7,158.01,382,140.09z"/>
<path class="st4" d="M1523.75,140.09c-19.93,0-39.86,0-59.79,0c-5.69,17.92-11.39,35.84-17.08,53.76h59.79
	C1512.36,175.93,1518.05,158.01,1523.75,140.09z"/>
<g>
	<path class="st5" d="M485.74,626.29c-4.64-23.74,9.25-49.13,34.36-62.8c6.66-3.63,14.06-6.51,19.84-10.97
		c5.02-3.87,8.59-8.74,12.99-13.05c11.26-11.05,27.52-18.08,43.34-24.84c52.68-22.48,107.46-45.46,167.26-48.69
		c6.82-0.37,13.76-0.49,20.26-2.14c9.74-2.47,17.55-8.12,26.28-12.32c18.65-8.98,42.33-11.21,63.15-5.96
		c4.44,1.12,8.91,2.58,13.56,2.37c5.01-0.22,9.52-2.34,13.86-4.33c25.72-11.8,53.98-21.17,83.7-22.67
		c29.71-1.49,61.12,5.78,81.29,23.01c7.53,6.43,13.87,14.38,24.14,17.73c34.17,11.14,66.84-37.23,100.44-25.06
		c11.65,4.22,17.5,14.39,26.61,21.5c28.66,22.35,82.31,10.41,111.74,32.13c10.53,7.77,16.12,18.68,23.4,28.49
		c27.76,37.43,70.65,65.37,83.53,107.5c-320.96,6.75-632.98,16.21-953.83,6.72"/>
</g>
<g>
	<rect x="393.39" y="77.12" class="st6" width="1133.21" height="62.72"/>
	<rect x="382" y="72.64" class="st7" width="119.58" height="69.45"/>
	<rect x="1407.01" y="74.88" class="st7" width="119.58" height="69.45"/>
	<path class="st8" d="M1296.66,151.05h-18.47c-2.75,0-5-2.25-5-5V70.92c0-2.75,2.25-5,5-5h18.47c2.75,0,5,2.25,5,5v75.13
		C1301.66,148.8,1299.41,151.05,1296.66,151.05z"/>
	<path class="st9" d="M959.99,48h-14.24c-18.79,0-34.17,12.1-34.17,26.88v82.89c0,14.79,15.38,26.88,34.17,26.88h14.24
		c18.79,0,34.17-12.1,34.17-26.88V74.88C994.16,60.1,978.79,48,959.99,48z M974.23,97.28c0,9.86-10.25,17.92-22.78,17.92
		c-12.53,0-22.78-8.06-22.78-17.92V79.36c0-9.86,10.25-17.92,22.78-17.92c12.53,0,22.78,8.06,22.78,17.92V97.28z"/>
	<ellipse class="st10" cx="951.45" cy="139.85" rx="17.08" ry="13.44"/>
	<path class="st8" d="M695.89,151.05h-18.47c-2.75,0-5-2.25-5-5V70.92c0-2.75,2.25-5,5-5h18.47c2.75,0,5,2.25,5,5v75.13
		C700.89,148.8,698.64,151.05,695.89,151.05z"/>
</g>
<path class="st11" d="M515.82,1072H279.5c26.57-31.36,53.15-62.72,79.72-94.09c30.37,0,60.74,0,91.11,0
	C472.16,1009.28,493.99,1040.64,515.82,1072z"/>
<path class="st11" d="M1575,1063.04h-236.32c26.57-31.36,53.15-62.72,79.72-94.09c30.37,0,60.74,0,91.11,0
	C1531.34,1000.31,1553.17,1031.68,1575,1063.04z"/>
<rect x="396.24" y="688.93" class="st12" width="1104.73" height="327.07"/>
<path class="st11" d="M1537.99,639.65c-44.61,0-89.21,0-133.82,0v2.49c-350.21,0.66-700.42,1.32-1050.64,1.99c0,0.75,0,1.49,0,2.24
	c0,26.88,0,53.76,0,80.65v304.66h108.2V720.27c54.48-3.38,109.53-6.37,165.14-8.94c269.56-12.43,529.01-13.83,777.3-6.76v329.34
	h113.89c5.47-108.28,10.95-216.57,16.42-324.85c0.22,0.01,0.44,0.02,0.66,0.03c0.95-22.4,1.9-44.8,2.85-67.21c-0.04,0-0.08,0-0.11,0
	C1537.91,641.14,1537.95,640.39,1537.99,639.65z"/>
<ellipse class="st13" cx="420.44" cy="734.85" rx="15.66" ry="12.32"/>
<ellipse class="st13" cx="420.44" cy="842.38" rx="15.66" ry="12.32"/>
<ellipse class="st13" cx="420.44" cy="970.07" rx="15.66" ry="12.32"/>
<ellipse class="st13" cx="1442.6" cy="723.65" rx="15.66" ry="12.32"/>
<ellipse class="st13" cx="1442.6" cy="831.18" rx="15.66" ry="12.32"/>
<ellipse class="st13" cx="1442.6" cy="958.87" rx="15.66" ry="12.32"/>
<path class="st13" d="M589.55,691.17H410.78c-3.3,0-6-2.7-6-6v-14.88c0-3.3,2.7-6,6-6h178.77c3.3,0,6,2.7,6,6v14.88
	C595.55,688.47,592.85,691.17,589.55,691.17z"/>
<line class="st14" x1="461.72" y1="806.47" x2="1407.01" y2="806.47"/>
<line class="st14" x1="461.72" y1="904.84" x2="1404.16" y2="904.84"/>
<path class="st15" d="M1040.7,822.18c-27.55,4.12-63.11,7.76-104.66,7.88c-43.38,0.12-80.36-3.64-108.69-7.88
	c-1.34-53.38-2.68-106.76-4.03-160.13c77.83,0.88,155.65,1.75,233.47,2.63C1051.43,717.18,1046.07,769.68,1040.7,822.18z"/>
</svg>
