<?xml version="1.0" encoding="utf-8"?>
<!-- Generator: Adobe Illustrator 23.0.5, SVG Export Plug-In . SVG Version: 6.00 Build 0)  -->
<svg version="1.1" id="圖層_1" xmlns="http://www.w3.org/2000/svg" xmlns:xlink="http://www.w3.org/1999/xlink" x="0px" y="0px"
	 viewBox="0 0 3840 2160" style="enable-background:new 0 0 3840 2160;" xml:space="preserve">
<style type="text/css">
	.st0{fill:#37151E;}
	.st1{fill:#997C54;}
	.st2{fill:#331321;}
	.st3{fill:#734E43;}
	.st4{fill:#BF9E74;}
	.st5{fill:#8B6253;}
	.st6{fill:#86664D;}
	.st7{fill:#7E5148;}
</style>
<path class="st0" d="M2347.26,1968.07c-123.23,31.49-297.81,61.72-506.9,52.12c-168.15-7.71-309.8-38.94-416.89-71.08
	c-1.58-67.92-3.16-135.84-4.74-203.76c24.48-17.16,62.91-40.54,113.7-56.86c119.15-38.3,168.92,6.39,345.83,9.48
	c163.3,2.85,199.97-33.85,323.42-3.85c65.82,16,116.95,41.39,150.32,60.71C2350.42,1825.91,2348.84,1896.99,2347.26,1968.07z"/>
<path class="st1" d="M2323.84,1954.08c-117.71,25.46-272.93,47.39-455.05,42.42c-165.75-4.52-307.28-30.05-417.15-57.96
	c-1.49-55.69-2.98-111.38-4.47-167.08c6.74-3.47,18.48-9.65,32.71-18.02c34.61-20.35,57.9-38.26,62.04-41.26
	c51.5-37.39,177.75,26.93,339.12,20.42c68.06-2.75,133.42-17.73,233.95-12.58c15.75,0.81,40.44,2.52,71.41,9.42
	c54.54,12.15,96.29,33.17,122.98,49.08C2314.19,1837.05,2319.01,1895.57,2323.84,1954.08z"/>
<g>
	<path class="st2" d="M2333.05,366.51c-8.45,42.75-144.62,107.52-459.53,113.68c-269.87,5.28-442.07-36.96-459.53-95.49
		c-2.32-7.78-6.96-32.8-9.47-59.11c-3.98-41.59-6-62.77,4.74-81.85c11.63-20.65,32.81-29.22,66.32-40.93
		c73.56-25.69,110.34-38.54,151.6-45.47c88.53-14.88,163.6-17.77,217.92-18.19c66.82-0.51,153.62-0.77,265.29,18.19
		c70,11.88,208.47,36.55,222.66,95.49c2.14,8.88,4.59,31.59,4.74,54.57C2337.99,340.21,2333.43,364.57,2333.05,366.51z"/>
	<path class="st3" d="M2304.93,368.11c-7.89,38.6-135.1,97.08-429.3,102.64c-252.12,4.77-413-33.37-429.3-86.22
		c-2.17-7.03-6.5-29.61-8.85-53.37c-3.72-37.55-5.61-56.68,4.43-73.9c10.86-18.65,30.65-26.38,61.96-36.95
		c68.73-23.2,103.09-34.8,141.63-41.06c82.71-13.43,152.84-16.05,203.59-16.42c62.42-0.46,143.52-0.7,247.84,16.42
		c65.39,10.73,194.76,33,208.01,86.22c2,8.02,4.29,28.52,4.43,49.27C2309.55,344.37,2305.29,366.37,2304.93,368.11z"/>
	<path class="st4" d="M2299.89,252.72c-22.23,11.25-52.67,25.17-90.01,37.91c-14.88,5.07-65.85,23.46-146.86,33.17
		c-55.95,6.71-108.75,9.4-175.28,9.48c-130.2,0.14-235-1.77-360.04-42.65c-36.67-11.99-65.99-24.42-85.27-33.17
		c8.72-9.31,22.74-22.34,42.64-33.17c24.72-13.46,37.14-8.81,85.27-23.69c22.74-7.03,22.46-8.64,42.64-14.22
		c23.17-6.41,41.78-9.34,60.89-11.96c43.74-6,72.9-10.01,114.4-11.73c31.85-1.33,71.89,0.2,151.95,3.24
		c7.64,0.29,18.68,0.73,32.81,1.5c31.38,1.7,56.22,3.81,66.32,4.74c31.06,2.84,74.3,6.8,127.91,18.95
		c60.22,13.66,83.35,26.29,94.75,33.17C2278.77,234.42,2291.42,244.94,2299.89,252.72z"/>
	<g>
		<g>
			<path class="st2" d="M1609.05,249.86c63.7,2.26,127.42,3.79,191.15,4.58c63.41,0.79,126.82,0.84,190.23,0.17
				c35.77-0.38,71.53-0.99,107.29-1.84c1.93-0.05,1.93-3.05,0-3c-63.72,1.5-127.45,2.27-191.19,2.3
				c-63.41,0.03-126.82-0.67-190.22-2.1c-35.76-0.81-71.52-1.85-107.27-3.12C1607.11,246.79,1607.12,249.79,1609.05,249.86
				L1609.05,249.86z"/>
		</g>
	</g>
</g>
<path class="st2" d="M2134.08,731.32c-164.23,1.58-328.46,3.16-492.69,4.74c-24.99-22.37-54.23-53.41-80.54-94.77
	c-55.92-87.93-68.15-174.73-71.06-222.71c90.71,27.69,222.78,57.21,383.73,56.86c165.94-0.36,301.4-32.35,393.2-61.6
	c-1.4,43.44-9.46,115.51-47.37,194.28C2192.57,663.75,2159.73,704.39,2134.08,731.32z"/>
<path class="st2" d="M2181.45,892.42c-32.69,48.84-130.7,44.12-293.72,42.65c-206.84-1.87-273,3.72-293.72-37.91
	c-10.99-22.08-7.48-54.03,9.47-71.08c21.32-21.44,65.56-21.01,108.96,4.74c83.18,12.76,147.65,6.95,189.5,0
	c111.53-18.52,200.83-68.13,260.56-33.17c6.93,4.06,27.22,15.93,33.16,37.91C2202.52,860.94,2186.3,885.19,2181.45,892.42z"/>
<path class="st5" d="M2171.98,873.47c-22.43,66.14-181.49,63.73-322.14,61.6c-203.45-3.08-223.21-40.31-227.39-52.12
	c-3.92-11.07-4.14-27.96,4.74-37.91c17.14-19.2,60.64-4.07,94.75,4.74c0,0,58.52,15.11,184.76,14.22
	c147.81-1.04,231.59-69.21,260.56-33.17C2177.01,842.98,2176.07,861.42,2171.98,873.47z"/>
<path class="st6" d="M1887.74,486.65c-148.28,4.49-274.44-12.22-369.52-31.6c15.43,63.24,43.8,140.04,97.72,216.66
	c11.41,16.21,23.13,31.24,34.92,45.14c4.74,0,9.47,0,14.21,0c0,21.06,0,42.13,0,63.19c40.34,12.77,100.84,27.05,175.28,27.08
	c81.96,0.04,147.68-17.21,189.5-31.6c20.27-20.69,40.53-41.38,60.8-62.07c18.87-16.19,38.69-35.9,57.63-59.8
	c64.15-80.97,83.43-165.96,90.01-216.66C2147.5,460.32,2028.37,482.4,1887.74,486.65z"/>
<path class="st6" d="M2134.08,792.29c-29.78,17.32-74.89,39.17-132.65,50.8c-16.53,3.33-53.17,9.66-146.86,5.08
	c-48.28-2.36-112.95-7.68-189.5-20.32c0-22.01,0-44.03,0-66.04c130.35-18.14,267.94-29.19,412.15-30.48
	c19.08-0.17,38.03-0.17,56.85,0C2134.08,751.64,2134.08,771.97,2134.08,792.29z"/>
<path class="st0" d="M2252.51,1641.11c-100.29,14.08-216.56,24.04-345.83,23.69c-137.23-0.37-259.98-12.29-364.78-28.43
	c-3.41-1.7-37.21-19.27-42.64-56.86c-3.34-23.12,5.89-41.14,9.47-47.39c52.4-23.53,82.15-53.32,99.49-75.82
	c50.46-65.5,47.13-135.92,52.11-360.13c1.67-75.16,3.56-135.43,4.74-170.59c153.18-1.58,306.35-3.16,459.53-4.74
	c12.93,97.68,14.91,176.97,14.21,232.19c-1.02,80.69,11.06,161.03,14.21,241.66c0.87,22.2,1.95,54.11,23.69,80.55
	c25.46,30.97,56.02,26.21,75.8,52.12C2265.54,1544.45,2274.97,1576.25,2252.51,1641.11z"/>
<path class="st6" d="M2225.77,1618.62c-92.85,13.36-200.51,22.82-320.2,22.48c-127.06-0.35-240.71-11.66-337.74-26.98
	c-27.29-8.88-43.05-32.77-39.48-53.96c3.1-18.38,19.71-28.58,23.02-30.53c23.76-15.67,55.12-40.72,80.54-78.96
	c47.37-71.29,41.69-139.69,45.57-349.21c0.73-39.55,2.01-95.04,4.39-161.89c141.82-1.5,283.65-3,425.47-4.5
	c11.97,92.71,13.8,167.95,13.16,220.35c-0.94,76.58,10.24,152.82,13.16,229.35c0.83,21.9,5.81,48.14,21.93,76.45
	c14.47,25.41,39.83,53.59,44.81,59.12c19.94,22.15,28.44,27.3,33.16,41.8C2240.4,1583.15,2232.95,1604.27,2225.77,1618.62z"/>
<g>
	<g>
		<path class="st0" d="M1612.99,1520.11c31.25,17.2,65.7,27.41,100.69,33.62c35.29,6.27,71.11,8.74,106.84,10.98
			c39.18,2.46,78.37,4.89,117.61,6.04c39.03,1.14,78.13,1.01,117.1-1.74c38.68-2.73,77.25-8.05,114.96-17.19
			c4.73-1.15,9.45-2.36,14.16-3.62c1.86-0.5,1.07-3.4-0.8-2.89c-37.41,10.05-75.75,16.24-114.32,19.61
			c-38.7,3.38-77.59,4.01-116.41,3.21c-38.8-0.79-77.55-3.01-116.28-5.41c-36.16-2.24-72.42-4.23-108.28-9.62
			c-35.03-5.27-69.89-13.88-101.87-29.41c-4.01-1.95-7.97-4.01-11.88-6.16C1612.81,1516.59,1611.3,1519.18,1612.99,1520.11
			L1612.99,1520.11z"/>
	</g>
</g>
<g>
	<g>
		<path class="st0" d="M1656.24,1424.78c19.04-4.37,37.15-12.8,52.73-24.59c4.42-3.34,8.64-6.93,12.63-10.77
			c1.39-1.34-0.73-3.46-2.12-2.12c-13.81,13.28-30.43,23.59-48.48,30.05c-5.09,1.82-10.29,3.33-15.56,4.54
			C1653.56,1422.32,1654.36,1425.22,1656.24,1424.78L1656.24,1424.78z"/>
	</g>
</g>
<path class="st0" d="M2209.88,1707.45c-103.99,12.16-221.62,20.04-350.57,18.95c-110.21-0.93-211.76-8.26-303.19-18.95
	c0-25.27,0-50.54,0-75.82c87.29,15.35,191.03,27.26,307.93,28.43c133.02,1.34,249.87-11.56,345.83-28.43
	C2209.88,1656.91,2209.88,1682.18,2209.88,1707.45z"/>
<path class="st7" d="M2195.67,1691.31c-98.81,12.76-211.76,21.43-336.35,20.88c-109.36-0.49-209.42-8.01-298.46-18.95
	c0-17.37,0-34.75,0-52.12c80.45,16.86,177.93,30.85,288.98,33.63c135.6,3.39,253-10.9,345.83-28.89
	C2195.67,1661,2195.67,1676.16,2195.67,1691.31z"/>
<rect x="1641.39" y="721.84" class="st2" width="23.69" height="90.03"/>
<rect x="2086.71" y="717.1" class="st2" width="47.37" height="94.77"/>
</svg>
