<?xml version="1.0" encoding="utf-8"?>
<!-- Generator: Adobe Illustrator 23.0.5, SVG Export Plug-In . SVG Version: 6.00 Build 0)  -->
<svg version="1.1" id="圖層_1" xmlns="http://www.w3.org/2000/svg" xmlns:xlink="http://www.w3.org/1999/xlink" x="0px" y="0px"
	 viewBox="0 0 3840 2160" style="enable-background:new 0 0 3840 2160;" xml:space="preserve">
<style type="text/css">
	.st0{fill:#341929;}
	.st1{fill:#35182E;}
	.st2{fill:#1D1625;}
	.st3{fill:#DC2516;}
	.st4{fill:#CE250E;}
	.st5{fill:#C53618;}
	.st6{fill:#FEF7EF;}
	.st7{fill:#A33033;}
	.st8{fill:#130002;}
	.st9{fill:#5B0309;}
	.st10{fill:#F5F7EA;}
	.st11{fill:#4F5566;}
	.st12{fill:#416666;}
	.st13{fill:#8AC9FE;stroke:#151ABC;stroke-width:4;stroke-miterlimit:10;}
	.st14{fill:#8D9CA8;stroke:#000000;stroke-miterlimit:10;}
</style>
<g>
	<g>
		<path class="st0" d="M153.24,1170.26c-1.26,4.79-2.53,9.57-3.78,14.35c-0.1,5.68-0.22,11.36-0.3,17.05
			c1.38-8.62,2.74-17.23,4.09-25.85V1170.26z"/>
	</g>
	<g>
		<path class="st0" d="M847.85,622.89l2.49,4.5c-19.29,19.86-40.61,37.87-63.56,53.68c-6.75-9.5-13.97-19.4-24.68-24.45
			c-10.71-5.05-25.92-3.12-31.41,7.12c-2.88,5.37-2.57,11.75-2.19,17.78c1.76,27.96,3.53,55.91,5.29,83.87
			c0.49,7.72,0.59,16.48-5.08,21.93c-8.73,8.38-23.15,2.82-34.81-0.94c-40.62-13.07-84.79,3.39-122.48,23.04
			c-44.11,23-85.57,50.76-123.37,82.6c-16.47,13.87-32.67,29.1-41.21,48.55c-8.73,19.87-9.19,43.51-23.23,60.29
			c-12.92,15.44-34.23,21.28-54.26,25.6c-26.11,5.64-52.65,10.22-79.16,14.89c-14.68,82.43-8.36,168.13-8.22,251.05
			c0.04,21-29.4,24.72-40.06,11.32c-1.23,30.06-2.3,60.13-3.09,90.2c90.98-70.76,185.51-136.83,289.2-188.16
			c35.95-17.8,73.58-34.22,102.65-61.36c65.76-61.38,73.54-163.06,133.56-229.72c15.61-17.33,34.35-31.79,50.22-48.9
			c60.1-64.79,74.54-161.96,139.9-221.79C898.2,626.18,871.75,617.79,847.85,622.89z"/>
	</g>
	<g>
		<path class="st1" d="M2254,1288.59c-1.03-52.59-3.25-105.17-7.89-157.56c-6.32-34.77-13.63-69.39-13.6-104.86
			c-22.53-2.45-45-5.08-66.71-11.21c-5.08-1.43-10.21-3.11-14.38-6.25c-5.99-4.51-9.31-11.48-12.6-18.1
			c-62.47-125.26-198.24-213.13-341.65-221.1c2.49-35.92-3.51-72.37-17.41-105.76c-1.41-3.39-3.23-7.08-6.75-8.42
			c-8.16-3.11-13.47,7.97-19.03,14.54c-9.59,11.33-28.34,10.61-41.66,3.68c-13.32-6.94-23.33-18.51-35.3-27.46
			c-32.81-24.55-81.14-25.16-116.57-5.12c-9.49,1.06-17.67,8.19-22.02,17.1c-1.09,1.14-2.23,2.22-3.26,3.43l2.5-1.69
			c-1.27,3.01-2.13,6.16-2.44,9.33c-1.46,15.08,5.56,29.61,12.88,43c18.88,34.56,40.93,67.48,65.81,98.27
			c4.27,5.28,8.61,10.49,12.96,15.71l19.09,22.89c37.76,45.28,75.51,90.56,113.27,135.84c49.49,59.35,98.97,118.7,148.46,178.04
			c13.75,16.49,28.1,33.46,47.64,43.03c25.15,12.31,54.96,10.52,82.34,16.97c55.14,13,95.12,57.37,138.15,93.2
			c22.53,18.76,46.79,35.54,72.33,50.26C2250.29,1340.72,2252.5,1314.68,2254,1288.59z"/>
	</g>
	<path class="st1" d="M1800.92,929c-125.15-163.36-246.35-284.45-331.87-363.15c-165.94-3.21-331.87-6.43-497.81-9.64
		c-126.74,112.17-311.52,302.97-454.66,584.9c-92.08,181.36-145.71,271.48-116.15,372.79c3.47,11.88,7.87,23.34,13.1,34.41
		c13.23,51.79,32.23,109.78,59.91,171.27c47.89,106.39,105.65,187.66,152.66,244.24c101.77-2.14,203.55-4.28,305.32-6.43v-147.18
		c114.78,18.34,226.84,25.16,311.96,25.06c83.1-0.09,200.48-6.85,321.91-26.11v148.24c101.77,2.14,203.55,4.28,305.32,6.43
		c47.01-56.59,104.77-137.85,152.66-244.24c26.36-58.56,44.88-113.99,58.01-163.87c6.13-12.35,11.21-25.19,15-38.6
		C2138.11,1369.16,2015.76,1209.44,1800.92,929z"/>
	<path class="st2" d="M1359.53,543.36c-10.97-0.36-20.35-2.47-27.81-4.89c0.44-3.58,0.87-7.28,1.26-11.18
		c4.91-49.26,0.92-86.57,0-96.41c-3.39-36.12-3.55-107.91,9.96-263.53c-15.68,7.31-39.94,20.93-63.06,44.99
		c-24.44,25.43-36.89,51.39-43.14,67.49c-41.18,34.28-63.48,68.04-76.33,93.2c-23.24,45.53-23.65,78.79-56.42,141.4
		c-12.45,23.78-24.65,42.4-33.19,54.63c82.97,1.04,165.94,2.09,248.9,3.13v0.08H1406c0-12.85,0-25.71,0-38.56
		C1397.89,537.55,1381.3,544.07,1359.53,543.36z"/>
	<path class="st3" d="M884.96,652.62c-18.57-4.76-64.11-19.13-99.56-61.06c-59.14-69.95-39.2-156.29-36.51-167.11
		c1.48-14.86,6.18-40.66,23.23-67.49c26.35-41.47,65.21-58.69,79.65-64.27c-2.65,4.42-53.41,92.51-3.32,179.97
		c42.15,73.6,122.22,88.24,132.75,89.98C949.12,592.63,917.04,622.63,884.96,652.62z"/>
	<path class="st4" d="M1573.18,665.48c21.26-9.58,55.61-28.6,85.03-64.27c55.1-66.8,52.48-142.98,51.03-163.9
		c-1.48-14.86-6.18-40.66-23.23-67.49c-26.35-41.47-65.21-58.69-79.65-64.27c2.74,22.87,16.39,154.2-74.26,234.6
		c-13.41,11.89-31.37,24.69-55.17,35.35C1509.02,605.49,1541.1,635.48,1573.18,665.48z"/>
	<path class="st5" d="M1243.38,784.39c-70.8-25.71-141.6-51.42-212.4-77.13c2.32-9.86,6.27-22.16,13.27-35.35
		c11.47-21.62,26.13-36.24,36.51-44.99c19.19,3.82,42.17,10.5,66.37,22.5c66.86,33.13,101.56,86.21,116.15,112.48
		C1256.65,769.39,1250.02,776.89,1243.38,784.39z"/>
	<path class="st5" d="M1449.14,694.4c-68.59,29.99-137.17,59.99-205.76,89.98c-7.37-12.28-14.73-24.55-22.1-36.83
		c20-22.28,48.95-49.96,88.47-75.65c32.97-21.44,64.2-35.57,89.61-44.99c3.46,0.17,24.91,1.55,39.82,19.28
		C1456.68,667,1449.83,692.05,1449.14,694.4z"/>
	<path class="st6" d="M1183.64,803.67c-36.14,27.78-83.71,32.71-119.47,12.85c-34.08-18.92-44.3-53.05-46.46-61.06
		c-1.18-7.1-1.98-17.16,0-28.92c3.09-18.36,11.38-31.55,16.59-38.56c30.31,7.82,65.29,19.03,102.88,35.35
		c33.35,14.49,62.13,30.12,86.29,44.99C1210.19,780.1,1196.92,791.89,1183.64,803.67z"/>
	<path class="st6" d="M1449.14,790.81c-7.23,7.18-23.74,21.63-49.78,28.92c-28.92,8.1-53.13,2.76-63.06,0
		c-10.64-5.99-25.64-16.08-39.82-32.14c-11.44-12.96-18.68-25.66-23.23-35.35c58.63-19.28,117.26-38.56,175.89-57.85
		c4.68,7.86,15.13,27.87,13.27,54.63C1461.06,768.56,1453.76,783.12,1449.14,790.81z"/>
	<ellipse cx="1160.41" cy="761.89" rx="19.91" ry="19.28"/>
	<ellipse cx="1339.62" cy="761.89" rx="19.91" ry="19.28"/>
	<path class="st7" d="M984.52,1372.5c-17.57-3.42-39.32-9.2-63.06-19.28c-21.62-9.18-39.32-19.57-53.1-28.92
		c-5.14-5.1-123.34-125.88-79.65-253.89c27.68-81.1,104.73-119.34,142.7-138.19c43.05-21.37,103.19-40.68,325.23-32.14
		c69.89,2.69,166.52,8.55,282.09,22.5c23.24,9.39,79.67,35.83,119.47,96.41c10.64,16.2,54.92,83.61,36.51,163.9
		c-14.93,65.09-63.11,103.95-86.29,122.12c-106.85,83.78-249.82,81.3-497.81,73.92C1055.88,1377.3,1011.54,1374.46,984.52,1372.5z"
		/>
	<path class="st8" d="M1651.58,1198.96c-15.87,64.47-71.54,100.72-89.61,112.48c-57.43,37.4-107.29,36.19-275.45,35.35
		c-257.28-1.29-296.37,0.76-348.46-35.35c-14.83-10.28-82.39-59.24-92.92-144.62c-7.66-62.02,16.96-126.51,63.06-167.11
		c7.78-6.85,33.93-28.67,109.52-48.21c83.7-21.63,153.26-21.15,209.08-19.28c178.1,5.96,267.59,8.35,315.28,41.78
		C1605.5,1018.47,1673.67,1109.24,1651.58,1198.96z"/>
	<path class="st9" d="M1565.29,1311.44c-14.9,7.65-37.53,17.91-66.37,25.71c-44.44,12.01-74.84,10.39-132.75,9.64
		c-95.07-1.23-95.62,2-245.58,0c-26.35-0.35,6.46-0.01-73.01-3.21c-32.61-1.31-44.27-1.62-59.74-6.43
		c-24.78-7.71-42.3-21.68-53.1-32.14c24.46-24.21,61.72-56.76,112.84-86.77c54.22-31.83,117.06-68.73,205.76-70.7
		c105.56-2.35,181.91,46.41,209.08,64.27C1514.35,1245.96,1546.97,1285.46,1565.29,1311.44z"/>
	<g>
		<g>
			<path class="st10" d="M977.88,1157.18c14.62-25.4,30.78-58.81,43.14-99.63c14.02-46.29,18.73-87.43,19.91-118.91
				c-48.67,1.07-97.35,2.14-146.02,3.21c-1.9,23.59-2.16,66.52,16.59,115.69C930.62,1107.65,960.41,1140.49,977.88,1157.18z"/>
			<path class="st10" d="M1116.56,1102.89c11.05-19.37,23.25-44.85,32.59-75.97c10.59-35.3,14.14-66.67,15.03-90.68
				c-36.8,0.81-73.59,1.61-110.39,2.42c-1.43,17.99-1.62,50.73,12.57,88.24C1080.82,1065.11,1103.35,1090.16,1116.56,1102.89z"/>
			<path class="st10" d="M1359.53,1092.91c16.61-19.5,36.67-47.25,53.1-83.56c11.91-26.32,18.95-50.6,23.23-70.7
				c-43.14-1.07-86.29-2.14-129.43-3.21c12.75,25.17,25.71,55.25,36.51,89.98C1350.45,1049.57,1355.76,1072.26,1359.53,1092.91z"/>
			<path class="st10" d="M1240.06,1080.05c6.45-22.35,14.1-46.01,23.23-70.7c9.73-26.31,19.98-50.7,30.31-73.11
				c-36.8,0.81-73.59,1.61-110.39,2.42c13.19,18.93,28.34,44.7,40.25,77.12C1232.26,1039.71,1237.22,1061.65,1240.06,1080.05z"/>
			<path class="st10" d="M1538.74,1160.39c29.22-1.53,55.14-82.63,66.37-189.61c-3.3-4.43-30.72-39.93-79.65-41.78
				c-43.4-1.64-71.6,24.41-76.33,28.92C1471.61,1078.28,1508.46,1161.98,1538.74,1160.39z"/>
			<path class="st10" d="M984.52,1276.09c-7.52,3.78-19,10.67-29.87,22.5c-11.17,12.15-16.95,24.36-19.91,32.14
				c8.52,4.51,23.42,11.02,43.14,12.85c17.01,1.59,30.97-0.92,39.82-3.21c0.85-5.31,2.72-21.44-6.64-38.56
				C1002.54,1286.2,989.57,1278.69,984.52,1276.09z"/>
			<path class="st10" d="M1064.17,1266.45c-3.99,2.03-19.39,10.45-26.55,28.92c-8.71,22.46,1.66,41.99,3.32,44.99
				c25.44,1.07,50.89,2.14,76.33,3.21c0.89-4.79,4.42-26.71-9.96-48.21C1092.3,1272.93,1068.79,1267.43,1064.17,1266.45z"/>
			<path class="st10" d="M1190.28,1272.88c-4.84,5.22-11.58,13.74-16.59,25.71c-5.51,13.15-6.56,24.85-6.64,32.14
				c14.38,1.07,28.76,2.14,43.14,3.21c0.72-6.82,1.04-18.53-3.32-32.14C1202.38,1287.78,1194.95,1278.11,1190.28,1272.88z"/>
			<path class="st10" d="M1309.75,1240.74c-12.54,9.81-28.48,24.45-43.14,44.99c-10.88,15.25-18.23,29.77-23.23,41.78
				c15.52,4.96,33.29,9.54,53.1,12.85c40.18,6.72,75.52,6.01,102.88,3.21C1369.49,1309.3,1339.62,1275.02,1309.75,1240.74z"/>
			<path class="st10" d="M1415.95,1247.17c-17.7,33.21-35.4,66.42-53.1,99.63c40.93,0,81.86,0,122.79,0
				C1462.41,1313.58,1439.18,1280.37,1415.95,1247.17z"/>
			<path class="st10" d="M1505.56,1269.66c-15.49,25.71-30.97,51.42-46.46,77.13c30.97-4.29,61.95-8.57,92.92-12.85
				c-1.74-8.04-5.34-19.75-13.27-32.14C1527.68,1284.54,1513.7,1274.59,1505.56,1269.66z"/>
		</g>
	</g>
	<ellipse class="st11" cx="1238.4" cy="827.77" rx="38.17" ry="20.89"/>
	<path class="st12" d="M1903.8,1517.12c-39.74,87.84-127.47,125.58-209.08,160.69c-48.91,21.04-120.15,45.39-262.18,61.06
		c-146.08,16.12-334.88,35.07-560.86-32.14c-120.03-35.7-180.31-53.63-228.99-112.48c-136.53-165.08-28.82-467.18,29.87-469.21
		c37.29-1.28,19.95,119.75,126.11,202.47c67.54,52.62,178.88,60.79,401.56,77.13c16.27,1.19,79.39,5.65,162.62,3.21
		c85.22-2.49,127.83-3.74,172.57-19.28c70.49-24.49,115.62-67.51,152.66-102.84c90.33-86.14,100.47-147.97,136.07-144.62
		c49.72,4.68,74.78,129.52,82.97,170.33C1921.58,1383.46,1934.7,1448.83,1903.8,1517.12z"/>
	<path class="st13" d="M3357.76,143.5H488.99c-183.57,0-332.39,134.75-332.39,300.96v1270.07c0,166.22,148.82,300.96,332.39,300.96
		h2868.77c183.57,0,332.39-134.75,332.39-300.96V444.46C3690.15,278.25,3541.34,143.5,3357.76,143.5z M2000.19,1689.59H494.59
		V469.41h1505.6V1689.59z"/>
	<rect x="2182.08" y="459.68" class="st14" width="1325.63" height="333.86"/>
	<g>
		<path d="M2702.71,604.53c1.78-2.24,4.12-3.73,7-4.47c1.1-0.25,2.19-0.37,3.29-0.37c1.78,0,3.5,0.37,5.14,1.12
			c2.6,1.12,4.25,2.92,4.94,5.4c0.27,0.75,0.41,1.43,0.41,2.05c0,1.74-0.62,3.29-1.85,4.66c-8.1,9.81-17.15,19.07-27.16,27.76
			c-0.96,0.87-1.44,1.93-1.44,3.17v45.83c0,5.59-0.82,9.97-2.47,13.13c-1.65,3.17-4.53,5.5-8.64,6.99
			c-4.94,1.61-15.5,2.61-31.69,2.98h-0.21c-3.02,0-5.69-0.87-8.02-2.61c-2.47-1.86-4.25-4.16-5.35-6.89
			c-0.28-0.87-0.41-1.68-0.41-2.42c0-1.24,0.41-2.48,1.23-3.73c1.37-1.86,3.22-2.79,5.56-2.79h0.21c6.31,0.12,14.27,0.19,23.87,0.19
			c3.7-0.12,5.56-1.8,5.56-5.03V659.3c0-0.37-0.21-0.62-0.62-0.75c-0.41-0.12-0.75-0.12-1.03,0
			c-30.04,20.74-66.19,37.32-108.43,49.74c-1.51,0.37-2.95,0.56-4.32,0.56c-1.65,0-3.29-0.25-4.94-0.75
			c-3.16-0.99-5.69-2.73-7.61-5.22c-1.1-1.24-1.65-2.55-1.65-3.91c0-0.75,0.13-1.49,0.41-2.24c0.69-2.24,2.33-3.66,4.94-4.29
			c32.78-8.57,61.8-19.93,87.04-34.09c0.13-0.12,0.17-0.28,0.1-0.47c-0.07-0.19-0.24-0.28-0.51-0.28
			c-35.26,2.73-62.69,4.66-82.3,5.78c-0.28,0-0.55,0-0.82,0c-2.47,0-4.66-0.68-6.58-2.05c-2.19-1.61-3.5-3.66-3.91-6.15
			c-0.14-0.5-0.21-0.93-0.21-1.3c0-1.86,0.62-3.54,1.85-5.03c1.65-1.86,3.84-2.86,6.58-2.98l20.16-0.93
			c1.37-0.12,2.06-0.81,2.06-2.05v-70.8c0-4.47,1.75-8.29,5.25-11.46s7.72-4.75,12.65-4.75h23.25c1.37,0,2.33-0.56,2.88-1.68
			c1.1-2.48,2.13-4.78,3.09-6.89c1.23-2.86,3.29-5.15,6.17-6.89c2.33-1.37,4.87-2.05,7.61-2.05c0.54,0,1.16,0,1.85,0
			c3.01,0.37,5.07,1.74,6.17,4.1c0.69,1.12,1.03,2.24,1.03,3.35c0,1.12-0.41,2.3-1.23,3.54c-0.82,1.49-1.78,3.11-2.88,4.84
			c-0.28,0.37-0.31,0.75-0.1,1.12s0.51,0.56,0.93,0.56h35.6c4.94,0,9.16,1.58,12.65,4.75c3.5,3.17,5.25,6.99,5.25,11.46v41.73
			c0,0.37,0.17,0.59,0.51,0.65c0.34,0.06,0.58-0.03,0.72-0.28C2696.88,611.36,2699.7,608.13,2702.71,604.53z M2672.67,573.23
			c0-1.24-0.69-1.86-2.06-1.86h-76.13c-1.37,0-2.06,0.62-2.06,1.86v11.18c0,1.24,0.69,1.86,2.06,1.86h76.13
			c1.37,0,2.06-0.62,2.06-1.86V573.23z M2670.62,614.4c1.37,0,2.06-0.62,2.06-1.86v-11.36c0-1.24-0.69-1.86-2.06-1.86h-76.13
			c-1.37,0-2.06,0.62-2.06,1.86v11.36c0,1.24,0.69,1.86,2.06,1.86H2670.62z M2594.49,627.26c-1.37,0-2.06,0.62-2.06,1.86v12.86
			c0,0.5,0.21,0.93,0.62,1.3s0.89,0.5,1.44,0.37c35.11-1.61,58.02-2.73,68.72-3.35c1.37-0.12,2.6-0.56,3.7-1.3
			c1.1-0.99,2.54-2.17,4.32-3.54c0.96-0.87,1.44-1.93,1.44-3.17v-3.17c0-1.24-0.69-1.86-2.06-1.86H2594.49z"/>
		<path d="M2868.14,559.82c-0.82-1.24-1.31-2.55-1.44-3.91c0-0.99,0.27-1.93,0.82-2.79c0.96-2.36,2.67-3.97,5.14-4.84
			c1.37-0.5,2.74-0.75,4.12-0.75c1.37,0,2.67,0.19,3.91,0.56c2.74,0.99,4.87,2.61,6.38,4.84c6.04,9.44,13.37,18.88,22.02,28.32
			s17.49,17.7,26.54,24.78c2.47,1.99,3.7,4.47,3.7,7.45c0,2.73-1.03,5.03-3.09,6.89c-2.34,2.24-5.08,3.48-8.23,3.73
			c-0.28,0-0.62,0-1.03,0c-2.75,0-5.28-0.93-7.61-2.79c-2.47-2.24-4.87-4.53-7.2-6.89c-0.28-0.25-0.55-0.31-0.82-0.19
			c-0.41,0.12-0.69,0.37-0.82,0.75c0,2.73,0,4.6,0,5.59c-1.37,29.31-2.95,50.27-4.73,62.88c-1.78,12.61-4.46,20.77-8.02,24.5
			c-2.34,2.73-4.73,4.56-7.2,5.5c-2.47,0.93-5.83,1.71-10.08,2.33c-3.16,0.25-7.48,0.37-12.96,0.37c-2.75,0-5.83,0-9.26,0
			c-3.02-0.12-5.59-1.09-7.72-2.89c-2.13-1.8-3.74-4.07-4.84-6.8c-0.69-1.99-0.41-3.82,0.82-5.5c1.23-1.68,3.01-2.45,5.35-2.33
			c6.86,0.37,13.24,0.56,19.14,0.56c4.12,0,7.13-0.93,9.05-2.79c2.47-2.24,4.42-8.29,5.86-18.16c1.44-9.87,2.7-25.43,3.81-46.67
			c0-0.5-0.21-0.93-0.62-1.3s-0.9-0.56-1.44-0.56h-44.44c-1.37,0-2.19,0.62-2.47,1.86c-1.1,7.33-2.47,13.97-4.12,19.93
			s-4.01,12.11-7.1,18.44s-6.86,12.05-11.32,17.14c-4.46,5.09-10.05,10.03-16.77,14.81c-6.72,4.78-14.48,8.91-23.25,12.39
			c-1.51,0.62-3.02,0.93-4.53,0.93c-1.37,0-2.67-0.25-3.91-0.75c-3.02-0.87-5.35-2.48-7-4.84c-1.1-1.37-1.65-2.79-1.65-4.29
			c0-0.62,0.07-1.24,0.21-1.86c0.69-2.24,2.19-3.79,4.53-4.66c7.54-2.98,14.27-6.4,20.16-10.25c5.89-3.85,10.7-7.86,14.4-12.02
			s6.89-8.82,9.57-13.97c2.68-5.15,4.7-10.12,6.07-14.9c1.37-4.78,2.54-10.15,3.5-16.12c0-0.5-0.18-0.93-0.51-1.3
			c-0.34-0.37-0.79-0.56-1.34-0.56h-22.84c-3.98,0-7.38-1.3-10.19-3.91c-2.81-2.61-4.22-5.71-4.22-9.32c0-0.12-0.18-0.25-0.51-0.37
			c-0.34-0.12-0.59-0.12-0.72,0c-3.02,2.73-6.1,5.34-9.26,7.82c-2.19,1.74-4.73,2.55-7.61,2.42c-0.28,0-0.62,0-1.03,0
			c-3.16-0.12-5.9-1.18-8.23-3.17c-1.92-1.74-2.88-3.85-2.88-6.33c0-2.73,1.16-4.97,3.5-6.71c20.58-14.78,36.83-33.41,48.76-55.89
			c1.37-2.73,3.5-4.66,6.38-5.78c1.65-0.62,3.36-0.93,5.14-0.93c1.1,0,2.19,0.12,3.29,0.37c3.01,0.75,5.01,2.3,5.97,4.66
			c0.69,1.12,1.03,2.27,1.03,3.45s-0.34,2.39-1.03,3.63c-10.16,19-23.04,36.08-38.68,51.23c-0.28,0.25-0.34,0.56-0.21,0.93
			c0.13,0.37,0.41,0.56,0.82,0.56h122.63c0.41,0,0.72-0.19,0.93-0.56s0.17-0.68-0.1-0.93
			C2893.04,595.21,2879.53,578.2,2868.14,559.82z"/>
		<path d="M3023.29,573.42c2.19,0,4.04,0.68,5.56,2.05c1.51,1.37,2.26,3.01,2.26,4.94s-0.75,3.6-2.26,5.03
			c-1.51,1.43-3.36,2.14-5.56,2.14h-56.79c-2.19,0-4.05-0.71-5.56-2.14c-1.51-1.43-2.26-3.11-2.26-5.03s0.75-3.57,2.26-4.94
			c1.51-1.37,3.36-2.05,5.56-2.05H3023.29z M3007.44,650.55c4.94,0,9.12,1.55,12.55,4.66c3.43,3.11,5.14,6.96,5.14,11.55v23.47
			c0,4.47-1.75,8.26-5.25,11.36c-3.5,3.11-7.65,4.66-12.45,4.66h-23.04c-0.55,0-0.82,0.25-0.82,0.75v0.37c0,1.99-0.79,3.7-2.37,5.12
			c-1.58,1.43-3.5,2.14-5.76,2.14c-2.26,0-4.15-0.71-5.66-2.14c-1.51-1.43-2.26-3.14-2.26-5.12v-40.61c0-4.6,1.75-8.45,5.25-11.55
			s7.72-4.66,12.65-4.66H3007.44z M3135.42,571.37c1.65-1.24,3.53-1.86,5.66-1.86c2.13,0,3.98,0.71,5.56,2.14
			c1.57,1.43,2.23,3.07,1.95,4.94c-0.28,1.86-1.23,3.29-2.88,4.29c-4.25,2.73-8.37,5.15-12.35,7.27c-1.1,0.62-1.23,1.37-0.41,2.24
			c4.25,4.35,8.64,8.07,13.17,11.18c2.06,1.24,3.22,2.98,3.5,5.22c0.13,0.37,0.21,0.81,0.21,1.3c0,1.74-0.62,3.29-1.85,4.66
			c-1.92,1.99-4.19,3.23-6.79,3.73c-0.69,0.12-1.31,0.19-1.85,0.19c-1.92,0-3.7-0.5-5.35-1.49c-5.9-4.1-11.32-9-16.25-14.72
			c-0.14-0.12-0.28-0.16-0.41-0.09c-0.14,0.06-0.21,0.16-0.21,0.28c0,2.24-0.86,4.13-2.57,5.68c-1.72,1.55-3.81,2.33-6.28,2.33
			h-39.92c-1.92,0-3.57-0.62-4.94-1.86c-1.37-1.24-2.06-2.73-2.06-4.47h-0.21c-0.14-0.12-0.28-0.19-0.41-0.19
			c-4.53,5.09-9.54,9.63-15.02,13.6c-2.34,1.61-4.81,2.42-7.41,2.42c-0.96,0-1.85-0.12-2.67-0.37c-3.7-0.62-6.93-2.36-9.67-5.22
			c-0.41-0.25-0.82-0.56-1.23-0.93c-0.14,0-0.14,0,0,0c0,0.99-0.48,1.49-1.44,1.49h-47.94c-2.06,0-3.84-0.68-5.35-2.05
			c-1.51-1.37-2.26-2.98-2.26-4.84s0.72-3.48,2.16-4.84c1.44-1.37,3.26-2.05,5.45-2.05h39.71c2.74,0,5.04,0.87,6.89,2.61
			c1.85,1.74,2.78,3.85,2.78,6.33c0,0.12,0.13,0.25,0.41,0.37c0.27,0.12,0.48,0.19,0.62,0.19c7.68-3.97,15.02-9.63,22.02-16.95
			c0.82-0.99,0.75-1.93-0.21-2.79c-2.47-2.36-5.42-4.78-8.85-7.27c-1.51-1.24-2.34-2.79-2.47-4.66c-0.14-1.86,0.48-3.48,1.85-4.84
			c1.51-1.49,3.36-2.33,5.56-2.52c2.19-0.19,4.18,0.34,5.97,1.58c2.6,1.74,5.01,3.54,7.2,5.4c0.96,0.75,1.78,0.62,2.47-0.37
			c2.47-4.1,4.6-8.14,6.38-12.11c0.13-0.5,0.07-0.93-0.21-1.3c-0.28-0.37-0.69-0.56-1.23-0.56h-20.16c-2.06,0-3.84-0.65-5.35-1.96
			c-1.51-1.3-2.26-2.92-2.26-4.84c0-1.93,0.75-3.57,2.26-4.94c1.51-1.37,3.29-2.05,5.35-2.05h28.6c0.27,0,0.54-0.06,0.82-0.19
			c1.78-0.25,3.57-0.06,5.35,0.56l2.88,0.93c1.65,0.5,2.88,1.43,3.7,2.79c0.82,1.37,1.03,2.79,0.62,4.29
			c-3.98,13.04-9.88,25.03-17.7,35.96c-0.28,0.37-0.31,0.71-0.1,1.02c0.21,0.31,0.51,0.47,0.93,0.47h41.97
			c0.41,0,0.72-0.16,0.93-0.47c0.21-0.31,0.17-0.65-0.1-1.02c-7.82-10.81-14.27-24.22-19.34-40.24c-0.55-1.99-0.24-3.88,0.93-5.68
			c1.16-1.8,2.91-2.89,5.25-3.26c0.69-0.12,1.3-0.19,1.85-0.19c1.65,0,3.15,0.37,4.53,1.12c1.92,1.12,3.22,2.67,3.91,4.66
			c0.96,2.73,1.92,5.4,2.88,8.01c0.13,0.37,0.44,0.62,0.93,0.75c0.48,0.12,0.93,0.06,1.34-0.19c3.29-2.48,6.17-4.72,8.64-6.71
			c1.51-1.24,3.29-1.89,5.35-1.96c2.06-0.06,3.84,0.59,5.35,1.96c1.51,1.24,2.16,2.76,1.95,4.56c-0.21,1.8-1.06,3.2-2.57,4.19
			c-4.25,2.73-8.85,5.4-13.79,8.01c-1.1,0.62-1.31,1.49-0.62,2.61c1.65,3.11,3.16,5.65,4.53,7.64c0.82,1.12,1.78,1.24,2.88,0.37
			C3129.53,576.15,3132.68,573.73,3135.42,571.37z M3017.11,624.65c2.19,0,4.01,0.68,5.45,2.05c1.44,1.37,2.16,3.01,2.16,4.94
			s-0.72,3.57-2.16,4.94c-1.44,1.37-3.26,2.05-5.45,2.05h-41.77c-2.06,0-3.84-0.68-5.35-2.05c-1.51-1.37-2.26-3.01-2.26-4.94
			s0.72-3.57,2.16-4.94c1.44-1.37,3.26-2.05,5.45-2.05H3017.11z M3016.5,548.26c2.19,0,4.01,0.68,5.45,2.05
			c1.44,1.37,2.16,3.01,2.16,4.94c0,1.93-0.72,3.54-2.16,4.84c-1.44,1.3-3.26,1.96-5.45,1.96h-39.71c-2.19,0-4.05-0.65-5.56-1.96
			c-1.51-1.3-2.26-2.92-2.26-4.84c0-1.93,0.75-3.57,2.26-4.94c1.51-1.37,3.36-2.05,5.56-2.05H3016.5z M3008.88,666.57
			c0-1.24-0.69-1.86-2.06-1.86h-21.19c-1.37,0-2.06,0.62-2.06,1.86v23.85c0,1.24,0.69,1.86,2.06,1.86h21.19
			c1.37,0,2.06-0.62,2.06-1.86V666.57z M3067.52,695.45c-0.14,0-0.21,0.06-0.21,0.19s0.07,0.19,0.21,0.19h74.07
			c2.33,0,4.32,0.75,5.97,2.24c1.65,1.49,2.47,3.29,2.47,5.4s-0.82,3.91-2.47,5.4c-1.65,1.49-3.64,2.24-5.97,2.24h-101.64
			c-2.34,0-4.32-0.75-5.97-2.24c-1.65-1.49-2.47-3.29-2.47-5.4s0.82-3.91,2.47-5.4c1.65-1.49,3.63-2.24,5.97-2.24h21.81
			c0.54,0,0.99-0.19,1.34-0.56c0.34-0.37,0.44-0.81,0.31-1.3c-1.23-5.71-3.29-12.05-6.17-19c-0.82-1.86-0.75-3.73,0.21-5.59
			c0.96-1.86,2.54-3.04,4.73-3.54c0.96-0.12,1.85-0.19,2.67-0.19c1.51,0,3.01,0.31,4.53,0.93c2.19,0.87,3.77,2.36,4.73,4.47
			c1.23,2.73,2.33,5.46,3.29,8.2c0.41,1.37,0.69,2.67,0.82,3.91c0,2.11-0.62,4.1-1.85,5.96
			C3074.45,692.34,3071.5,694.45,3067.52,695.45z M3116.7,619.06c4.94,0,9.16,1.58,12.65,4.75s5.25,6.99,5.25,11.46v12.3
			c0,4.47-1.75,8.29-5.25,11.46c-3.5,3.17-7.72,4.75-12.65,4.75H3063c-4.94,0-9.16-1.58-12.65-4.75c-3.5-3.17-5.25-6.99-5.25-11.46
			v-12.3c0-4.47,1.75-8.29,5.25-11.46c3.5-3.17,7.72-4.75,12.65-4.75H3116.7z M3113.61,649.8c1.37,0,2.06-0.62,2.06-1.86v-13.41
			c0-1.24-0.69-1.86-2.06-1.86h-48.76c-1.37,0-2.06,0.62-2.06,1.86v13.41c0,1.24,0.69,1.86,2.06,1.86H3113.61z M3106.21,671.97
			c0.69-2.24,2.19-3.97,4.53-5.22c1.51-0.75,3.09-1.12,4.73-1.12c0.82,0,1.65,0.06,2.47,0.19c2.33,0.5,4.11,1.74,5.35,3.73
			c0.54,1.12,0.82,2.24,0.82,3.35c0,0.99-0.21,1.93-0.62,2.79c-2.47,5.71-4.53,10.18-6.17,13.41c-0.82,1.99-2.34,3.42-4.53,4.29
			c-1.37,0.62-2.75,0.93-4.12,0.93c-0.96,0-1.85-0.06-2.67-0.19c-2.06-0.5-3.57-1.61-4.53-3.35c-0.96-1.74-1.1-3.54-0.41-5.4
			C3102.84,681.04,3104.56,676.57,3106.21,671.97z"/>
	</g>
	<g>
		<path d="M2388.95,983.42c1.78-2.24,4.12-3.73,7-4.47c1.1-0.25,2.19-0.37,3.29-0.37c1.78,0,3.5,0.37,5.14,1.12
			c2.6,1.12,4.25,2.92,4.94,5.4c0.27,0.75,0.41,1.43,0.41,2.05c0,1.74-0.62,3.29-1.85,4.66c-8.1,9.81-17.15,19.07-27.16,27.76
			c-0.96,0.87-1.44,1.93-1.44,3.17v45.83c0,5.59-0.82,9.97-2.47,13.13c-1.65,3.17-4.53,5.5-8.64,6.99
			c-4.94,1.61-15.5,2.61-31.69,2.98h-0.21c-3.02,0-5.69-0.87-8.02-2.61c-2.47-1.86-4.25-4.16-5.35-6.89
			c-0.28-0.87-0.41-1.68-0.41-2.42c0-1.24,0.41-2.48,1.23-3.73c1.37-1.86,3.22-2.79,5.56-2.79h0.21c6.31,0.12,14.27,0.19,23.87,0.19
			c3.7-0.12,5.56-1.8,5.56-5.03v-30.18c0-0.37-0.21-0.62-0.62-0.75c-0.41-0.12-0.75-0.12-1.03,0
			c-30.04,20.74-66.19,37.32-108.43,49.74c-1.51,0.37-2.95,0.56-4.32,0.56c-1.65,0-3.29-0.25-4.94-0.75
			c-3.16-0.99-5.69-2.73-7.61-5.22c-1.1-1.24-1.65-2.55-1.65-3.91c0-0.75,0.14-1.49,0.41-2.24c0.69-2.24,2.33-3.66,4.94-4.29
			c32.78-8.57,61.8-19.93,87.04-34.09c0.14-0.12,0.17-0.28,0.1-0.47c-0.07-0.19-0.24-0.28-0.51-0.28
			c-35.26,2.73-62.69,4.66-82.3,5.78c-0.28,0-0.55,0-0.82,0c-2.47,0-4.66-0.68-6.58-2.05c-2.19-1.61-3.5-3.66-3.91-6.15
			c-0.14-0.5-0.21-0.93-0.21-1.3c0-1.86,0.62-3.54,1.85-5.03c1.65-1.86,3.84-2.86,6.58-2.98l20.16-0.93
			c1.37-0.12,2.06-0.81,2.06-2.05v-70.8c0-4.47,1.75-8.29,5.25-11.46c3.5-3.17,7.72-4.75,12.65-4.75h23.25
			c1.37,0,2.33-0.56,2.88-1.68c1.1-2.48,2.13-4.78,3.09-6.89c1.23-2.86,3.29-5.15,6.17-6.89c2.33-1.37,4.87-2.05,7.61-2.05
			c0.55,0,1.16,0,1.85,0c3.02,0.37,5.07,1.74,6.17,4.1c0.69,1.12,1.03,2.24,1.03,3.35s-0.41,2.3-1.23,3.54
			c-0.82,1.49-1.78,3.11-2.88,4.84c-0.28,0.37-0.31,0.75-0.1,1.12c0.21,0.37,0.51,0.56,0.93,0.56h35.6c4.94,0,9.16,1.58,12.65,4.75
			c3.5,3.17,5.25,6.99,5.25,11.46v41.73c0,0.37,0.17,0.59,0.51,0.65c0.34,0.06,0.58-0.03,0.72-0.28
			C2383.12,990.26,2385.93,987.03,2388.95,983.42z M2358.91,952.13c0-1.24-0.69-1.86-2.06-1.86h-76.13c-1.37,0-2.06,0.62-2.06,1.86
			v11.18c0,1.24,0.69,1.86,2.06,1.86h76.13c1.37,0,2.06-0.62,2.06-1.86V952.13z M2356.85,993.3c1.37,0,2.06-0.62,2.06-1.86v-11.36
			c0-1.24-0.69-1.86-2.06-1.86h-76.13c-1.37,0-2.06,0.62-2.06,1.86v11.36c0,1.24,0.69,1.86,2.06,1.86H2356.85z M2280.72,1006.15
			c-1.37,0-2.06,0.62-2.06,1.86v12.86c0,0.5,0.21,0.93,0.62,1.3c0.41,0.37,0.89,0.5,1.44,0.37c35.11-1.61,58.02-2.73,68.72-3.35
			c1.37-0.12,2.6-0.56,3.7-1.3c1.1-0.99,2.54-2.17,4.32-3.54c0.96-0.87,1.44-1.93,1.44-3.17v-3.17c0-1.24-0.69-1.86-2.06-1.86
			H2280.72z"/>
		<path d="M2554.38,938.71c-0.82-1.24-1.31-2.55-1.44-3.91c0-0.99,0.27-1.93,0.82-2.79c0.96-2.36,2.67-3.97,5.14-4.84
			c1.37-0.5,2.74-0.75,4.12-0.75c1.37,0,2.67,0.19,3.91,0.56c2.74,0.99,4.87,2.61,6.38,4.84c6.04,9.44,13.37,18.88,22.02,28.32
			c8.64,9.44,17.49,17.7,26.54,24.78c2.47,1.99,3.7,4.47,3.7,7.45c0,2.73-1.03,5.03-3.09,6.89c-2.33,2.24-5.08,3.48-8.23,3.73
			c-0.28,0-0.62,0-1.03,0c-2.75,0-5.28-0.93-7.61-2.79c-2.47-2.24-4.87-4.53-7.2-6.89c-0.28-0.25-0.55-0.31-0.82-0.19
			c-0.41,0.12-0.69,0.37-0.82,0.75c0,2.73,0,4.6,0,5.59c-1.37,29.31-2.95,50.27-4.73,62.88c-1.78,12.61-4.46,20.77-8.02,24.5
			c-2.33,2.73-4.73,4.56-7.2,5.5c-2.47,0.93-5.83,1.71-10.08,2.33c-3.16,0.25-7.48,0.37-12.96,0.37c-2.75,0-5.83,0-9.26,0
			c-3.02-0.12-5.59-1.09-7.72-2.89c-2.13-1.8-3.74-4.07-4.84-6.8c-0.69-1.99-0.41-3.82,0.82-5.5c1.23-1.68,3.02-2.45,5.35-2.33
			c6.86,0.37,13.24,0.56,19.14,0.56c4.12,0,7.13-0.93,9.05-2.79c2.47-2.24,4.42-8.29,5.86-18.16c1.44-9.87,2.71-25.43,3.81-46.67
			c0-0.5-0.21-0.93-0.62-1.3c-0.41-0.37-0.89-0.56-1.44-0.56h-44.44c-1.37,0-2.19,0.62-2.47,1.86c-1.1,7.33-2.47,13.97-4.12,19.93
			s-4.01,12.11-7.1,18.44c-3.09,6.33-6.86,12.05-11.32,17.14c-4.46,5.09-10.05,10.03-16.77,14.81c-6.72,4.78-14.47,8.91-23.25,12.39
			c-1.51,0.62-3.02,0.93-4.53,0.93c-1.37,0-2.67-0.25-3.91-0.75c-3.02-0.87-5.35-2.48-7-4.84c-1.1-1.37-1.65-2.79-1.65-4.29
			c0-0.62,0.07-1.24,0.21-1.86c0.69-2.24,2.19-3.79,4.53-4.66c7.54-2.98,14.27-6.4,20.16-10.25c5.9-3.85,10.7-7.86,14.4-12.02
			c3.7-4.16,6.89-8.82,9.57-13.97c2.67-5.15,4.7-10.12,6.07-14.9c1.37-4.78,2.54-10.15,3.5-16.12c0-0.5-0.17-0.93-0.51-1.3
			c-0.34-0.37-0.79-0.56-1.34-0.56h-22.84c-3.98,0-7.38-1.3-10.19-3.91c-2.81-2.61-4.22-5.71-4.22-9.32c0-0.12-0.17-0.25-0.51-0.37
			c-0.34-0.12-0.59-0.12-0.72,0c-3.02,2.73-6.1,5.34-9.26,7.82c-2.19,1.74-4.73,2.55-7.61,2.42c-0.28,0-0.62,0-1.03,0
			c-3.16-0.12-5.9-1.18-8.23-3.17c-1.92-1.74-2.88-3.85-2.88-6.33c0-2.73,1.16-4.97,3.5-6.71c20.58-14.78,36.83-33.41,48.76-55.89
			c1.37-2.73,3.5-4.66,6.38-5.78c1.65-0.62,3.36-0.93,5.14-0.93c1.1,0,2.19,0.12,3.29,0.37c3.02,0.75,5.01,2.3,5.97,4.66
			c0.69,1.12,1.03,2.27,1.03,3.45c0,1.18-0.34,2.39-1.03,3.63c-10.15,19-23.04,36.08-38.68,51.23c-0.28,0.25-0.34,0.56-0.21,0.93
			c0.14,0.37,0.41,0.56,0.82,0.56h122.63c0.41,0,0.72-0.19,0.93-0.56s0.17-0.68-0.1-0.93
			C2579.27,974.11,2565.76,957.09,2554.38,938.71z"/>
		<path d="M2754.38,974.85c-3.43,2.98-7.61,4.47-12.55,4.47s-9.12-1.49-12.55-4.47c-3.43-2.98-5.14-6.77-5.14-11.36
			s1.71-8.41,5.14-11.46c3.43-3.04,7.61-4.56,12.55-4.56s9.12,1.52,12.55,4.56c3.43,3.04,5.14,6.86,5.14,11.46
			S2757.8,971.87,2754.38,974.85z M2754.38,1067.26c-3.43,2.98-7.61,4.47-12.55,4.47s-9.12-1.49-12.55-4.47
			c-3.43-2.98-5.14-6.71-5.14-11.18c0-4.72,1.71-8.57,5.14-11.55c3.43-2.98,7.61-4.47,12.55-4.47s9.12,1.49,12.55,4.47
			c3.43,2.98,5.14,6.83,5.14,11.55C2759.52,1060.56,2757.8,1064.28,2754.38,1067.26z"/>
		<path d="M2872.07,1004.85c-0.69,1.86-2.03,3.26-4.01,4.19c-1.99,0.93-4.08,1.02-6.28,0.28c-2.06-0.62-3.57-1.86-4.53-3.73
			c-0.55-1.12-0.82-2.24-0.82-3.35c0-0.75,0.14-1.55,0.41-2.42c3.16-10.06,5.35-21.8,6.58-35.21c0.27-1.86,1.2-3.38,2.78-4.56
			c1.58-1.18,3.32-1.65,5.25-1.4c2.19,0.25,3.98,1.12,5.35,2.61c1.37,1.49,1.99,3.17,1.85,5.03
			C2877.69,980.69,2875.5,993.55,2872.07,1004.85z M2928.65,978.21c0.41,0.87,0.62,1.74,0.62,2.61c0,1.12-0.28,2.24-0.82,3.35
			c-0.96,1.99-2.54,3.42-4.73,4.29c-1.92,0.87-3.88,0.93-5.86,0.19c-1.99-0.75-3.33-2.11-4.01-4.1c-3.02-7.58-6.31-15.15-9.88-22.73
			c0-0.25-0.14-0.34-0.41-0.28c-0.28,0.06-0.41,0.22-0.41,0.47v125.2c0,2.36-0.93,4.38-2.78,6.05s-4.08,2.52-6.69,2.52
			c-2.61,0-4.84-0.84-6.69-2.52s-2.78-3.7-2.78-6.05V929.58c0-2.36,0.93-4.38,2.78-6.05s4.08-2.52,6.69-2.52
			c2.6,0,4.84,0.84,6.69,2.52s2.78,3.7,2.78,6.05v25.34c0,0.37,0.14,0.65,0.41,0.84c0.27,0.19,0.62,0.22,1.03,0.09
			c1.65-0.75,3.29-1.12,4.94-1.12c1.51,0,3.02,0.25,4.53,0.75c3.29,1.12,5.62,3.11,7,5.96
			C2924.19,967.9,2926.73,973.49,2928.65,978.21z M2997.38,1046.77c-1.37,0-2.06,0.62-2.06,1.86v24.03c0,1.24,0.69,1.86,2.06,1.86
			h43.21c2.47,0,4.56,0.78,6.28,2.33c1.71,1.55,2.57,3.45,2.57,5.68c0,2.24-0.86,4.13-2.57,5.68c-1.72,1.55-3.81,2.33-6.28,2.33
			h-112.34c-2.47,0-4.56-0.78-6.28-2.33c-1.72-1.55-2.57-3.45-2.57-5.68c0-2.24,0.86-4.13,2.57-5.68c1.71-1.55,3.81-2.33,6.28-2.33
			h45.47c1.37,0,2.06-0.62,2.06-1.86v-24.03c0-1.24-0.69-1.86-2.06-1.86h-35.8c-2.47,0-4.56-0.78-6.28-2.33
			c-1.72-1.55-2.57-3.42-2.57-5.59c0-2.17,0.86-4.04,2.57-5.59c1.71-1.55,3.81-2.33,6.28-2.33h35.8c1.37,0,2.06-0.62,2.06-1.86
			v-8.57c0-2.48,0.96-4.6,2.88-6.33c1.92-1.74,4.22-2.61,6.89-2.61s4.97,0.87,6.89,2.61c1.92,1.74,2.88,3.85,2.88,6.33v8.57
			c0,1.24,0.69,1.86,2.06,1.86h34.77c2.33,0,4.35,0.78,6.07,2.33c1.71,1.55,2.57,3.42,2.57,5.59c0,2.17-0.86,4.04-2.57,5.59
			c-1.72,1.55-3.74,2.33-6.07,2.33H2997.38z M3022.07,929.77c0.69-0.25,1.44-0.37,2.26-0.37c1.37,0,2.67,0.25,3.91,0.75l3.09,1.3
			c1.78,0.62,3.05,1.74,3.81,3.35c0.75,1.61,0.79,3.17,0.1,4.66c-7.27,16.27-18.11,30.37-32.51,42.29
			c-0.41,0.25-0.59,0.62-0.51,1.12c0.07,0.5,0.31,0.87,0.72,1.12c12.21,6.09,25.1,10.74,38.68,13.97c2.19,0.5,3.7,1.74,4.53,3.73
			c0.14,0.62,0.21,1.24,0.21,1.86c0,1.24-0.41,2.42-1.23,3.54c-1.92,2.36-4.32,4.1-7.2,5.22c-1.65,0.62-3.29,0.99-4.94,1.12
			c-1.23,0-2.4-0.25-3.5-0.75c-15.77-4.35-29.91-10.31-42.39-17.89c-1.1-0.75-2.26-0.81-3.5-0.19
			c-13.58,7.82-29.83,14.28-48.76,19.38c-0.96,0.25-1.92,0.37-2.88,0.37c-1.65,0-3.22-0.31-4.73-0.93
			c-2.47-0.99-4.46-2.67-5.97-5.03c-0.69-0.99-1.03-2.05-1.03-3.17c0-0.75,0.21-1.55,0.62-2.42c0.82-1.86,2.33-3.04,4.53-3.54
			c15.77-3.6,30.18-8.82,43.21-15.65c1.23-0.62,1.37-1.37,0.41-2.24c-9.74-8.57-18.11-18.75-25.1-30.55
			c-0.69-0.99-0.79-2.02-0.31-3.07c0.48-1.06,1.34-1.77,2.57-2.14v-0.19h-7.61c-2.33,0-4.36-0.78-6.07-2.33
			c-1.72-1.55-2.57-3.38-2.57-5.5s0.86-3.94,2.57-5.5c1.71-1.55,3.74-2.33,6.07-2.33h82.71
			C3021.52,929.77,3021.79,929.77,3022.07,929.77z M3010.34,947.09c0.27-0.37,0.27-0.75,0-1.12c-0.28-0.37-0.62-0.56-1.03-0.56
			h-46.91c-0.41,0-0.75,0.19-1.03,0.56c-0.28,0.37-0.28,0.75,0,1.12c5.76,9.19,13.3,17.45,22.63,24.78c1.1,0.87,2.13,0.87,3.09,0
			C2996.96,964.42,3004.71,956.16,3010.34,947.09z"/>
		<path d="M3135.85,1006.9c2.19-0.62,4.29-0.34,6.28,0.84c1.99,1.18,3.12,2.76,3.4,4.75c0.14,0.5,0.21,0.99,0.21,1.49
			c0,1.74-0.55,3.35-1.65,4.84c-1.37,1.99-3.22,3.35-5.56,4.1c-3.57,0.99-8.37,2.3-14.4,3.91c-1.37,0.37-2.06,1.12-2.06,2.24v58.5
			c0,2.24-0.86,4.16-2.57,5.78c-1.72,1.61-3.84,2.42-6.38,2.42c-2.54,0-4.7-0.81-6.48-2.42c-1.78-1.61-2.67-3.54-2.67-5.78v-53.1
			c0-0.5-0.21-0.87-0.62-1.12c-0.41-0.25-0.82-0.31-1.23-0.19l-21.81,5.96c-0.96,0.25-1.92,0.37-2.88,0.37
			c-1.51,0-3.02-0.31-4.53-0.93c-2.33-1.24-3.84-2.98-4.53-5.22c-0.28-0.87-0.41-1.68-0.41-2.42c0-1.49,0.48-2.92,1.44-4.29
			c1.37-2.11,3.36-3.48,5.97-4.1c8.37-1.99,17.28-4.22,26.75-6.71c1.23-0.25,1.85-0.99,1.85-2.24v-36.33c0-1.24-0.69-1.86-2.06-1.86
			h-12.76c-1.37,0-2.19,0.62-2.47,1.86c-1.65,6.33-3.43,12.17-5.35,17.51c-0.69,1.74-2.03,2.92-4.01,3.54
			c-1.99,0.62-3.94,0.37-5.86-0.75c-2.06-1.12-3.43-2.67-4.12-4.66c-0.55-1.12-0.82-2.17-0.82-3.17s0.21-1.99,0.62-2.98
			c4.12-11.55,7.27-27.39,9.46-47.51c0.27-1.99,1.3-3.63,3.09-4.94c1.78-1.3,3.84-1.77,6.17-1.4c2.33,0.37,4.15,1.34,5.45,2.89
			c1.3,1.55,1.95,3.2,1.95,4.94c0,0.25-0.07,0.62-0.21,1.12c-0.69,5.96-1.44,10.93-2.26,14.9c0,0.5,0.17,0.93,0.51,1.3
			c0.34,0.37,0.79,0.56,1.34,0.56h9.26c1.37,0,2.06-0.62,2.06-1.86v-27.76c0-2.24,0.89-4.16,2.67-5.78
			c1.78-1.61,3.94-2.42,6.48-2.42c2.54,0,4.66,0.81,6.38,2.42c1.71,1.61,2.57,3.54,2.57,5.78v27.76c0,1.24,0.69,1.86,2.06,1.86h8.23
			c2.6,0,4.84,0.81,6.69,2.42c1.85,1.61,2.78,3.57,2.78,5.87s-0.93,4.29-2.78,5.96s-4.08,2.52-6.69,2.52h-8.23
			c-1.37,0-2.06,0.62-2.06,1.86v31.3c0,0.5,0.21,0.87,0.62,1.12c0.41,0.25,0.89,0.31,1.44,0.19L3135.85,1006.9z M3178.65,949.52
			c-0.14,0.5-0.07,0.96,0.21,1.4c0.27,0.43,0.69,0.65,1.23,0.65h60.49c4.94,0,9.12,1.55,12.55,4.66c3.16,2.98,4.73,6.52,4.73,10.62
			c0,24.34-2.33,53.04-7,86.07c-2.33,16.89-5.49,27.64-9.46,32.23c-2.19,2.73-4.42,4.66-6.69,5.78c-2.26,1.12-5.18,1.99-8.74,2.61
			c-2.75,0.37-6.58,0.56-11.52,0.56c-0.69,0-1.44,0-2.26,0c-2.75,0-5.18-0.87-7.3-2.61c-2.13-1.74-3.6-3.91-4.42-6.52
			c-0.55-1.86-0.21-3.7,1.03-5.5c1.23-1.8,3.02-2.58,5.35-2.33c3.02,0.12,6.51,0.19,10.49,0.19c3.29,0,5.83-1.18,7.61-3.54
			c3.16-3.23,5.86-12.76,8.13-28.6s4.29-40.96,6.07-75.36c0-0.5-0.17-0.93-0.51-1.3c-0.34-0.37-0.79-0.56-1.34-0.56h-1.85
			c-1.37,0-2.19,0.62-2.47,1.86c-5.35,23.97-13.1,46.27-23.25,66.88c-10.15,20.62-22.22,37.07-36.21,49.37
			c-2.06,1.86-4.56,2.79-7.51,2.79c-2.95,0-5.59-0.81-7.92-2.42c-2.06-1.37-3.09-3.23-3.09-5.59c0-1.86,0.89-3.48,2.67-4.84
			c13.85-11.05,25.72-25.96,35.6-44.71c9.88-18.75,17.42-39.31,22.63-61.67c0.14-0.37,0.03-0.75-0.31-1.12
			c-0.34-0.37-0.79-0.56-1.34-0.56h-10.08c-1.37,0-2.19,0.56-2.47,1.68c-4.39,14.9-10.32,29.25-17.8,43.04
			c-7.48,13.79-15.88,25.15-25.21,34.09c-1.65,1.74-3.77,2.61-6.38,2.61h-0.21c-2.61,0-4.94-0.68-7-2.05
			c-1.92-1.24-2.95-2.89-3.09-4.94c-0.14-2.05,0.62-3.76,2.26-5.12c8.5-7.7,16.29-17.54,23.35-29.53
			c7.06-11.99,12.86-24.69,17.39-38.1c0.14-0.37,0.07-0.75-0.21-1.12c-0.28-0.37-0.62-0.56-1.03-0.56h-10.91
			c-1.37,0-2.33,0.56-2.88,1.68c-5.08,10.31-10.49,19.19-16.25,26.64c-1.51,1.86-3.57,2.92-6.17,3.17
			c-0.41,0.12-0.82,0.19-1.23,0.19c-2.06,0-3.98-0.62-5.76-1.86c-1.92-1.37-3.09-3.17-3.5-5.4c0-0.37,0-0.75,0-1.12
			c0-1.86,0.62-3.48,1.85-4.84c11.8-14.28,21.06-33.54,27.78-57.75c0.69-2.11,2.06-3.79,4.12-5.03c1.65-0.99,3.36-1.49,5.14-1.49
			c0.55,0,1.16,0.06,1.85,0.19c2.33,0.37,4.18,1.49,5.56,3.35c0.96,1.37,1.44,2.73,1.44,4.1c0,0.62-0.14,1.3-0.41,2.05
			C3182.9,936.79,3180.98,942.69,3178.65,949.52z"/>
	</g>
	<g>
		<path d="M2406.03,1318.71c2.6,0,4.84,0.84,6.69,2.52s2.78,3.73,2.78,6.15c0,2.42-0.93,4.47-2.78,6.15
			c-1.85,1.68-4.08,2.52-6.69,2.52h-62.55c-1.37,0-2.06,0.62-2.06,1.86v31.11c0,2.48-0.96,4.63-2.88,6.43
			c-1.92,1.8-4.29,2.7-7.1,2.7c-2.81,0-5.21-0.9-7.2-2.7c-1.99-1.8-2.98-3.94-2.98-6.43v-31.11c0-1.24-0.69-1.86-2.06-1.86h-84.36
			c-2.61,0-4.84-0.84-6.69-2.52c-1.85-1.68-2.78-3.73-2.78-6.15c0-2.42,0.93-4.47,2.78-6.15s4.08-2.52,6.69-2.52h22.43
			c1.37,0,2.06-0.62,2.06-1.86v-32.23c0-4.47,1.75-8.29,5.25-11.46c3.5-3.17,7.72-4.75,12.65-4.75h41.97c1.37,0,2.06-0.62,2.06-1.86
			V1244c0-1.24-0.69-1.86-2.06-1.86h-44.03c-1.37,0-2.33,0.5-2.88,1.49c-6.86,10.43-14.27,19.69-22.22,27.76
			c-2.06,1.99-4.6,3.04-7.61,3.17c-0.28,0-0.55,0-0.82,0c-2.61,0-5.01-0.75-7.2-2.24c-2.47-1.61-3.7-3.79-3.7-6.52
			c0-2.11,0.89-3.97,2.67-5.59c14.13-13.17,25.65-29.62,34.57-49.37c1.1-2.36,2.95-4.16,5.56-5.4c1.65-0.75,3.29-1.12,4.94-1.12
			c0.96,0,1.99,0.12,3.09,0.37c2.6,0.62,4.53,1.99,5.76,4.1c0.69,1.24,1.03,2.48,1.03,3.73c0,0.99-0.28,2.05-0.82,3.17
			c-1.1,2.24-2.26,4.72-3.5,7.45c-0.28,0.5-0.28,0.93,0,1.3c0.27,0.37,0.69,0.56,1.23,0.56h110.49c2.6,0,4.84,0.84,6.69,2.52
			c1.85,1.68,2.78,3.7,2.78,6.05s-0.93,4.38-2.78,6.05c-1.85,1.68-4.08,2.52-6.69,2.52h-52.26c-1.37,0-2.06,0.62-2.06,1.86v22.54
			c0,1.24,0.69,1.86,2.06,1.86h47.74c2.47,0,4.6,0.81,6.38,2.42c1.78,1.61,2.67,3.57,2.67,5.87c0,2.3-0.89,4.25-2.67,5.87
			c-1.78,1.61-3.91,2.42-6.38,2.42h-47.74c-1.37,0-2.06,0.62-2.06,1.86v30c0,1.24,0.69,1.86,2.06,1.86H2406.03z M2278.87,1316.85
			c-0.14,1.24,0.48,1.86,1.85,1.86h38.48c1.37,0,2.06-0.62,2.06-1.86v-30c0-1.24-0.69-1.86-2.06-1.86h-38.48
			c-1.37,0-1.99,0.62-1.85,1.86V1316.85z"/>
		<path d="M2565.08,1210.47c0.96-2.24,2.54-4.04,4.73-5.4c2.19-1.37,4.6-2.05,7.2-2.05c2.74,0,5.25,0.65,7.51,1.96
			c2.26,1.3,3.94,3.07,5.04,5.31c9.74,17.89,20.85,32.6,33.33,44.15c2.06,1.86,3.22,4.04,3.5,6.52c0.14,0.5,0.21,0.99,0.21,1.49
			c0,2.11-0.62,4.04-1.85,5.78c-1.37,1.99-3.29,3.17-5.76,3.54c-0.41,0-0.82,0-1.23,0c-1.92,0-3.64-0.68-5.14-2.05
			c-13.31-13.04-24.69-28.75-34.16-47.14c-0.14-0.25-0.38-0.37-0.72-0.37c-0.34,0-0.59,0.12-0.72,0.37
			c-6.45,13.79-14.61,26.58-24.49,38.38c-0.14,0.37-0.14,0.71,0,1.02c0.14,0.31,0.41,0.47,0.82,0.47h44.44
			c2.19,0,4.04,0.71,5.56,2.14c1.51,1.43,2.26,3.14,2.26,5.12c0,1.99-0.75,3.7-2.26,5.12c-1.51,1.43-3.36,2.14-5.56,2.14h-35.18
			c-3.57,0-6.58-1.12-9.05-3.35c-2.47-2.24-3.7-4.91-3.7-8.01c0-0.25-0.1-0.4-0.31-0.47c-0.21-0.06-0.38-0.03-0.51,0.09
			c-2.06,2.24-4.11,4.41-6.17,6.52c-1.65,1.61-3.64,2.2-5.97,1.77c-2.33-0.43-4.19-1.58-5.56-3.45c-0.41-0.75-0.89-1.49-1.44-2.24
			c-1.1-1.37-1.54-2.86-1.34-4.47c0.21-1.61,0.93-3.04,2.16-4.29c0-0.12-0.03-0.25-0.1-0.37c-0.07-0.12-0.17-0.19-0.31-0.19h-88.27
			c-2.06,0-3.84-0.68-5.35-2.05c-1.51-1.37-2.26-3.01-2.26-4.94s0.72-3.57,2.16-4.94c1.44-1.37,3.26-2.05,5.45-2.05h4.73
			c0.96,0,1.44-0.43,1.44-1.3v-22.54c0-1.99,0.75-3.66,2.26-5.03c1.51-1.37,3.32-2.05,5.45-2.05c2.13,0,3.94,0.68,5.45,2.05
			c1.51,1.37,2.26,3.04,2.26,5.03v21.98c0,1.24,0.69,1.86,2.06,1.86h10.08c1.37,0,2.06-0.62,2.06-1.86v-32.04
			c0-1.99,0.86-3.73,2.57-5.22c1.71-1.49,3.67-2.24,5.86-2.24c2.19,0,4.12,0.75,5.76,2.24c1.65,1.49,2.47,3.23,2.47,5.22v6.52
			c0,1.12,0.55,1.68,1.65,1.68h23.87c2.06,0,3.81,0.65,5.25,1.96c1.44,1.3,2.16,2.89,2.16,4.75s-0.72,3.45-2.16,4.75
			c-1.44,1.3-3.19,1.96-5.25,1.96h-23.46c-1.37,0-2.06,0.62-2.06,1.86v8.57c0,1.24,0.69,1.86,2.06,1.86h25.51
			c3.15,0,5.86,1.02,8.13,3.07c2.26,2.05,3.4,4.5,3.4,7.36c0,0.12,0.14,0.25,0.41,0.37c0.27,0.12,0.48,0.12,0.62,0
			C2547.11,1242.82,2557.26,1227.86,2565.08,1210.47z M2510.96,1289.65c0.14,0.25,0.38,0.31,0.72,0.19
			c0.34-0.12,0.51-0.31,0.51-0.56v-18.63c0-1.86,0.72-3.42,2.16-4.66c1.44-1.24,3.16-1.86,5.14-1.86c1.99,0,3.67,0.62,5.04,1.86
			c1.37,1.24,2.06,2.79,2.06,4.66v96.88c0,1.86-0.69,3.42-2.06,4.66c-1.37,1.24-3.05,1.86-5.04,1.86c-1.99,0-3.7-0.62-5.14-1.86
			c-1.44-1.24-2.16-2.79-2.16-4.66c0-0.62-0.28-0.93-0.82-0.93h-54.73c-0.82,0-1.23,0.37-1.23,1.12v2.24c0,1.86-0.69,3.42-2.06,4.66
			c-1.37,1.24-3.02,1.86-4.94,1.86c-1.92,0-3.57-0.62-4.94-1.86c-1.37-1.24-2.06-2.79-2.06-4.66v-99.49c0-1.74,0.69-3.23,2.06-4.47
			c1.37-1.24,3.02-1.86,4.94-1.86c1.92,0,3.57,0.62,4.94,1.86c1.37,1.24,2.06,2.73,2.06,4.47v19.19c0,0.37,0.21,0.62,0.62,0.75
			c0.41,0.12,0.69,0.06,0.82-0.19c4.66-5.09,7.82-12.3,9.46-21.61c0.14-1.37,0.79-2.45,1.95-3.26c1.16-0.81,2.47-1.15,3.91-1.02
			c1.44,0.12,2.6,0.71,3.5,1.77c0.89,1.06,1.2,2.2,0.93,3.45c-0.41,2.73-0.96,5.09-1.65,7.08c-0.14,0.87,0.14,1.68,0.82,2.42
			c2.6,2.73,4.73,4.91,6.38,6.52c0.27,0.37,0.65,0.56,1.13,0.56c0.48,0,0.86-0.19,1.13-0.56c3.16-4.47,5.48-10.06,7-16.77
			c0.27-1.37,1.03-2.45,2.26-3.26c1.23-0.81,2.57-1.12,4.01-0.93c1.44,0.19,2.57,0.81,3.4,1.86c0.82,1.06,1.1,2.2,0.82,3.45
			c-0.55,2.24-1.17,4.47-1.85,6.71c-0.28,0.87-0.07,1.68,0.62,2.42C2505.34,1283.38,2508.77,1286.92,2510.96,1289.65z
			 M2480.1,1293.19c-0.28-0.12-0.48-0.12-0.62,0c-0.69,0.62-1.44,0.87-2.26,0.75c-0.82-0.12-1.51-0.5-2.06-1.12
			c-1.23-1.61-2.47-3.04-3.7-4.29c-0.41-0.5-0.75-0.5-1.03,0c-0.82,1.74-1.78,3.42-2.88,5.03c-1.23,1.61-3.02,2.45-5.35,2.52
			c-2.33,0.06-4.32-0.59-5.97-1.96c-0.14-0.12-0.31-0.16-0.51-0.09c-0.21,0.06-0.31,0.22-0.31,0.47v4.47c0,1.24,0.69,1.86,2.06,1.86
			h52.67c1.37,0,2.06-0.62,2.06-1.86V1293c0-0.12-0.1-0.22-0.31-0.28s-0.38-0.03-0.51,0.09c-1.51,1.49-3.43,2.14-5.76,1.96
			c-2.33-0.19-4.19-1.15-5.56-2.89c-0.96-1.24-2.06-2.48-3.29-3.73c-0.69-0.75-1.31-0.68-1.85,0.19c-1.1,1.74-2.26,3.42-3.5,5.03
			c-1.37,1.49-3.12,2.24-5.25,2.24c-2.13,0-4.01-0.68-5.66-2.05C2480.23,1293.44,2480.1,1293.31,2480.1,1293.19z M2491.83,1320.39
			c0.27-1.24,0.96-2.27,2.06-3.07c1.1-0.81,2.37-1.15,3.81-1.02c1.44,0.12,2.6,0.71,3.5,1.77c0.89,1.06,1.2,2.2,0.93,3.45
			c-0.55,2.48-1.17,4.91-1.85,7.27c-0.41,0.87-0.21,1.61,0.62,2.24c3.98,3.85,7.34,7.33,10.08,10.43c0.14,0.25,0.38,0.34,0.72,0.28
			c0.34-0.06,0.51-0.28,0.51-0.65v-25.52c0-1.24-0.69-1.86-2.06-1.86h-52.67c-1.37,0-2.06,0.62-2.06,1.86V1342
			c0,0.25,0.21,0.43,0.62,0.56c0.41,0.12,0.69,0.06,0.82-0.19c4.53-5.09,7.61-12.42,9.26-21.98c0.27-1.24,0.99-2.27,2.16-3.07
			c1.16-0.81,2.47-1.15,3.91-1.02c1.44,0.12,2.6,0.68,3.5,1.68c0.89,0.99,1.2,2.17,0.93,3.54c-0.41,2.73-0.96,5.15-1.65,7.27
			c-0.14,0.87,0.14,1.61,0.82,2.24c2.47,2.48,4.73,4.91,6.79,7.27c0.27,0.37,0.65,0.56,1.13,0.56c0.48,0,0.86-0.19,1.13-0.56
			C2488.26,1333.31,2490.59,1327.34,2491.83,1320.39z M2455.41,1351.88c0,1.24,0.69,1.86,2.06,1.86h52.67
			c1.37,0,2.06-0.62,2.06-1.86v-5.78c0-0.12-0.07-0.22-0.21-0.28c-0.14-0.06-0.28-0.03-0.41,0.09c-1.51,1.37-3.33,1.99-5.45,1.86
			c-2.13-0.12-3.81-0.99-5.04-2.61c-1.51-1.74-2.95-3.35-4.32-4.84c-0.69-0.75-1.31-0.68-1.85,0.19c-1.1,1.99-2.33,3.79-3.7,5.4
			c-1.1,1.49-2.75,2.27-4.94,2.33c-2.19,0.06-4.05-0.59-5.56-1.96c-0.14-0.12-0.21-0.25-0.21-0.37c-0.28-0.12-0.48-0.12-0.62,0
			c-0.55,0.5-1.23,0.71-2.06,0.65c-0.82-0.06-1.51-0.4-2.06-1.02c-1.23-1.61-2.61-3.29-4.12-5.03c-0.55-0.5-0.96-0.43-1.23,0.19
			c-0.96,1.74-1.99,3.35-3.09,4.84c-1.23,1.74-2.98,2.64-5.25,2.7c-2.26,0.06-4.22-0.59-5.86-1.96c-0.14-0.12-0.31-0.16-0.51-0.09
			c-0.21,0.06-0.31,0.16-0.31,0.28V1351.88z M2600.26,1291.7c4.94,0,9.16,1.58,12.65,4.75c3.5,3.17,5.25,6.99,5.25,11.46v34.65
			c0,3.97-0.51,7.08-1.54,9.32c-1.03,2.24-2.91,3.97-5.66,5.22c-1.92,0.99-4.25,1.68-7,2.05c-2.75,0.37-6.17,0.56-10.29,0.56h-0.21
			c-2.47,0-4.6-0.68-6.38-2.05c-2.06-1.49-3.43-3.35-4.12-5.59c-0.69-1.86-0.45-3.57,0.72-5.12c1.16-1.55,2.78-2.33,4.84-2.33
			c3.02,0.12,6.04,0.19,9.05,0.19c1.1-0.12,1.85-0.34,2.26-0.65c0.41-0.31,0.62-0.96,0.62-1.96v-32.98c0-1.24-0.69-1.86-2.06-1.86
			h-20.58c-1.37,0-2.06,0.62-2.06,1.86v60.74c0,2.24-0.82,4.13-2.47,5.68c-1.65,1.55-3.7,2.33-6.17,2.33
			c-2.47,0-4.56-0.78-6.28-2.33c-1.72-1.55-2.57-3.45-2.57-5.68v-60.74c0-1.24-0.69-1.86-2.06-1.86h-13.99
			c-2.33,0-4.36-0.78-6.07-2.33c-1.72-1.55-2.57-3.38-2.57-5.5s0.85-3.94,2.57-5.5c1.71-1.55,3.74-2.33,6.07-2.33H2600.26z"/>
		<path d="M2754.38,1257.05c-3.43,2.98-7.61,4.47-12.55,4.47s-9.12-1.49-12.55-4.47c-3.43-2.98-5.14-6.77-5.14-11.36
			c0-4.6,1.71-8.41,5.14-11.46c3.43-3.04,7.61-4.56,12.55-4.56s9.12,1.52,12.55,4.56c3.43,3.04,5.14,6.86,5.14,11.46
			C2759.52,1250.28,2757.8,1254.06,2754.38,1257.05z M2754.38,1349.45c-3.43,2.98-7.61,4.47-12.55,4.47s-9.12-1.49-12.55-4.47
			c-3.43-2.98-5.14-6.71-5.14-11.18c0-4.72,1.71-8.57,5.14-11.55c3.43-2.98,7.61-4.47,12.55-4.47s9.12,1.49,12.55,4.47
			c3.43,2.98,5.14,6.83,5.14,11.55C2759.52,1342.75,2757.8,1346.47,2754.38,1349.45z"/>
		<path d="M2863.43,1363.05c-1.92,0-3.57-0.62-4.94-1.86c-1.37-1.24-2.06-2.73-2.06-4.47c0-4.22,1.78-7.76,5.35-10.62
			c21.67-17.76,37.76-33.32,48.25-46.67s15.74-25.43,15.74-36.24c0-7.82-2.3-14.07-6.89-18.72c-4.6-4.66-11.08-6.99-19.44-6.99
			c-8.1,0-16.05,3.17-23.87,9.5c-1.92,1.61-4.19,2.42-6.79,2.42h-0.21c-2.47,0-4.66-0.81-6.58-2.42c-1.92-1.74-2.88-3.79-2.88-6.15
			s0.96-4.35,2.88-5.96c11.93-9.94,25.38-14.9,40.33-14.9c14.27,0,25.65,3.85,34.16,11.55c8.5,7.7,12.76,17.89,12.76,30.55
			c0,12.54-4.84,25.59-14.51,39.12s-23.28,27.95-40.84,43.22c-0.14,0.25-0.14,0.5,0,0.75c0.14,0.25,0.34,0.37,0.62,0.37
			c8.64-0.75,16.39-1.12,23.25-1.12h28.39c3.02,0,5.48,0.9,7.41,2.7c1.92,1.8,2.88,4.01,2.88,6.61s-1,4.81-2.98,6.61
			c-1.99,1.8-4.42,2.7-7.3,2.7H2863.43z"/>
		<path d="M3071.24,1308.28c2.6,0,4.84,0.84,6.69,2.52s2.78,3.7,2.78,6.05s-0.93,4.35-2.78,5.96s-4.08,2.42-6.69,2.42h-8.23
			c-1.37,0-2.06,0.62-2.06,1.86v25.71c0,2.86-1.13,5.28-3.4,7.27c-2.26,1.99-4.94,2.98-8.02,2.98s-5.76-0.99-8.02-2.98
			c-2.26-1.99-3.39-4.41-3.39-7.27v-25.71c0-1.24-0.69-1.86-2.06-1.86h-56.79c-2.19,0-4.12-0.71-5.76-2.14s-2.47-3.14-2.47-5.12
			c0-4.97,1.51-9.5,4.53-13.6l49.79-70.98c2.33-3.35,5.42-5.99,9.26-7.92c3.84-1.93,7.95-2.89,12.35-2.89
			c3.84,0,7.13,1.24,9.88,3.73c2.74,2.48,4.12,5.46,4.12,8.94v71.17c0,1.24,0.69,1.86,2.06,1.86H3071.24z M2996.76,1306.79
			c-0.28,0.25-0.31,0.56-0.1,0.93c0.21,0.37,0.58,0.56,1.13,0.56h38.27c1.37,0,2.06-0.62,2.06-1.86v-35.03
			c0-2.98,0.41-11.86,1.23-26.64c0-0.25-0.14-0.37-0.41-0.37c-0.28,0-0.48,0.12-0.62,0.37c-3.43,6.46-7.48,13.54-12.14,21.24
			L2996.76,1306.79z"/>
	</g>
	<g>
		<path d="M2238.13,1572.27c-0.55,1.86-1.78,3.23-3.7,4.1c-1.92,0.87-3.88,0.99-5.86,0.37c-1.99-0.62-3.47-1.8-4.42-3.54
			c-0.69-1.12-1.03-2.24-1.03-3.35c0-0.75,0.14-1.43,0.41-2.05c3.29-10.56,5.76-22.61,7.41-36.14c0.27-1.74,1.16-3.17,2.68-4.29
			c1.51-1.12,3.22-1.49,5.14-1.12c2.06,0.25,3.7,1.09,4.94,2.52s1.78,3.01,1.65,4.75
			C2243.82,1547.68,2241.42,1560.6,2238.13,1572.27z M2364.26,1639.16c0,1.24,0.69,1.86,2.06,1.86h39.71c2.47,0,4.63,0.81,6.48,2.42
			s2.78,3.6,2.78,5.96s-0.93,4.35-2.78,5.96c-1.85,1.61-4.01,2.42-6.48,2.42h-110.7c-2.61,0-4.8-0.81-6.58-2.42
			c-1.78-1.61-2.67-3.6-2.67-5.96s0.89-4.35,2.67-5.96c1.78-1.61,3.98-2.42,6.58-2.42h47.32c1.37,0,2.06-0.62,2.06-1.86v-39.5
			c0-1.24-0.69-1.86-2.06-1.86h-31.69c-2.47,0-4.6-0.84-6.38-2.52c-1.78-1.68-2.67-3.63-2.67-5.87s0.93-4.19,2.78-5.87
			s3.94-2.52,6.28-2.52h31.69c1.37,0,2.06-0.62,2.06-1.86v-32.04c0-1.24-0.69-1.86-2.06-1.86h-23.25c-1.37,0-2.33,0.56-2.88,1.68
			c-2.47,6.71-5.21,12.92-8.23,18.63c-1.1,2.11-2.95,3.54-5.56,4.29c-0.96,0.12-1.92,0.19-2.88,0.19c-1.51,0-3.02-0.31-4.53-0.93
			c-2.33-1.12-3.91-2.79-4.73-5.03c-0.28-0.87-0.41-1.74-0.41-2.61c0-1.37,0.34-2.67,1.03-3.91c0.82-1.49,1.58-2.92,2.26-4.29
			c0.14-0.25,0.14-0.43,0-0.56c-0.14-0.12-0.34-0.12-0.62,0c-1.37,0.5-2.81,0.75-4.32,0.75c-1.23,0-2.54-0.25-3.91-0.75
			c-2.75-1.12-4.66-2.98-5.76-5.59c-2.19-5.59-5.01-11.61-8.44-18.07c0-0.25-0.14-0.34-0.41-0.28c-0.28,0.06-0.41,0.22-0.41,0.47
			v125.94c0,2.48-0.96,4.6-2.88,6.33c-1.92,1.74-4.22,2.61-6.89,2.61s-4.97-0.87-6.89-2.61c-1.92-1.74-2.88-3.85-2.88-6.33v-157.24
			c0-2.36,0.96-4.41,2.88-6.15c1.92-1.74,4.22-2.61,6.89-2.61s4.97,0.87,6.89,2.61c1.92,1.74,2.88,3.79,2.88,6.15v25.34
			c0,0.25,0.14,0.47,0.41,0.65c0.27,0.19,0.55,0.22,0.82,0.09c1.65-0.62,3.36-0.93,5.14-0.93c1.51,0,3.02,0.25,4.53,0.75
			c3.15,1.12,5.48,3.04,7,5.78c3.43,6.71,5.97,12.42,7.61,17.14c0.14,0.25,0.38,0.37,0.72,0.37c0.34,0,0.58-0.12,0.72-0.37
			c4.94-11.68,8.85-25.09,11.73-40.24c0.41-2.48,1.71-4.41,3.91-5.78c1.65-1.12,3.43-1.68,5.35-1.68c0.55,0,1.1,0.06,1.65,0.19
			c2.74,0.37,4.87,1.55,6.38,3.54c1.23,1.49,1.85,3.11,1.85,4.84c0,0.5-0.07,1.06-0.21,1.68c-1.1,5.22-2.47,10.99-4.12,17.33
			c-0.14,0.5-0.07,0.93,0.21,1.3c0.27,0.37,0.69,0.56,1.23,0.56h18.11c1.37,0,2.06-0.62,2.06-1.86v-27.76c0-2.48,0.96-4.6,2.88-6.33
			c1.92-1.74,4.22-2.61,6.89-2.61c2.67,0,4.97,0.87,6.89,2.61c1.92,1.74,2.88,3.85,2.88,6.33v27.76c0,1.24,0.69,1.86,2.06,1.86
			h34.16c2.6,0,4.8,0.81,6.58,2.42c1.78,1.61,2.67,3.6,2.67,5.96s-0.89,4.35-2.67,5.96c-1.78,1.61-3.98,2.42-6.58,2.42h-34.16
			c-1.37,0-2.06,0.62-2.06,1.86v32.04c0,1.24,0.69,1.86,2.06,1.86h29.63c2.6,0,4.8,0.84,6.58,2.52c1.78,1.68,2.67,3.63,2.67,5.87
			s-0.89,4.19-2.67,5.87c-1.78,1.68-3.98,2.52-6.58,2.52h-29.63c-1.37,0-2.06,0.62-2.06,1.86V1639.16z"/>
		<path d="M2485.45,1577.68c0,0.5,0.17,0.93,0.51,1.3c0.34,0.37,0.79,0.56,1.34,0.56h26.13c4.94,0,9.12,1.61,12.55,4.84
			c3.15,2.98,4.73,6.52,4.73,10.62c0,13.66-1.23,28.57-3.7,44.71c-1.37,8.82-3.36,14.59-5.97,17.33c-1.78,2.11-3.77,3.57-5.97,4.38
			c-2.19,0.81-5.01,1.4-8.44,1.77c-3.02,0.37-7.41,0.56-13.17,0.56c-0.96,0-1.99,0-3.09,0c-2.61,0-4.87-0.81-6.79-2.42
			c-1.92-1.61-3.29-3.6-4.12-5.96c-0.55-1.74-0.28-3.32,0.82-4.75c1.1-1.43,2.6-2.14,4.53-2.14c3.98,0.25,8.44,0.37,13.37,0.37
			c3.57,0,5.9-0.68,7-2.05c3.29-3.23,5.69-19.75,7.2-49.56c0.14-0.5,0-0.93-0.41-1.3c-0.41-0.37-0.89-0.56-1.44-0.56h-25.31
			c-1.37,0-2.13,0.62-2.26,1.86c-5.08,26.95-14.89,47.38-29.42,61.29c-1.65,1.37-3.64,2.05-5.97,2.05c-0.28,0-0.48,0-0.62,0
			c-2.47-0.25-4.66-1.24-6.58-2.98c-1.78-1.61-2.67-3.6-2.67-5.96c0-2.11,0.75-3.97,2.26-5.59c5.21-4.97,9.6-10.68,13.17-17.14
			c3.57-6.46,6.28-13.57,8.13-21.33s3.22-14.94,4.12-21.52c0.89-6.58,1.61-14.22,2.16-22.92c0-0.5-0.17-0.93-0.51-1.3
			c-0.34-0.37-0.79-0.56-1.34-0.56h-2.06c-4.94,0-9.16-1.58-12.65-4.75c-3.5-3.17-5.25-6.99-5.25-11.46v-30.93
			c0-4.47,1.75-8.29,5.25-11.46c3.5-3.17,7.72-4.75,12.65-4.75h48.35c4.94,0,9.16,1.58,12.65,4.75c3.5,3.17,5.25,6.99,5.25,11.46
			v30.93c0,4.47-1.75,8.29-5.25,11.46c-3.5,3.17-7.72,4.75-12.65,4.75h-23.04c-1.37,0-2.13,0.62-2.26,1.86
			C2486.27,1569.36,2485.86,1574.2,2485.45,1577.68z M2465.7,1513.59c-1.37,0-2.06,0.62-2.06,1.86v28.32c0,1.24,0.69,1.86,2.06,1.86
			h43.21c1.37,0,2.06-0.62,2.06-1.86v-28.32c0-1.24-0.69-1.86-2.06-1.86H2465.7z M2551.39,1514.61c1.85-1.68,4.08-2.52,6.69-2.52
			c2.6,0,4.84,0.84,6.69,2.52c1.85,1.68,2.78,3.7,2.78,6.05v88.12c0,2.36-0.93,4.38-2.78,6.05c-1.85,1.68-4.08,2.52-6.69,2.52
			c-2.61,0-4.84-0.84-6.69-2.52c-1.85-1.68-2.78-3.69-2.78-6.05v-88.12C2548.62,1518.31,2549.54,1516.29,2551.39,1514.61z
			 M2599.03,1501.85c0-2.48,0.96-4.6,2.88-6.33c1.92-1.74,4.22-2.61,6.89-2.61c2.68,0,4.97,0.87,6.89,2.61
			c1.92,1.74,2.88,3.85,2.88,6.33v139.92c0,5.46-0.79,9.66-2.37,12.58c-1.58,2.92-4.22,5.25-7.92,6.99
			c-5.63,1.86-15.3,2.86-29.01,2.98h-0.21c-3.02,0-5.76-0.9-8.23-2.7c-2.47-1.8-4.19-4.01-5.14-6.61c-0.28-0.75-0.41-1.49-0.41-2.24
			c0-1.24,0.41-2.42,1.23-3.54c1.37-1.86,3.22-2.79,5.56-2.79h0.21c2.74,0.12,9.81,0.19,21.19,0.19c2.06-0.12,3.5-0.53,4.32-1.21
			c0.82-0.68,1.23-1.89,1.23-3.63V1501.85z"/>
		<path d="M2754.38,1543.21c-3.43,2.98-7.61,4.47-12.55,4.47s-9.12-1.49-12.55-4.47c-3.43-2.98-5.14-6.77-5.14-11.36
			s1.71-8.41,5.14-11.46c3.43-3.04,7.61-4.56,12.55-4.56s9.12,1.52,12.55,4.56c3.43,3.04,5.14,6.86,5.14,11.46
			S2757.8,1540.23,2754.38,1543.21z M2754.38,1635.62c-3.43,2.98-7.61,4.47-12.55,4.47s-9.12-1.49-12.55-4.47
			c-3.43-2.98-5.14-6.71-5.14-11.18c0-4.72,1.71-8.57,5.14-11.55c3.43-2.98,7.61-4.47,12.55-4.47s9.12,1.49,12.55,4.47
			c3.43,2.98,5.14,6.83,5.14,11.55C2759.52,1628.91,2757.8,1632.64,2754.38,1635.62z"/>
		<path d="M3015.28,1593.33c4.94,0,8.98,1.61,12.14,4.84c3.02,2.73,4.46,5.9,4.32,9.5c0,0.62-0.07,1.24-0.21,1.86
			c-1.65,14.41-3.53,25.31-5.66,32.7c-2.13,7.39-4.84,12.45-8.13,15.18c-3.98,3.48-10.08,5.53-18.31,6.15
			c-2.33,0.12-5.35,0.19-9.05,0.19c-3.98,0-8.71-0.06-14.2-0.19c-2.75-0.12-5.14-0.99-7.2-2.61s-3.57-3.66-4.53-6.15
			c-0.69-1.74-0.48-3.38,0.62-4.94c1.1-1.55,2.67-2.27,4.73-2.14c8.09,0.37,15.64,0.56,22.63,0.56c4.39,0,7.41-0.62,9.05-1.86
			c4.12-3.35,7.48-15.15,10.08-35.4c0-0.5-0.17-0.93-0.51-1.3c-0.34-0.37-0.79-0.56-1.34-0.56h-56.99c-1.37,0-2.33,0.56-2.88,1.68
			c-5.21,12.3-13.58,22.67-25.1,31.11s-27.78,15.15-48.76,20.12c-0.96,0.25-1.92,0.37-2.88,0.37c-1.65,0-3.29-0.37-4.94-1.12
			c-2.61-1.12-4.66-2.79-6.17-5.03c-0.69-1.12-1.03-2.24-1.03-3.35c0-0.75,0.14-1.49,0.41-2.24c0.69-1.99,2.13-3.17,4.32-3.54
			c17.15-3.73,30.59-8.6,40.33-14.63c9.74-6.02,17.08-13.26,22.02-21.7c0.14-0.37,0.1-0.75-0.1-1.12c-0.21-0.37-0.58-0.56-1.13-0.56
			h-54.94c-2.33,0-4.36-0.78-6.07-2.33c-1.72-1.55-2.57-3.42-2.57-5.59s0.85-4.04,2.57-5.59c1.71-1.55,3.74-2.33,6.07-2.33h61.11
			c1.37,0,2.19-0.62,2.47-1.86c0.69-2.98,1.44-7.14,2.26-12.48c0.14-0.5,0-0.93-0.41-1.3c-0.41-0.37-0.89-0.56-1.44-0.56h-39.09
			c-4.94,0-9.16-1.58-12.65-4.75c-3.5-3.17-5.25-6.99-5.25-11.46v-45.64c0-4.47,1.75-8.29,5.25-11.46c3.5-3.17,7.72-4.75,12.65-4.75
			h111.52c4.94,0,9.16,1.58,12.65,4.75c3.5,3.17,5.25,6.99,5.25,11.46v45.64c0,4.47-1.75,8.29-5.25,11.46s-7.72,4.75-12.65,4.75
			h-47.53c-1.37,0-2.19,0.62-2.47,1.86c-0.55,3.73-1.31,7.89-2.26,12.48c-0.14,0.5,0,0.93,0.41,1.3c0.41,0.37,0.82,0.56,1.23,0.56
			H3015.28z M2900.46,1513.96c-1.37,0-2.06,0.62-2.06,1.86v13.23c0,1.24,0.69,1.86,2.06,1.86h39.3c1.37,0,2.06-0.62,2.06-1.86
			v-13.23c0-1.24-0.69-1.86-2.06-1.86H2900.46z M2900.46,1544.89c-1.37,0-2.06,0.62-2.06,1.86v13.79c0,1.24,0.69,1.86,2.06,1.86
			h39.3c1.37,0,2.06-0.62,2.06-1.86v-13.79c0-1.24-0.69-1.86-2.06-1.86H2900.46z M3003.75,1530.91c1.37,0,2.06-0.62,2.06-1.86
			v-13.23c0-1.24-0.69-1.86-2.06-1.86h-40.12c-1.37,0-2.06,0.62-2.06,1.86v13.23c0,1.24,0.69,1.86,2.06,1.86H3003.75z
			 M3003.75,1562.4c1.37,0,2.06-0.62,2.06-1.86v-13.79c0-1.24-0.69-1.86-2.06-1.86h-40.12c-1.37,0-2.06,0.62-2.06,1.86v13.79
			c0,1.24,0.69,1.86,2.06,1.86H3003.75z"/>
	</g>
</g>
</svg>
