<?xml version="1.0" encoding="utf-8"?>
<!-- Generator: Adobe Illustrator 23.0.5, SVG Export Plug-In . SVG Version: 6.00 Build 0)  -->
<svg version="1.1" id="圖層_1" xmlns="http://www.w3.org/2000/svg" xmlns:xlink="http://www.w3.org/1999/xlink" x="0px" y="0px"
	 viewBox="0 0 3840 2160" style="enable-background:new 0 0 3840 2160;" xml:space="preserve">
<style type="text/css">
	.st0{fill:#E8BA8B;}
	.st1{fill:#F4C690;}
	.st2{fill:#737978;}
	.st3{fill:#BA4326;}
	.st4{fill:#E0A46F;}
	.st5{fill:#C5DCDC;}
	.st6{fill:#1F0D0D;}
	.st7{fill:#473D46;}
	.st8{fill:#A1F0F0;}
	.st9{fill:#EA6022;}
	.st10{fill:#8AC9FE;stroke:#151ABC;stroke-width:4;stroke-miterlimit:10;}
	.st11{fill:#8D9CA8;stroke:#000000;stroke-miterlimit:10;}
</style>
<g>
	<g>
		<path class="st0" d="M1404.08,1569.74c-94.69-1.51-189.37-3.01-284.06-4.52c-16.06-85.15-32.13-170.3-48.19-255.45
			c110.75,0,221.5,0,332.24,0V1569.74z"/>
		<path class="st1" d="M1629.81,975.19c-20.85-16.95-61.95-16.37-83.7,0c-1.68,1.26-3.14,2.55-4.43,3.92
			c0.75-60.3-0.89-133.96-8.25-218.68c-18.72-16.99-142.16-125.41-324.64-113.03c-111.8,7.58-189.34,56.69-220.65,79.12
			c-21.61,57.49-45.82,142.37-48.61,246.26c-22.42-13.95-60.34-13.66-80.11,2.41c-40.23,32.7-9.78,134.44,55.8,178.59
			c6.49,4.37,30.24,20.35,45.91,17.47c6.68,27.02,14.29,51.46,21.94,72.95c20.65,26.45,60.64,69.93,126.81,101.73
			c14.8,7.11,55.82,25.62,98.91,31.65c141.58,19.83,264.52-100.72,278.98-115.29c5.34-11,12.81-27.31,20.29-47.47
			c5.78-15.58,10.51-30.68,14.44-45.69c0.26,0.16,0.5,0.33,0.78,0.47c15.09,8.17,43.53-10.98,50.72-15.82
			C1639.59,1109.63,1670.03,1007.89,1629.81,975.19z"/>
		<path class="st2" d="M1485.24,916.41c-54.11-5.27-108.21-10.55-162.32-15.82c-3.93-3.73-9.16-9.7-12.68-18.09
			c-7.34-17.51-2.04-33.23,0-38.43c16.31,4.83,34.09,9.45,53.26,13.56c24.48,5.25,47.46,8.85,68.48,11.3
			C1449.73,884.76,1467.49,900.59,1485.24,916.41z"/>
		<path class="st2" d="M984.37,916.41c54.11-5.27,108.21-10.55,162.32-15.82c3.93-3.73,9.16-9.7,12.68-18.09
			c7.34-17.51,2.04-33.23,0-38.43c-16.31,4.83-34.09,9.45-53.26,13.56c-24.48,5.25-47.46,8.85-68.48,11.3
			C1019.88,884.76,1002.13,900.59,984.37,916.41z"/>
		<g>
			<g>
				<path class="st3" d="M1153.85,1112.09c-2.44,6.31-1.21,13.28,2.09,19.04c3.5,6.1,9.14,10.7,15.16,14.17
					c6.33,3.65,13.27,6.23,20.27,8.27c7.18,2.09,14.54,3.52,21.97,4.38c14.97,1.73,30.25,1.02,44.99-2.11
					c7.21-1.53,14.33-3.65,21.14-6.47c6.12-2.53,12.46-5.74,16.8-10.91c2.21-2.63,3.75-5.69,4.42-9.07
					c0.73-3.69,0.55-7.46,0.26-11.19c-0.66-8.59-1.38-17.18-2.06-25.77c-0.17-2.16-0.35-4.32-0.52-6.48c-0.15-1.91-3.15-1.93-3,0
					c0.67,8.3,1.33,16.61,2,24.91c0.3,3.74,0.7,7.49,0.82,11.24c0.11,3.61-0.13,7.36-1.73,10.66c-2.73,5.64-8.4,9.25-13.84,11.92
					c-6.29,3.09-13.07,5.29-19.84,7.02c-13.77,3.53-28.1,4.77-42.28,3.87c-14.12-0.89-28.51-3.85-41.47-9.64
					c-6.8-3.04-13.56-7.07-18.24-12.99c-4.47-5.66-6.73-13.13-4.04-20.07C1157.44,1111.08,1154.54,1110.3,1153.85,1112.09
					L1153.85,1112.09z"/>
			</g>
		</g>
		<g>
			<g>
				<path class="st3" d="M1107.34,1193.32c15.49,8.09,31.81,14.56,48.59,19.42c17,4.93,34.47,8.23,52.08,10
					c17.72,1.78,35.6,1.97,53.36,0.58c17.74-1.39,35.37-4.33,52.56-8.9c16.91-4.5,33.41-10.59,49.12-18.31
					c1.92-0.94,3.82-1.91,5.71-2.9c1.71-0.9,0.2-3.49-1.51-2.59c-15.32,8.01-31.45,14.4-48.05,19.22
					c-16.81,4.88-34.08,8.18-51.5,9.92c-17.51,1.74-35.18,1.94-52.72,0.6c-17.48-1.34-34.83-4.23-51.78-8.71
					c-16.74-4.42-33.08-10.39-48.62-18.02c-1.92-0.94-3.82-1.91-5.72-2.9C1107.15,1189.84,1105.63,1192.43,1107.34,1193.32
					L1107.34,1193.32z"/>
			</g>
		</g>
		<g>
			<g>
				<path class="st3" d="M1216.83,1251.67c14.25,0,28.49,0,42.74,0c1.93,0,1.93-3,0-3c-14.25,0-28.49,0-42.74,0
					C1214.9,1248.67,1214.9,1251.67,1216.83,1251.67L1216.83,1251.67z"/>
			</g>
		</g>
		<g>
			<g>
				<path class="st4" d="M1052.9,804.13c20.77-11.03,43.62-18.1,66.96-20.96c25.23-3.09,50.53-0.6,75.67,2.07
					c25.68,2.72,51.37,4.62,77.21,4.81c24.36,0.18,48.6-1.68,72.94-2.32c22.57-0.59,45.76,0.25,67.17,8.1
					c2.64,0.97,5.23,2.04,7.78,3.22c1.74,0.8,3.27-1.78,1.51-2.59c-20.73-9.58-43.72-11.9-66.32-11.88
					c-24.3,0.02-48.54,2.29-72.85,2.47c-26.18,0.19-52.33-1.18-78.37-3.86c-25.71-2.65-51.55-5.98-77.43-3.78
					c-23.48,2-46.6,8.09-67.91,18.18c-2.65,1.26-5.27,2.58-7.86,3.95C1049.68,802.45,1051.19,805.04,1052.9,804.13L1052.9,804.13z"
					/>
			</g>
		</g>
		<g>
			<g>
				<path class="st4" d="M1042.75,852.15c22.1-11.37,46.32-18.59,70.99-21.49c26.57-3.13,53.21-0.58,79.69,2.14
					c27,2.77,54.01,4.71,81.16,4.93c25.82,0.2,51.51-1.7,77.3-2.37c23.84-0.61,48.34,0.22,71.04,8.27c2.8,1,5.57,2.1,8.28,3.32
					c1.75,0.78,3.27-1.8,1.51-2.59c-21.98-9.85-46.23-12.18-70.07-12.15c-25.78,0.03-51.49,2.36-77.27,2.53
					c-27.52,0.18-55.01-1.23-82.39-3.96c-27.06-2.7-54.26-6.1-81.48-3.89c-24.81,2.01-49.28,8.23-71.92,18.6
					c-2.82,1.29-5.61,2.66-8.37,4.08C1039.52,850.44,1041.04,853.03,1042.75,852.15L1042.75,852.15z"/>
			</g>
		</g>
		<g>
			<g>
				<path class="st3" d="M869.93,1020.08c-2.38-6.96,4.17-13.18,10.2-15.32c8.47-3.01,17.98,0.01,25.69,3.78
					c2.16,1.06,4.36,2.15,6.32,3.55c1.59,1.14,3.25,2.69,3.28,4.78c0.03,1.93,3.03,1.93,3,0c-0.07-4.74-4.61-7.52-8.32-9.51
					c-4.64-2.48-9.54-4.65-14.68-5.83c-9.07-2.09-19.45-0.78-25.61,6.89c-2.83,3.52-4.27,8.04-2.76,12.45
					C867.66,1022.7,870.56,1021.92,869.93,1020.08L869.93,1020.08z"/>
			</g>
		</g>
		<g>
			<g>
				<path class="st3" d="M934.22,991.14c-1.24,4.41-3.19,8.55-5.77,12.33c-2.59,3.79-5.74,7.15-8.69,10.66
					c-5.56,6.59-9.81,13.89-11.94,22.31c-4.08,16.14-0.31,32.98,8.19,47.05c4.88,8.07,11.16,15.26,18.18,21.53
					c1.44,1.28,3.57-0.83,2.12-2.12c-11.96-10.67-21.97-24.27-25.7-40.09c-1.85-7.84-2.01-16.11-0.27-23.99
					c1.8-8.18,5.62-15.46,10.96-21.87c3.19-3.84,6.63-7.48,9.49-11.59c2.84-4.08,4.97-8.63,6.32-13.42
					C937.64,990.08,934.75,989.28,934.22,991.14L934.22,991.14z"/>
			</g>
		</g>
		<g>
			<g>
				<path class="st3" d="M1537.42,996.67c3.83,21.05,3.05,42.85-2.18,63.59c-1.49,5.9-3.34,11.71-5.51,17.4
					c-0.69,1.81,2.21,2.59,2.89,0.8c7.79-20.39,11.25-42.41,9.93-64.21c-0.37-6.16-1.13-12.3-2.24-18.38
					C1539.97,993.98,1537.07,994.78,1537.42,996.67L1537.42,996.67z"/>
			</g>
		</g>
		<g>
			<g>
				<path class="st3" d="M1548.06,1024.15c12.32-13.92,31.42-21.9,49.89-17.18c4.91,1.26,9.53,3.4,13.54,6.5
					c0.65,0.5,1.67,0.09,2.05-0.54c0.46-0.77,0.1-1.56-0.54-2.05c-15.82-12.21-38.75-9.93-54.78,0.52
					c-4.55,2.97-8.69,6.56-12.29,10.63C1544.66,1023.47,1546.78,1025.6,1548.06,1024.15L1548.06,1024.15z"/>
			</g>
		</g>
		<path class="st5" d="M958.64,901.06c-14.54,18.68-29.08,37.36-43.63,56.04c-12.66-20.17-27.1-48.54-35.45-84.06
			c-13.18-56.08-4.86-103.12,2.73-130.77c16.24-17.45,40.93-39.67,76.34-58.38c96.41-50.93,203.3-39.43,204.49-32.69
			c1.29,7.3-117.98,29.19-158.14,72.39c-13.32,14.33-19.09,30.36-19.09,30.36c-7.39,20.55-3.77,38.06-2.73,44.37
			C986.57,818.83,984.24,850.85,958.64,901.06z"/>
		<path class="st5" d="M1049.01,658.69c-55.8,17.33-111.59,34.66-167.39,52c12.95-18.99,31.72-42.3,58.33-65.56
			c36.84-32.19,74.33-51.71,101.45-63.3c28.87-19.45,52.33-20.74,63.41-20.35c56.86,2.04,113.56,60.48,126.81,146.94
			c-12.3-11.9-47.39-42.6-103.99-52C1094.08,650.87,1065.92,654.94,1049.01,658.69z"/>
		<g>
			<path class="st5" d="M1067.04,541.67c18.5-20.87,51.25-25.94,81-27.98c27.39-1.88,57.07-1.91,79.56,12.15
				c20.33,12.71,30.66,34.37,39.9,54.92c19.24,42.73,38.45,87.32,35.29,133.28c-15.93,2.66-31.85,5.31-47.78,7.97
				c-3.35,0.56-6.89,1.1-10.08,0.02c-3.42-1.16-5.74-3.98-7.67-6.75c-14.69-21.1-17.72-46.86-27.57-70.09
				c-23.33-55.07-89.02-93.43-154.98-90.5c4.03-9.63,11.92-17.93,21.91-23.06"/>
		</g>
		<g>
			<path class="st5" d="M1243.1,514.11c49.33,5.89,87.4,40.23,121.41,72.63c34.86,33.21,69.72,66.42,104.58,99.63
				c2.09,1.99,4.52,4.12,7.58,4.18c1.73,0.03,3.38-0.63,5.07-0.99c5.06-1.06,10.28,0.66,15.06,2.5c32.52,12.48,61.9,31.41,85.41,55
				c5.64,5.66,11.04,11.74,13.82,18.89c2.35,6.06,2.69,12.56,3,18.96c1.14,24.16,2.02,48.33,2.62,72.5
				c0.3,11.95,0.53,23.97-1.57,35.78c-4.49,25.22-19.27,47.9-33.78,69.91c-3.86,5.86-8.66,12.31-16.19,13.38
				c-9.41,1.33-17.48-7-19.2-15.35s0.75-16.89,1.14-25.38c1.19-25.86-16.65-48.95-33.04-70.32c-7.18-9.37-14.32-18.97-18.24-29.77
				c-10.05-27.72,2.47-58.93-7.56-86.65c-1.83-5.06-4.48-10.01-8.72-13.75c-4.3-3.78-9.93-6.07-15.51-8.12
				c-49.64-18.24-105.31-23.21-158.03-14.12c0.98-14.26,1.94-28.73-1.41-42.7c-2.94-12.26-9.1-23.69-14.76-35.17
				c-18.58-37.72-32.17-77.21-45.72-116.6c-1.02-2.97-1.49-7.12,1.73-8.33c1.51-0.57,3.24-0.15,4.8,0.3
				c7.87,2.27,15.47,5.31,22.6,9.05"/>
		</g>
		<path class="st6" d="M1553.72,948.06c-11.29-10.06-22.58-20.12-33.86-30.18c-0.42-3.45-0.88-6.94-1.39-10.51
			c-42.64-2.81-80.96-4.08-114.13-4.52c-36.15-0.48-60.8,0.09-88.77,11.3c-14.73,5.91-25.78,12.92-32.97,18.09
			c-2.13,5.83-4.76,14.05-6.82,24.07c-10.21-1.92-22.53-3.48-36.55-3.73c-14.91-0.26-28.07,1.04-39.02,2.83
			c-2.03-9.62-4.57-17.52-6.63-23.18c-7.19-5.16-18.24-12.18-32.97-18.09c-27.96-11.21-52.62-11.79-88.77-11.3
			c-33.17,0.44-71.49,1.72-114.13,4.52c-0.38,2.61-0.72,5.17-1.04,7.71c-12.33,10.99-24.67,21.99-37,32.98
			c2.54,11.3,5.07,22.61,7.61,33.91c8.61,2.56,17.22,5.12,25.83,7.67c0.4,10.82,1.18,20.37,2.07,28.5
			c2.27,20.72,5.79,37.31,17.75,54.26c11.36,16.09,25.77,26.04,35.51,31.65c11.76,6.08,29.95,13.52,53.26,15.82
			c55.32,5.47,96.43-22.18,106.52-29.39c9.97-12.86,23.22-33.46,30.43-61.04c3.35-12.81,4.8-24.96,5.07-36.2
			c8.53-2.29,19.75-4.36,32.97-4.49c14.52-0.14,26.72,2.12,35.76,4.57c0.28,11.22,1.73,23.34,5.07,36.12
			c7.21,27.58,20.46,48.18,30.43,61.04c10.09,7.21,51.2,34.86,106.52,29.39c23.32-2.31,41.5-9.74,53.26-15.82
			c9.74-5.61,24.15-15.56,35.51-31.65c11.96-16.95,15.48-33.54,17.75-54.26c0.91-8.34,1.7-18.17,2.1-29.33
			c7.67-2.28,15.34-4.56,23.01-6.84C1548.65,970.67,1551.18,959.36,1553.72,948.06z"/>
		<g>
			<g>
				<path class="st5" d="M1475.77,696.24c8.44-11.32,19.09-20.94,30.93-28.58c12.3-7.94,25.9-13.8,40.09-17.37
					c15.79-3.97,33.13-5.77,48.76-0.22c13.34,4.73,24.48,14.54,32.28,26.21c9.06,13.56,13.58,29.43,17.42,45.11
					c0.5,2.04,0.99,4.08,1.48,6.11c0.45,1.88,3.34,1.08,2.89-0.8c-3.97-16.55-8.1-33.38-16.83-48.17
					c-7.31-12.39-18.03-23.16-31.19-29.22c-15.62-7.2-33.2-6.65-49.72-3.27c-14.82,3.04-29.17,8.55-42.2,16.24
					c-12.58,7.43-24.03,16.93-33.27,28.27c-1.11,1.36-2.19,2.75-3.24,4.16C1472.03,696.27,1474.63,697.77,1475.77,696.24
					L1475.77,696.24z"/>
			</g>
		</g>
		<g>
			<g>
				<path class="st5" d="M1474.62,696.08c-0.07-7.41,3.14-14.24,6.83-20.5c3.76-6.37,7.89-12.58,12.19-18.61
					c8.34-11.69,18.21-22.47,30.78-29.67c6.77-3.87,14.14-6.58,21.86-7.78c1.9-0.3,1.09-3.19-0.8-2.89
					c-14.08,2.19-26.93,9.4-37.34,18.96c-11.34,10.4-20.1,23.52-28.12,36.56c-4.46,7.25-8.48,15.23-8.4,23.94
					C1471.63,698.01,1474.63,698.02,1474.62,696.08L1474.62,696.08z"/>
			</g>
		</g>
		<g>
			<g>
				<path class="st5" d="M1431.72,557.82c8.67,17.17,15.96,35.01,21.76,53.35c5.71,18.06,9.97,36.58,12.69,55.33
					c1.53,10.59,2.55,21.25,3.08,31.93c0.1,1.92,3.1,1.93,3,0c-0.95-19.14-3.49-38.2-7.58-56.92c-4.12-18.87-9.8-37.4-16.93-55.36
					c-4.03-10.14-8.51-20.1-13.43-29.84C1433.44,554.58,1430.85,556.1,1431.72,557.82L1431.72,557.82z"/>
			</g>
		</g>
		<path class="st7" d="M1847.92,1804.85c-375.36-1.51-750.72-3.01-1126.08-4.52c7.78-42.47,26.65-107.77,78.62-171.81
			c18.83-23.2,35.53-38.26,53.26-54.26c38.63-34.84,69.99-54.59,207.97-142.42c3.47-2.21,32.12-20.45,35.51-22.61
			c-1.81,11.33-1.36,21.2,0,29.39c9.61,57.96,73.91,89.21,86.23,94.95c29.9-5.98,71.71-17.45,116.67-40.69
			c50.75-26.24,85.38-57.08,106.52-79.12c56.31,29.93,118.85,68.35,182.61,117.55C1712.17,1626.2,1794.43,1726.33,1847.92,1804.85z"
			/>
		<path class="st8" d="M1478.54,1456.51c-25.68-15.88-50.63-30.08-74.46-42.75c-21.15,22.04-55.77,52.88-106.52,79.12
			c-44.96,23.25-86.76,34.71-116.67,40.69c-12.33-5.74-76.62-36.99-86.23-94.95c-1.36-8.19-1.81-18.06,0-29.39
			c-1.7,1.08-9.72,6.19-17.75,11.3c-19.52,56.07-38.4,128.03-45.99,212.71c-5.68,63.38-3.81,120.19,1.18,168.34
			c147.49,0.59,294.97,1.18,442.46,1.78c-30.26-1.16-60.51-2.33-90.77-3.49C1415.38,1685.41,1446.96,1570.96,1478.54,1456.51z"/>
		<path class="st9" d="M1284.88,1603.65c0.64-20.62-10.82-35.53-15.22-40.69c-9.53-22.21-31.7-37.46-55.8-38.43
			c-31.29-1.26-61.64,21.72-65.94,54.26c-1.28,10.38-1.77,25.45,2.54,42.95c3.2,13.04,8.14,23.65,12.62,31.54
			c-13.51,29.43-27.01,58.85-40.52,88.28c44.81,1.51,89.61,3.01,134.42,4.52c2.28-12.87,3.98-31.82,0-54.26
			c-2.27-12.75-5.89-23.89-9.78-33.24C1256.43,1653.21,1283.92,1634.64,1284.88,1603.65z"/>
	</g>
	<path class="st10" d="M3357.91,143.5H483.09C299.13,143.5,150,278.25,150,444.46v1270.07c0,166.22,149.13,300.96,333.09,300.96
		h2874.82c183.96,0,333.09-134.75,333.09-300.96V444.46C3691,278.25,3541.87,143.5,3357.91,143.5z M1997.48,1689.59H488.7V469.41
		h1508.77V1689.59z"/>
	<rect x="2179.75" y="459.68" class="st11" width="1328.42" height="333.86"/>
	<g>
		<path d="M2701.48,604.53c1.78-2.24,4.12-3.73,7.01-4.47c1.1-0.25,2.2-0.37,3.3-0.37c1.78,0,3.51,0.37,5.15,1.12
			c2.61,1.12,4.26,2.92,4.95,5.4c0.27,0.75,0.41,1.43,0.41,2.05c0,1.74-0.62,3.29-1.86,4.66c-8.11,9.81-17.19,19.07-27.22,27.76
			c-0.96,0.87-1.44,1.93-1.44,3.17v45.83c0,5.59-0.82,9.97-2.47,13.13c-1.65,3.17-4.54,5.5-8.66,6.99
			c-4.95,1.61-15.54,2.61-31.75,2.98h-0.21c-3.02,0-5.7-0.87-8.04-2.61c-2.47-1.86-4.26-4.16-5.36-6.89
			c-0.28-0.87-0.41-1.68-0.41-2.42c0-1.24,0.41-2.48,1.24-3.73c1.37-1.86,3.23-2.79,5.57-2.79h0.21c6.32,0.12,14.3,0.19,23.92,0.19
			c3.71-0.12,5.57-1.8,5.57-5.03V659.3c0-0.37-0.21-0.62-0.62-0.75s-0.76-0.12-1.03,0c-30.1,20.74-66.32,37.32-108.66,49.74
			c-1.52,0.37-2.96,0.56-4.33,0.56c-1.65,0-3.3-0.25-4.95-0.75c-3.17-0.99-5.7-2.73-7.63-5.22c-1.1-1.24-1.65-2.55-1.65-3.91
			c0-0.75,0.13-1.49,0.41-2.24c0.69-2.24,2.34-3.66,4.95-4.29c32.85-8.57,61.93-19.93,87.22-34.09c0.13-0.12,0.17-0.28,0.1-0.47
			c-0.07-0.19-0.24-0.28-0.52-0.28c-35.33,2.73-62.82,4.66-82.48,5.78c-0.28,0-0.55,0-0.82,0c-2.47,0-4.67-0.68-6.6-2.05
			c-2.2-1.61-3.51-3.66-3.92-6.15c-0.14-0.5-0.21-0.93-0.21-1.3c0-1.86,0.62-3.54,1.86-5.03c1.65-1.86,3.84-2.86,6.6-2.98
			l20.21-0.93c1.37-0.12,2.06-0.81,2.06-2.05v-70.8c0-4.47,1.75-8.29,5.26-11.46c3.51-3.17,7.73-4.75,12.68-4.75h23.3
			c1.37,0,2.34-0.56,2.89-1.68c1.1-2.48,2.13-4.78,3.09-6.89c1.24-2.86,3.3-5.15,6.19-6.89c2.34-1.37,4.88-2.05,7.63-2.05
			c0.55,0,1.16,0,1.86,0c3.02,0.37,5.08,1.74,6.19,4.1c0.69,1.12,1.03,2.24,1.03,3.35c0,1.12-0.41,2.3-1.24,3.54
			c-0.82,1.49-1.79,3.11-2.89,4.84c-0.28,0.37-0.31,0.75-0.1,1.12c0.21,0.37,0.52,0.56,0.93,0.56h35.67c4.95,0,9.18,1.58,12.68,4.75
			c3.51,3.17,5.26,6.99,5.26,11.46v41.73c0,0.37,0.17,0.59,0.52,0.65c0.34,0.06,0.58-0.03,0.72-0.28
			C2695.64,611.36,2698.46,608.13,2701.48,604.53z M2671.38,573.23c0-1.24-0.69-1.86-2.06-1.86h-76.29c-1.37,0-2.06,0.62-2.06,1.86
			v11.18c0,1.24,0.69,1.86,2.06,1.86h76.29c1.37,0,2.06-0.62,2.06-1.86V573.23z M2669.32,614.4c1.37,0,2.06-0.62,2.06-1.86v-11.36
			c0-1.24-0.69-1.86-2.06-1.86h-76.29c-1.37,0-2.06,0.62-2.06,1.86v11.36c0,1.24,0.69,1.86,2.06,1.86H2669.32z M2593.02,627.26
			c-1.37,0-2.06,0.62-2.06,1.86v12.86c0,0.5,0.21,0.93,0.62,1.3c0.41,0.37,0.89,0.5,1.44,0.37c35.19-1.61,58.15-2.73,68.87-3.35
			c1.37-0.12,2.61-0.56,3.71-1.3c1.1-0.99,2.54-2.17,4.33-3.54c0.96-0.87,1.44-1.93,1.44-3.17v-3.17c0-1.24-0.69-1.86-2.06-1.86
			H2593.02z"/>
		<path d="M2867.26,559.82c-0.82-1.24-1.31-2.55-1.44-3.91c0-0.99,0.27-1.93,0.82-2.79c0.96-2.36,2.68-3.97,5.15-4.84
			c1.37-0.5,2.75-0.75,4.12-0.75c1.37,0,2.68,0.19,3.92,0.56c2.75,0.99,4.88,2.61,6.39,4.84c6.05,9.44,13.4,18.88,22.06,28.32
			s17.53,17.7,26.6,24.78c2.47,1.99,3.71,4.47,3.71,7.45c0,2.73-1.03,5.03-3.09,6.89c-2.34,2.24-5.09,3.48-8.25,3.73
			c-0.28,0-0.62,0-1.03,0c-2.75,0-5.29-0.93-7.63-2.79c-2.47-2.24-4.88-4.53-7.22-6.89c-0.28-0.25-0.55-0.31-0.82-0.19
			c-0.41,0.12-0.69,0.37-0.82,0.75c0,2.73,0,4.6,0,5.59c-1.37,29.31-2.96,50.27-4.74,62.88c-1.79,12.61-4.47,20.77-8.04,24.5
			c-2.34,2.73-4.74,4.56-7.22,5.5c-2.47,0.93-5.85,1.71-10.1,2.33c-3.17,0.25-7.5,0.37-12.99,0.37c-2.75,0-5.85,0-9.28,0
			c-3.02-0.12-5.6-1.09-7.73-2.89c-2.13-1.8-3.75-4.07-4.85-6.8c-0.69-1.99-0.41-3.82,0.82-5.5c1.24-1.68,3.02-2.45,5.36-2.33
			c6.87,0.37,13.26,0.56,19.18,0.56c4.12,0,7.14-0.93,9.07-2.79c2.47-2.24,4.43-8.29,5.88-18.16s2.71-25.43,3.81-46.67
			c0-0.5-0.21-0.93-0.62-1.3c-0.41-0.37-0.9-0.56-1.44-0.56h-44.54c-1.37,0-2.2,0.62-2.47,1.86c-1.1,7.33-2.47,13.97-4.12,19.93
			c-1.65,5.96-4.02,12.11-7.11,18.44s-6.88,12.05-11.34,17.14c-4.47,5.09-10.07,10.03-16.8,14.81c-6.74,4.78-14.51,8.91-23.3,12.39
			c-1.52,0.62-3.02,0.93-4.54,0.93c-1.37,0-2.68-0.25-3.92-0.75c-3.02-0.87-5.36-2.48-7.01-4.84c-1.1-1.37-1.65-2.79-1.65-4.29
			c0-0.62,0.07-1.24,0.21-1.86c0.69-2.24,2.2-3.79,4.54-4.66c7.56-2.98,14.3-6.4,20.21-10.25c5.91-3.85,10.72-7.86,14.43-12.02
			c3.71-4.16,6.91-8.82,9.59-13.97c2.68-5.15,4.71-10.12,6.08-14.9c1.37-4.78,2.54-10.15,3.51-16.12c0-0.5-0.18-0.93-0.52-1.3
			c-0.34-0.37-0.79-0.56-1.34-0.56h-22.89c-3.99,0-7.39-1.3-10.21-3.91c-2.82-2.61-4.23-5.71-4.23-9.32c0-0.12-0.18-0.25-0.52-0.37
			c-0.34-0.12-0.59-0.12-0.72,0c-3.02,2.73-6.12,5.34-9.28,7.82c-2.2,1.74-4.74,2.55-7.63,2.42c-0.28,0-0.62,0-1.03,0
			c-3.17-0.12-5.91-1.18-8.25-3.17c-1.93-1.74-2.89-3.85-2.89-6.33c0-2.73,1.16-4.97,3.51-6.71c20.62-14.78,36.91-33.41,48.87-55.89
			c1.37-2.73,3.51-4.66,6.39-5.78c1.65-0.62,3.37-0.93,5.15-0.93c1.1,0,2.2,0.12,3.3,0.37c3.02,0.75,5.02,2.3,5.98,4.66
			c0.69,1.12,1.03,2.27,1.03,3.45s-0.34,2.39-1.03,3.63c-10.18,19-23.09,36.08-38.76,51.23c-0.28,0.25-0.34,0.56-0.21,0.93
			c0.13,0.37,0.41,0.56,0.82,0.56h122.89c0.41,0,0.72-0.19,0.93-0.56c0.21-0.37,0.17-0.68-0.1-0.93
			C2892.21,595.21,2878.67,578.2,2867.26,559.82z"/>
		<path d="M3022.73,573.42c2.2,0,4.05,0.68,5.57,2.05c1.51,1.37,2.27,3.01,2.27,4.94s-0.76,3.6-2.27,5.03
			c-1.52,1.43-3.37,2.14-5.57,2.14h-56.91c-2.2,0-4.06-0.71-5.57-2.14c-1.52-1.43-2.27-3.11-2.27-5.03s0.75-3.57,2.27-4.94
			c1.51-1.37,3.37-2.05,5.57-2.05H3022.73z M3006.85,650.55c4.95,0,9.14,1.55,12.58,4.66c3.43,3.11,5.15,6.96,5.15,11.55v23.47
			c0,4.47-1.75,8.26-5.26,11.36c-3.51,3.11-7.66,4.66-12.47,4.66h-23.09c-0.55,0-0.82,0.25-0.82,0.75v0.37
			c0,1.99-0.79,3.7-2.37,5.12c-1.58,1.43-3.51,2.14-5.77,2.14s-4.16-0.71-5.67-2.14c-1.52-1.43-2.27-3.14-2.27-5.12v-40.61
			c0-4.6,1.75-8.45,5.26-11.55c3.51-3.11,7.73-4.66,12.68-4.66H3006.85z M3135.1,571.37c1.65-1.24,3.54-1.86,5.67-1.86
			c2.13,0,3.99,0.71,5.57,2.14c1.58,1.43,2.23,3.07,1.96,4.94c-0.28,1.86-1.24,3.29-2.89,4.29c-4.26,2.73-8.39,5.15-12.37,7.27
			c-1.1,0.62-1.24,1.37-0.41,2.24c4.26,4.35,8.66,8.07,13.2,11.18c2.06,1.24,3.23,2.98,3.51,5.22c0.13,0.37,0.21,0.81,0.21,1.3
			c0,1.74-0.62,3.29-1.86,4.66c-1.93,1.99-4.2,3.23-6.8,3.73c-0.69,0.12-1.31,0.19-1.86,0.19c-1.93,0-3.71-0.5-5.36-1.49
			c-5.91-4.1-11.34-9-16.29-14.72c-0.14-0.12-0.28-0.16-0.41-0.09c-0.14,0.06-0.21,0.16-0.21,0.28c0,2.24-0.86,4.13-2.58,5.68
			c-1.72,1.55-3.81,2.33-6.29,2.33h-40c-1.93,0-3.58-0.62-4.95-1.86c-1.37-1.24-2.06-2.73-2.06-4.47h-0.21
			c-0.14-0.12-0.28-0.19-0.41-0.19c-4.54,5.09-9.56,9.63-15.05,13.6c-2.34,1.61-4.82,2.42-7.42,2.42c-0.96,0-1.86-0.12-2.68-0.37
			c-3.71-0.62-6.94-2.36-9.69-5.22c-0.41-0.25-0.82-0.56-1.24-0.93c-0.14,0-0.14,0,0,0c0,0.99-0.49,1.49-1.44,1.49h-48.04
			c-2.06,0-3.85-0.68-5.36-2.05c-1.52-1.37-2.27-2.98-2.27-4.84s0.72-3.48,2.17-4.84c1.44-1.37,3.26-2.05,5.46-2.05h39.79
			c2.75,0,5.05,0.87,6.91,2.61s2.78,3.85,2.78,6.33c0,0.12,0.13,0.25,0.41,0.37c0.27,0.12,0.48,0.19,0.62,0.19
			c7.7-3.97,15.05-9.63,22.06-16.95c0.82-0.99,0.75-1.93-0.21-2.79c-2.47-2.36-5.43-4.78-8.87-7.27c-1.52-1.24-2.34-2.79-2.47-4.66
			c-0.14-1.86,0.48-3.48,1.86-4.84c1.51-1.49,3.37-2.33,5.57-2.52c2.2-0.19,4.19,0.34,5.98,1.58c2.61,1.74,5.02,3.54,7.22,5.4
			c0.96,0.75,1.78,0.62,2.47-0.37c2.47-4.1,4.6-8.14,6.39-12.11c0.13-0.5,0.07-0.93-0.21-1.3c-0.28-0.37-0.69-0.56-1.24-0.56h-20.21
			c-2.06,0-3.85-0.65-5.36-1.96c-1.52-1.3-2.27-2.92-2.27-4.84c0-1.93,0.75-3.57,2.27-4.94c1.51-1.37,3.3-2.05,5.36-2.05h28.66
			c0.27,0,0.55-0.06,0.82-0.19c1.78-0.25,3.57-0.06,5.36,0.56l2.89,0.93c1.65,0.5,2.89,1.43,3.71,2.79
			c0.82,1.37,1.03,2.79,0.62,4.29c-3.99,13.04-9.9,25.03-17.73,35.96c-0.28,0.37-0.31,0.71-0.1,1.02c0.21,0.31,0.52,0.47,0.93,0.47
			h42.06c0.41,0,0.72-0.16,0.93-0.47c0.21-0.31,0.17-0.65-0.1-1.02c-7.84-10.81-14.3-24.22-19.38-40.24
			c-0.55-1.99-0.24-3.88,0.93-5.68c1.16-1.8,2.92-2.89,5.26-3.26c0.69-0.12,1.31-0.19,1.86-0.19c1.65,0,3.16,0.37,4.54,1.12
			c1.92,1.12,3.23,2.67,3.92,4.66c0.96,2.73,1.92,5.4,2.89,8.01c0.13,0.37,0.44,0.62,0.93,0.75c0.48,0.12,0.93,0.06,1.34-0.19
			c3.3-2.48,6.19-4.72,8.66-6.71c1.51-1.24,3.3-1.89,5.36-1.96c2.06-0.06,3.84,0.59,5.36,1.96c1.51,1.24,2.16,2.76,1.96,4.56
			c-0.21,1.8-1.07,3.2-2.58,4.19c-4.26,2.73-8.87,5.4-13.81,8.01c-1.1,0.62-1.31,1.49-0.62,2.61c1.65,3.11,3.16,5.65,4.54,7.64
			c0.82,1.12,1.78,1.24,2.89,0.37C3129.19,576.15,3132.35,573.73,3135.1,571.37z M3016.54,624.65c2.2,0,4.02,0.68,5.46,2.05
			c1.44,1.37,2.17,3.01,2.17,4.94s-0.72,3.57-2.17,4.94c-1.44,1.37-3.27,2.05-5.46,2.05h-41.86c-2.06,0-3.85-0.68-5.36-2.05
			c-1.52-1.37-2.27-3.01-2.27-4.94s0.72-3.57,2.17-4.94c1.44-1.37,3.26-2.05,5.46-2.05H3016.54z M3015.92,548.26
			c2.2,0,4.02,0.68,5.46,2.05c1.44,1.37,2.17,3.01,2.17,4.94c0,1.93-0.72,3.54-2.17,4.84s-3.27,1.96-5.46,1.96h-39.79
			c-2.2,0-4.06-0.65-5.57-1.96c-1.52-1.3-2.27-2.92-2.27-4.84c0-1.93,0.75-3.57,2.27-4.94c1.51-1.37,3.37-2.05,5.57-2.05H3015.92z
			 M3008.29,666.57c0-1.24-0.69-1.86-2.06-1.86H2985c-1.37,0-2.06,0.62-2.06,1.86v23.85c0,1.24,0.69,1.86,2.06,1.86h21.24
			c1.37,0,2.06-0.62,2.06-1.86V666.57z M3067.06,695.45c-0.14,0-0.21,0.06-0.21,0.19s0.07,0.19,0.21,0.19h74.23
			c2.34,0,4.33,0.75,5.98,2.24c1.65,1.49,2.47,3.29,2.47,5.4s-0.82,3.91-2.47,5.4c-1.65,1.49-3.64,2.24-5.98,2.24h-101.86
			c-2.34,0-4.33-0.75-5.98-2.24c-1.65-1.49-2.47-3.29-2.47-5.4s0.82-3.91,2.47-5.4c1.65-1.49,3.64-2.24,5.98-2.24h21.86
			c0.55,0,1-0.19,1.34-0.56c0.34-0.37,0.44-0.81,0.31-1.3c-1.24-5.71-3.3-12.05-6.19-19c-0.82-1.86-0.76-3.73,0.21-5.59
			c0.96-1.86,2.54-3.04,4.74-3.54c0.96-0.12,1.86-0.19,2.68-0.19c1.51,0,3.02,0.31,4.54,0.93c2.2,0.87,3.78,2.36,4.74,4.47
			c1.24,2.73,2.34,5.46,3.3,8.2c0.41,1.37,0.69,2.67,0.82,3.91c0,2.11-0.62,4.1-1.86,5.96
			C3074,692.34,3071.05,694.45,3067.06,695.45z M3116.34,619.06c4.95,0,9.18,1.58,12.68,4.75c3.51,3.17,5.26,6.99,5.26,11.46v12.3
			c0,4.47-1.75,8.29-5.26,11.46c-3.51,3.17-7.73,4.75-12.68,4.75h-53.82c-4.95,0-9.18-1.58-12.68-4.75
			c-3.51-3.17-5.26-6.99-5.26-11.46v-12.3c0-4.47,1.75-8.29,5.26-11.46c3.51-3.17,7.73-4.75,12.68-4.75H3116.34z M3113.25,649.8
			c1.37,0,2.06-0.62,2.06-1.86v-13.41c0-1.24-0.69-1.86-2.06-1.86h-48.87c-1.37,0-2.06,0.62-2.06,1.86v13.41
			c0,1.24,0.69,1.86,2.06,1.86H3113.25z M3105.82,671.97c0.69-2.24,2.2-3.97,4.54-5.22c1.51-0.75,3.09-1.12,4.74-1.12
			c0.82,0,1.65,0.06,2.47,0.19c2.34,0.5,4.12,1.74,5.36,3.73c0.55,1.12,0.82,2.24,0.82,3.35c0,0.99-0.21,1.93-0.62,2.79
			c-2.47,5.71-4.54,10.18-6.19,13.41c-0.82,1.99-2.34,3.42-4.54,4.29c-1.37,0.62-2.75,0.93-4.12,0.93c-0.96,0-1.86-0.06-2.68-0.19
			c-2.06-0.5-3.58-1.61-4.54-3.35c-0.96-1.74-1.1-3.54-0.41-5.4C3102.45,681.04,3104.17,676.57,3105.82,671.97z"/>
	</g>
	<g>
		<g>
			<path class="st5" d="M980.61,600.86c5.24-9.78,16.81-13.75,26.92-16.27c6.34-1.58,12.79-2.7,19.21-3.89
				c7.55-1.4,15.12-2.72,22.73-3.75c8.61-1.16,17.28-1.92,25.97-2.04c-0.48-0.63-0.96-1.27-1.45-1.9
				c-2.78,8.9-14.19,11.01-22.18,11.01c-5.35-0.01-10.68-0.65-16.02-1c-5.45-0.36-10.91-0.57-16.37-0.63
				c-6.29-0.07-12.58,0.06-18.86,0.37c-1.92,0.1-1.93,3.1,0,3c11.65-0.59,23.34-0.52,34.98,0.24c10.5,0.68,21.89,2.76,31.77-2
				c4.32-2.08,8.11-5.51,9.58-10.18c0.29-0.93-0.5-1.91-1.45-1.9c-15.84,0.21-31.54,2.61-47.09,5.45c-12.42,2.27-25.63,4-37.02,9.78
				c-5.46,2.77-10.39,6.74-13.32,12.2C977.11,601.05,979.7,602.56,980.61,600.86L980.61,600.86z"/>
		</g>
	</g>
	<g>
		<path d="M2380.78,1008.5c1.78-2.24,4.12-3.73,7.01-4.47c1.1-0.25,2.2-0.37,3.3-0.37c1.78,0,3.51,0.37,5.15,1.12
			c2.61,1.12,4.26,2.92,4.95,5.4c0.27,0.75,0.41,1.43,0.41,2.05c0,1.74-0.62,3.29-1.86,4.66c-8.11,9.81-17.18,19.07-27.22,27.76
			c-0.96,0.87-1.44,1.93-1.44,3.17v45.83c0,5.59-0.82,9.97-2.47,13.13c-1.65,3.17-4.54,5.5-8.66,6.99
			c-4.95,1.61-15.54,2.61-31.75,2.98H2328c-3.02,0-5.7-0.87-8.04-2.61c-2.47-1.86-4.26-4.16-5.36-6.89
			c-0.28-0.87-0.41-1.68-0.41-2.42c0-1.24,0.41-2.48,1.24-3.73c1.37-1.86,3.23-2.79,5.57-2.79h0.21c6.32,0.12,14.3,0.19,23.92,0.19
			c3.71-0.12,5.57-1.8,5.57-5.03v-30.18c0-0.37-0.21-0.62-0.62-0.75c-0.41-0.12-0.76-0.12-1.03,0
			c-30.1,20.74-66.32,37.32-108.66,49.74c-1.51,0.37-2.96,0.56-4.33,0.56c-1.65,0-3.3-0.25-4.95-0.75c-3.16-0.99-5.7-2.73-7.63-5.22
			c-1.1-1.24-1.65-2.55-1.65-3.91c0-0.75,0.14-1.49,0.41-2.24c0.69-2.24,2.34-3.66,4.95-4.29c32.85-8.57,61.93-19.93,87.22-34.09
			c0.14-0.12,0.17-0.28,0.1-0.47c-0.07-0.19-0.24-0.28-0.52-0.28c-35.33,2.73-62.82,4.66-82.48,5.78c-0.28,0-0.55,0-0.82,0
			c-2.47,0-4.67-0.68-6.6-2.05c-2.2-1.61-3.51-3.66-3.92-6.15c-0.14-0.5-0.21-0.93-0.21-1.3c0-1.86,0.62-3.54,1.86-5.03
			c1.65-1.86,3.85-2.86,6.6-2.98l20.21-0.93c1.37-0.12,2.06-0.81,2.06-2.05v-70.8c0-4.47,1.75-8.29,5.26-11.46
			c3.51-3.17,7.73-4.75,12.68-4.75h23.3c1.37,0,2.34-0.56,2.89-1.68c1.1-2.48,2.13-4.78,3.09-6.89c1.24-2.86,3.3-5.15,6.19-6.89
			c2.34-1.37,4.88-2.05,7.63-2.05c0.55,0,1.17,0,1.86,0c3.02,0.37,5.08,1.74,6.19,4.1c0.69,1.12,1.03,2.24,1.03,3.35
			c0,1.12-0.41,2.3-1.24,3.54c-0.82,1.49-1.79,3.11-2.89,4.84c-0.28,0.37-0.31,0.75-0.1,1.12c0.21,0.37,0.52,0.56,0.93,0.56h35.67
			c4.95,0,9.18,1.58,12.68,4.75c3.51,3.17,5.26,6.99,5.26,11.46v41.73c0,0.37,0.17,0.59,0.52,0.65c0.34,0.06,0.58-0.03,0.72-0.28
			C2374.94,1015.33,2377.76,1012.1,2380.78,1008.5z M2350.68,977.2c0-1.24-0.69-1.86-2.06-1.86h-76.29c-1.37,0-2.06,0.62-2.06,1.86
			v11.18c0,1.24,0.69,1.86,2.06,1.86h76.29c1.37,0,2.06-0.62,2.06-1.86V977.2z M2348.62,1018.37c1.37,0,2.06-0.62,2.06-1.86v-11.36
			c0-1.24-0.69-1.86-2.06-1.86h-76.29c-1.37,0-2.06,0.62-2.06,1.86v11.36c0,1.24,0.69,1.86,2.06,1.86H2348.62z M2272.33,1031.23
			c-1.37,0-2.06,0.62-2.06,1.86v12.86c0,0.5,0.21,0.93,0.62,1.3c0.41,0.37,0.89,0.5,1.44,0.37c35.19-1.61,58.15-2.73,68.87-3.35
			c1.37-0.12,2.61-0.56,3.71-1.3c1.1-0.99,2.54-2.17,4.33-3.54c0.96-0.87,1.44-1.93,1.44-3.17v-3.17c0-1.24-0.69-1.86-2.06-1.86
			H2272.33z"/>
		<path d="M2546.56,963.78c-0.82-1.24-1.31-2.55-1.44-3.91c0-0.99,0.27-1.93,0.82-2.79c0.96-2.36,2.68-3.97,5.15-4.84
			c1.37-0.5,2.75-0.75,4.12-0.75c1.37,0,2.68,0.19,3.92,0.56c2.75,0.99,4.88,2.61,6.39,4.84c6.05,9.44,13.4,18.88,22.06,28.32
			c8.66,9.44,17.53,17.7,26.6,24.78c2.47,1.99,3.71,4.47,3.71,7.45c0,2.73-1.03,5.03-3.09,6.89c-2.34,2.24-5.09,3.48-8.25,3.73
			c-0.28,0-0.62,0-1.03,0c-2.75,0-5.29-0.93-7.63-2.79c-2.47-2.24-4.88-4.53-7.22-6.89c-0.28-0.25-0.55-0.31-0.82-0.19
			c-0.41,0.12-0.69,0.37-0.82,0.75c0,2.73,0,4.6,0,5.59c-1.37,29.31-2.96,50.27-4.74,62.88c-1.79,12.61-4.47,20.77-8.04,24.5
			c-2.34,2.73-4.74,4.56-7.22,5.5s-5.84,1.71-10.1,2.33c-3.16,0.25-7.49,0.37-12.99,0.37c-2.75,0-5.84,0-9.28,0
			c-3.02-0.12-5.6-1.09-7.73-2.89c-2.13-1.8-3.75-4.07-4.85-6.8c-0.69-1.99-0.41-3.82,0.82-5.5c1.24-1.68,3.02-2.45,5.36-2.33
			c6.87,0.37,13.27,0.56,19.18,0.56c4.12,0,7.15-0.93,9.07-2.79c2.47-2.24,4.43-8.29,5.88-18.16c1.44-9.87,2.71-25.43,3.81-46.67
			c0-0.5-0.21-0.93-0.62-1.3c-0.41-0.37-0.9-0.56-1.44-0.56h-44.54c-1.37,0-2.2,0.62-2.47,1.86c-1.1,7.33-2.47,13.97-4.12,19.93
			c-1.65,5.96-4.02,12.11-7.11,18.44c-3.09,6.33-6.88,12.05-11.34,17.14c-4.47,5.09-10.07,10.03-16.8,14.81
			c-6.74,4.78-14.5,8.91-23.3,12.39c-1.51,0.62-3.02,0.93-4.54,0.93c-1.37,0-2.68-0.25-3.92-0.75c-3.02-0.87-5.36-2.48-7.01-4.84
			c-1.1-1.37-1.65-2.79-1.65-4.29c0-0.62,0.07-1.24,0.21-1.86c0.69-2.24,2.2-3.79,4.54-4.66c7.56-2.98,14.3-6.4,20.21-10.25
			c5.91-3.85,10.72-7.86,14.43-12.02c3.71-4.16,6.91-8.82,9.59-13.97s4.71-10.12,6.08-14.9c1.37-4.78,2.54-10.15,3.51-16.12
			c0-0.5-0.17-0.93-0.52-1.3c-0.34-0.37-0.79-0.56-1.34-0.56h-22.89c-3.99,0-7.39-1.3-10.21-3.91c-2.82-2.61-4.23-5.71-4.23-9.32
			c0-0.12-0.17-0.25-0.52-0.37c-0.34-0.12-0.59-0.12-0.72,0c-3.02,2.73-6.12,5.34-9.28,7.82c-2.2,1.74-4.74,2.55-7.63,2.42
			c-0.28,0-0.62,0-1.03,0c-3.16-0.12-5.91-1.18-8.25-3.17c-1.93-1.74-2.89-3.85-2.89-6.33c0-2.73,1.17-4.97,3.51-6.71
			c20.62-14.78,36.91-33.41,48.87-55.89c1.37-2.73,3.51-4.66,6.39-5.78c1.65-0.62,3.37-0.93,5.15-0.93c1.1,0,2.2,0.12,3.3,0.37
			c3.02,0.75,5.02,2.3,5.98,4.66c0.69,1.12,1.03,2.27,1.03,3.45s-0.34,2.39-1.03,3.63c-10.17,19-23.09,36.08-38.76,51.23
			c-0.28,0.25-0.34,0.56-0.21,0.93c0.14,0.37,0.41,0.56,0.82,0.56h122.89c0.41,0,0.72-0.19,0.93-0.56c0.21-0.37,0.17-0.68-0.1-0.93
			C2571.51,999.18,2557.97,982.17,2546.56,963.78z"/>
		<path d="M2746.98,999.93c-3.44,2.98-7.63,4.47-12.58,4.47c-4.95,0-9.14-1.49-12.58-4.47c-3.44-2.98-5.15-6.77-5.15-11.36
			c0-4.6,1.72-8.41,5.15-11.46c3.43-3.04,7.63-4.56,12.58-4.56c4.95,0,9.14,1.52,12.58,4.56c3.43,3.04,5.15,6.86,5.15,11.46
			C2752.13,993.16,2750.41,996.95,2746.98,999.93z M2746.98,1092.34c-3.44,2.98-7.63,4.47-12.58,4.47c-4.95,0-9.14-1.49-12.58-4.47
			c-3.44-2.98-5.15-6.71-5.15-11.18c0-4.72,1.72-8.57,5.15-11.55c3.43-2.98,7.63-4.47,12.58-4.47c4.95,0,9.14,1.49,12.58,4.47
			c3.43,2.98,5.15,6.83,5.15,11.55C2752.13,1085.63,2750.41,1089.35,2746.98,1092.34z"/>
		<path d="M2983.58,948.79c1.99-1.8,2.99-2.7,2.99-2.7s1.37,0,4.12,0c2.75,0,5.12,0.9,7.11,2.7c1.99,1.8,2.99,3.94,2.99,6.43v76.94
			c0,1.24,0.55,2.3,1.65,3.17c11.41,9.07,23.09,16.52,35.05,22.36c2.34,1.12,3.71,2.86,4.12,5.22c0.14,0.5,0.21,0.99,0.21,1.49
			c0,1.74-0.69,3.35-2.06,4.84c-2.06,2.24-4.61,3.66-7.63,4.29c-0.82,0.25-1.72,0.37-2.68,0.37c-1.93,0-3.78-0.5-5.57-1.49
			c-7.15-3.85-14.3-8.45-21.44-13.79c-0.28-0.25-0.62-0.28-1.03-0.09c-0.41,0.19-0.62,0.47-0.62,0.84v51.98c0,2.48-1,4.63-2.99,6.43
			c-1.99,1.8-4.36,2.7-7.11,2.7c-2.75,0-5.12-0.9-7.11-2.7c-1.99-1.8-2.99-3.94-2.99-6.43v-69.31c0-1.24-0.48-2.36-1.44-3.35
			c-9.48-9.19-18.28-19.62-26.39-31.3c-0.14-0.25-0.41-0.37-0.82-0.37s-0.69,0.19-0.82,0.56c-13.89,49.31-38.9,84.96-75.05,106.94
			c-2.06,1.24-4.26,1.86-6.6,1.86c-0.69,0-1.37-0.06-2.06-0.19c-3.02-0.5-5.7-1.74-8.04-3.73c-1.1-0.99-1.86-2.17-2.27-3.54
			c-0.41-1.37-0.31-2.73,0.31-4.1c0.62-1.37,1.62-2.42,2.99-3.17c20.07-11.18,36.56-26.64,49.49-46.39
			c0.69-1.12,0.55-2.05-0.41-2.79c-8.39-6.96-19.45-14.47-33.2-22.54c-1.1-0.75-2.06-0.62-2.89,0.37c-1.37,1.61-2.82,3.17-4.33,4.66
			c-1.79,1.99-4.19,3.04-7.22,3.17c-0.28,0-0.48,0-0.62,0c-2.61,0-4.95-0.75-7.01-2.24c-2.34-1.61-3.51-3.79-3.51-6.52
			c-0.14-2.11,0.62-3.97,2.27-5.59c17.32-17.14,30.72-40.3,40.21-69.49c0.69-2.36,2.27-4.22,4.74-5.59
			c1.65-0.99,3.43-1.49,5.36-1.49c0.69,0,1.37,0.12,2.06,0.37c2.75,0.5,4.81,1.74,6.19,3.73c0.96,1.37,1.44,2.79,1.44,4.29
			c0,0.75-0.14,1.55-0.41,2.42c-1.79,5.09-3.58,9.87-5.36,14.35c-0.14,0.37-0.07,0.75,0.21,1.12c0.28,0.37,0.69,0.56,1.24,0.56
			h32.37h0.62c2.2-0.37,4.33-0.25,6.39,0.37l3.51,1.12c1.78,0.62,3.2,1.71,4.23,3.26s1.41,3.2,1.13,4.94
			c-0.69,3.6-1.31,6.71-1.86,9.32c0,0.12,0.07,0.25,0.21,0.37c0.14,0.12,0.27,0.12,0.41,0c1.92-0.62,3.88-0.62,5.88,0
			c1.99,0.62,3.54,1.74,4.64,3.35c3.71,5.59,8.11,11.18,13.2,16.77c0.14,0.25,0.38,0.31,0.72,0.19c0.34-0.12,0.52-0.31,0.52-0.56
			v-57.94C2980.59,952.73,2981.59,950.59,2983.58,948.79z M2935.23,992.66c0.14-0.37,0.03-0.75-0.31-1.12
			c-0.34-0.37-0.79-0.56-1.34-0.56H2901c-1.37,0-2.34,0.56-2.89,1.68c-3.58,7.08-7.7,14.1-12.37,21.05
			c-0.69,1.12-0.41,1.99,0.82,2.61c12.37,6.83,22.96,13.54,31.75,20.12c0.41,0.25,0.89,0.34,1.44,0.28
			c0.55-0.06,0.89-0.34,1.03-0.84C2926.98,1022.97,2931.8,1008.56,2935.23,992.66z"/>
		<path d="M3242.25,1037.38c2.06,1.61,3.09,3.6,3.09,5.96c0,2.48-0.96,4.53-2.89,6.15c-1.93,1.61-4.19,2.42-6.8,2.42h-0.21
			c-2.61,0-4.88-0.87-6.8-2.61c-5.23-4.35-12.58-10.12-22.06-17.33c-0.96-0.75-1.86-0.62-2.68,0.37c-1.37,2.24-2.89,4.41-4.54,6.52
			c-2.61,3.35-6.39,5.28-11.34,5.78c-0.96,0.12-1.86,0.19-2.68,0.19c-3.99,0-7.63-0.87-10.93-2.61c-0.14-0.12-0.31-0.09-0.52,0.09
			c-0.21,0.19-0.24,0.34-0.1,0.47c8.52,10.31,18.94,19.87,31.24,28.69c12.3,8.82,25.26,16.02,38.87,21.61
			c2.47,0.99,3.99,2.73,4.54,5.22c0.14,0.5,0.21,1.06,0.21,1.68c0,1.74-0.69,3.29-2.06,4.66c-2.06,2.48-4.67,4.1-7.84,4.84
			c-1.24,0.25-2.41,0.43-3.51,0.56c-1.93,0-3.85-0.5-5.77-1.49c-23.37-11.3-43.99-26.95-61.86-46.95c-0.14-0.25-0.38-0.31-0.72-0.19
			c-0.34,0.12-0.52,0.31-0.52,0.56v49.56c0,2.48-1,4.66-2.99,6.52c-1.99,1.86-4.43,2.79-7.32,2.79c-2.89,0-5.33-0.93-7.32-2.79
			c-1.99-1.86-2.99-4.04-2.99-6.52v-49c0-0.25-0.17-0.43-0.52-0.56c-0.34-0.12-0.65,0-0.93,0.37
			c-17.87,19.62-38.42,35.03-61.65,46.2c-1.93,0.87-3.78,1.37-5.57,1.49c-1.1,0-2.13-0.19-3.09-0.56c-3.02-0.75-5.57-2.24-7.63-4.47
			c-1.24-1.37-1.86-2.86-1.86-4.47c0-0.5,0.07-1.06,0.21-1.68c0.55-2.11,1.92-3.66,4.12-4.66c14.98-6.46,29.21-14.97,42.68-25.52
			c13.47-10.56,24.47-21.74,32.99-33.54c0.82-0.99,1.24-2.11,1.24-3.35v-41.73c0-1.24-0.69-1.86-2.06-1.86h-67.22
			c-2.61,0-4.85-0.84-6.7-2.52s-2.78-3.7-2.78-6.05s0.93-4.38,2.78-6.05s4.09-2.52,6.7-2.52h67.22c1.37,0,2.06-0.62,2.06-1.86
			v-13.97c0-2.73,1-4.97,2.99-6.71c1.99-1.74,4.43-2.61,7.32-2.61c2.89,0,5.33,0.9,7.32,2.7c1.99,1.8,2.99,4.01,2.99,6.61v13.97
			c0,1.24,0.69,1.86,2.06,1.86h69.69c2.61,0,4.85,0.84,6.7,2.52s2.78,3.7,2.78,6.05s-0.93,4.38-2.78,6.05s-4.09,2.52-6.7,2.52
			h-69.69c-1.37,0-2.06,0.62-2.06,1.86v40.8c0,1.24,0.34,2.36,1.03,3.35c1.24,1.86,2.47,3.6,3.71,5.22
			c0.82,0.99,1.72,1.06,2.68,0.19c11.41-9.56,19.79-22.79,25.16-39.68c0.69-2.36,2.2-4.22,4.54-5.59c1.65-0.99,3.43-1.49,5.36-1.49
			c0.69,0,1.31,0.06,1.86,0.19c2.61,0.37,4.6,1.55,5.98,3.54c0.96,1.37,1.44,2.73,1.44,4.1c0,0.75-0.07,1.49-0.21,2.24
			c-1.37,4.1-2.82,7.82-4.33,11.18c-0.55,1.24-0.28,2.24,0.82,2.98C3226.37,1025.39,3235.65,1032.16,3242.25,1037.38z
			 M3099.98,999.93c0.82-2.36,2.34-4.22,4.54-5.59c1.78-0.99,3.57-1.49,5.36-1.49c0.69,0,1.37,0.06,2.06,0.19
			c2.61,0.5,4.6,1.74,5.98,3.73c0.82,1.24,1.24,2.61,1.24,4.1c0,0.75-0.14,1.49-0.41,2.24c-1.24,3.97-2.68,7.82-4.33,11.55
			c-0.55,1.12-0.28,2.05,0.82,2.79c5.08,3.97,9.76,7.82,14.02,11.55c1.92,1.74,2.89,3.79,2.89,6.15c0,2.48-0.96,4.6-2.89,6.33
			c-1.65,1.61-3.71,2.42-6.19,2.42h-0.21c-2.61-0.12-4.81-0.99-6.6-2.61c-2.61-2.48-5.77-5.28-9.48-8.38
			c-0.96-0.87-1.79-0.81-2.47,0.19c-4.95,7.82-10.65,14.72-17.11,20.68c-1.93,1.61-4.26,2.42-7.01,2.42h-0.21
			c-2.75,0-5.23-0.87-7.42-2.61c-1.93-1.49-2.89-3.42-2.89-5.78c0-2.11,0.89-3.91,2.68-5.4
			C3084.86,1031.6,3094.07,1017.44,3099.98,999.93z"/>
		<path d="M3458.86,1007.29c1.72,1.55,2.58,3.42,2.58,5.59s-0.86,4.04-2.58,5.59c-1.72,1.55-3.81,2.33-6.29,2.33h-66.6
			c-1.37,0-2.61,0.37-3.71,1.12c-6.46,4.35-15.19,9.63-26.19,15.84c-0.28,0.12-0.38,0.34-0.31,0.65c0.07,0.31,0.24,0.47,0.52,0.47
			h62.06c4.95,0,9.18,1.58,12.68,4.75c3.51,3.17,5.26,6.99,5.26,11.46v56.08c0,2.48-1,4.63-2.99,6.43c-1.99,1.8-4.36,2.7-7.11,2.7
			h-5.15c-1.37,0-2.58-0.47-3.61-1.4s-1.55-2.02-1.55-3.26c0-0.37-0.14-0.56-0.41-0.56h-78.56c-0.55,0-0.76,0.19-0.62,0.56
			c0,1.49-0.55,2.76-1.65,3.82c-1.1,1.06-2.47,1.58-4.12,1.58h-3.92c-2.61,0-4.88-0.87-6.8-2.61c-1.93-1.74-2.89-3.79-2.89-6.15
			v-53.47c0-0.5-0.21-0.84-0.62-1.02s-0.82-0.22-1.24-0.09c-7.97,3.35-16.15,6.58-24.54,9.69c-1.51,0.5-3.02,0.75-4.54,0.75
			c-1.24,0-2.47-0.19-3.71-0.56c-3.02-0.87-5.36-2.36-7.01-4.47c-1.1-1.24-1.58-2.55-1.44-3.91c0-0.62,0.14-1.24,0.41-1.86
			c0.69-2.11,2.13-3.54,4.33-4.29c25.57-8.45,49.35-18.82,71.34-31.11c0.14-0.25,0.17-0.5,0.1-0.75c-0.07-0.25-0.24-0.37-0.52-0.37
			h-66.39c-2.47,0-4.57-0.78-6.29-2.33c-1.72-1.55-2.58-3.42-2.58-5.59s0.86-4.04,2.58-5.59c1.72-1.55,3.81-2.33,6.29-2.33h58.97
			c1.37,0,2.06-0.62,2.06-1.86v-17.51c0-1.24-0.69-1.86-2.06-1.86h-40.83c-2.34,0-4.36-0.78-6.08-2.33
			c-1.72-1.55-2.58-3.38-2.58-5.5s0.86-3.91,2.58-5.4c1.72-1.49,3.74-2.24,6.08-2.24h40.83c1.37,0,2.06-0.62,2.06-1.86v-11.74
			c0-2.48,0.96-4.56,2.89-6.24c1.92-1.68,4.23-2.52,6.91-2.52c2.68,0,4.98,0.87,6.91,2.61c1.92,1.74,2.89,3.79,2.89,6.15v11.74
			c0,1.24,0.69,1.86,2.06,1.86h38.76c2.2,0,4.12,0.71,5.77,2.14c1.65,1.43,2.47,3.2,2.47,5.31c0,0.12,0.1,0.22,0.31,0.28
			c0.21,0.06,0.31,0.03,0.31-0.09c6.19-5.71,11.75-11.43,16.7-17.14c1.65-1.99,3.85-3.23,6.6-3.73c0.82-0.12,1.65-0.19,2.47-0.19
			c1.78,0,3.51,0.37,5.15,1.12c2.2,1.12,3.57,2.73,4.12,4.84c0.14,0.62,0.21,1.18,0.21,1.68c0,1.61-0.55,3.11-1.65,4.47
			c-11.13,12.67-24.26,24.96-39.38,36.89c-0.28,0.12-0.34,0.34-0.21,0.65c0.14,0.31,0.34,0.47,0.62,0.47h44.54
			C3455.04,1004.96,3457.14,1005.73,3458.86,1007.29z M3413.8,1069.23c1.37,0,2.06-0.62,2.06-1.86v-12.11
			c0-1.24-0.69-1.86-2.06-1.86h-75.47c-1.37,0-2.06,0.62-2.06,1.86v12.11c0,1.24,0.69,1.86,2.06,1.86H3413.8z M3336.27,1098.11
			c0,1.24,0.69,1.86,2.06,1.86h75.47c1.37,0,2.06-0.62,2.06-1.86v-13.04c0-1.24-0.69-1.86-2.06-1.86h-75.47
			c-1.37,0-2.06,0.62-2.06,1.86V1098.11z M3363.7,1003.1c0,1.24,0.69,1.86,2.06,1.86h9.48c1.37,0,2.61-0.37,3.71-1.12
			c7.7-5.22,15.88-11.55,24.54-19c0.27-0.12,0.34-0.34,0.21-0.65c-0.14-0.31-0.41-0.47-0.82-0.47h-37.11
			c-1.37,0-2.06,0.62-2.06,1.86V1003.1z"/>
	</g>
	<g>
		<path d="M2397.9,1343.79c2.61,0,4.85,0.84,6.7,2.52c1.86,1.68,2.78,3.73,2.78,6.15c0,2.42-0.93,4.47-2.78,6.15
			s-4.09,2.52-6.7,2.52h-62.68c-1.37,0-2.06,0.62-2.06,1.86v31.11c0,2.48-0.96,4.63-2.89,6.43c-1.93,1.8-4.3,2.7-7.11,2.7
			c-2.82,0-5.23-0.9-7.22-2.7c-1.99-1.8-2.99-3.94-2.99-6.43v-31.11c0-1.24-0.69-1.86-2.06-1.86h-84.54c-2.61,0-4.85-0.84-6.7-2.52
			s-2.78-3.73-2.78-6.15c0-2.42,0.93-4.47,2.78-6.15c1.86-1.68,4.09-2.52,6.7-2.52h22.47c1.37,0,2.06-0.62,2.06-1.86v-32.23
			c0-4.47,1.75-8.29,5.26-11.46c3.51-3.17,7.73-4.75,12.68-4.75h42.06c1.37,0,2.06-0.62,2.06-1.86v-22.54
			c0-1.24-0.69-1.86-2.06-1.86h-44.13c-1.37,0-2.34,0.5-2.89,1.49c-6.88,10.43-14.3,19.69-22.27,27.76
			c-2.06,1.99-4.61,3.04-7.63,3.17c-0.28,0-0.55,0-0.82,0c-2.61,0-5.02-0.75-7.22-2.24c-2.47-1.61-3.71-3.79-3.71-6.52
			c0-2.11,0.89-3.97,2.68-5.59c14.16-13.17,25.7-29.62,34.64-49.37c1.1-2.36,2.96-4.16,5.57-5.4c1.65-0.75,3.3-1.12,4.95-1.12
			c0.96,0,1.99,0.12,3.09,0.37c2.61,0.62,4.54,1.99,5.77,4.1c0.69,1.24,1.03,2.48,1.03,3.73c0,0.99-0.28,2.05-0.82,3.17
			c-1.1,2.24-2.27,4.72-3.51,7.45c-0.28,0.5-0.28,0.93,0,1.3c0.27,0.37,0.69,0.56,1.24,0.56h110.73c2.61,0,4.85,0.84,6.7,2.52
			s2.78,3.7,2.78,6.05s-0.93,4.38-2.78,6.05s-4.09,2.52-6.7,2.52h-52.37c-1.37,0-2.06,0.62-2.06,1.86v22.54
			c0,1.24,0.69,1.86,2.06,1.86h47.84c2.47,0,4.6,0.81,6.39,2.42c1.78,1.61,2.68,3.57,2.68,5.87c0,2.3-0.9,4.25-2.68,5.87
			c-1.79,1.61-3.92,2.42-6.39,2.42h-47.84c-1.37,0-2.06,0.62-2.06,1.86v30c0,1.24,0.69,1.86,2.06,1.86H2397.9z M2270.47,1341.92
			c-0.14,1.24,0.48,1.86,1.86,1.86h38.56c1.37,0,2.06-0.62,2.06-1.86v-30c0-1.24-0.69-1.86-2.06-1.86h-38.56
			c-1.37,0-1.99,0.62-1.86,1.86V1341.92z"/>
		<path d="M2557.28,1235.54c0.96-2.24,2.54-4.04,4.74-5.4c2.2-1.37,4.6-2.05,7.22-2.05c2.75,0,5.26,0.65,7.53,1.96
			c2.27,1.3,3.95,3.07,5.05,5.31c9.76,17.89,20.89,32.6,33.4,44.15c2.06,1.86,3.23,4.04,3.51,6.52c0.14,0.5,0.21,0.99,0.21,1.49
			c0,2.11-0.62,4.04-1.86,5.78c-1.37,1.99-3.3,3.17-5.77,3.54c-0.41,0-0.82,0-1.24,0c-1.93,0-3.64-0.68-5.15-2.05
			c-13.33-13.04-24.74-28.75-34.23-47.14c-0.14-0.25-0.38-0.37-0.72-0.37c-0.34,0-0.59,0.12-0.72,0.37
			c-6.46,13.79-14.64,26.58-24.54,38.38c-0.14,0.37-0.14,0.71,0,1.02c0.14,0.31,0.41,0.47,0.82,0.47h44.54
			c2.2,0,4.05,0.71,5.57,2.14c1.51,1.43,2.27,3.14,2.27,5.12c0,1.99-0.76,3.7-2.27,5.12c-1.51,1.43-3.37,2.14-5.57,2.14h-35.26
			c-3.58,0-6.6-1.12-9.07-3.35c-2.47-2.24-3.71-4.91-3.71-8.01c0-0.25-0.1-0.4-0.31-0.47c-0.21-0.06-0.38-0.03-0.52,0.09
			c-2.06,2.24-4.12,4.41-6.19,6.52c-1.65,1.61-3.64,2.2-5.98,1.77c-2.34-0.43-4.19-1.58-5.57-3.45c-0.41-0.75-0.9-1.49-1.44-2.24
			c-1.1-1.37-1.55-2.86-1.34-4.47c0.21-1.61,0.93-3.04,2.17-4.29c0-0.12-0.03-0.25-0.1-0.37c-0.07-0.12-0.17-0.19-0.31-0.19h-88.46
			c-2.06,0-3.85-0.68-5.36-2.05c-1.51-1.37-2.27-3.01-2.27-4.94c0-1.93,0.72-3.57,2.17-4.94s3.26-2.05,5.46-2.05h4.74
			c0.96,0,1.44-0.43,1.44-1.3v-22.54c0-1.99,0.75-3.66,2.27-5.03c1.51-1.37,3.33-2.05,5.46-2.05c2.13,0,3.95,0.68,5.46,2.05
			c1.51,1.37,2.27,3.04,2.27,5.03v21.98c0,1.24,0.69,1.86,2.06,1.86h10.1c1.37,0,2.06-0.62,2.06-1.86v-32.04
			c0-1.99,0.86-3.73,2.58-5.22c1.72-1.49,3.68-2.24,5.88-2.24c2.2,0,4.12,0.75,5.77,2.24c1.65,1.49,2.47,3.23,2.47,5.22v6.52
			c0,1.12,0.55,1.68,1.65,1.68h23.92c2.06,0,3.81,0.65,5.26,1.96c1.44,1.3,2.17,2.89,2.17,4.75s-0.72,3.45-2.17,4.75
			c-1.44,1.3-3.2,1.96-5.26,1.96h-23.51c-1.37,0-2.06,0.62-2.06,1.86v8.57c0,1.24,0.69,1.86,2.06,1.86h25.57
			c3.16,0,5.88,1.02,8.14,3.07s3.4,4.5,3.4,7.36c0,0.12,0.14,0.25,0.41,0.37c0.27,0.12,0.48,0.12,0.62,0
			C2539.27,1267.9,2549.45,1252.93,2557.28,1235.54z M2503.05,1314.72c0.14,0.25,0.38,0.31,0.72,0.19c0.34-0.12,0.52-0.31,0.52-0.56
			v-18.63c0-1.86,0.72-3.42,2.17-4.66c1.44-1.24,3.16-1.86,5.15-1.86c1.99,0,3.68,0.62,5.05,1.86c1.37,1.24,2.06,2.79,2.06,4.66
			v96.88c0,1.86-0.69,3.42-2.06,4.66c-1.37,1.24-3.06,1.86-5.05,1.86c-1.99,0-3.71-0.62-5.15-1.86s-2.17-2.79-2.17-4.66
			c0-0.62-0.28-0.93-0.82-0.93h-54.85c-0.82,0-1.24,0.37-1.24,1.12v2.24c0,1.86-0.69,3.42-2.06,4.66c-1.37,1.24-3.02,1.86-4.95,1.86
			c-1.93,0-3.58-0.62-4.95-1.86c-1.37-1.24-2.06-2.79-2.06-4.66v-99.49c0-1.74,0.69-3.23,2.06-4.47c1.37-1.24,3.02-1.86,4.95-1.86
			c1.92,0,3.57,0.62,4.95,1.86c1.37,1.24,2.06,2.73,2.06,4.47v19.19c0,0.37,0.21,0.62,0.62,0.75c0.41,0.12,0.69,0.06,0.82-0.19
			c4.67-5.09,7.84-12.3,9.48-21.61c0.14-1.37,0.79-2.45,1.96-3.26c1.17-0.81,2.47-1.15,3.92-1.02c1.44,0.12,2.61,0.71,3.51,1.77
			c0.89,1.06,1.2,2.2,0.93,3.45c-0.41,2.73-0.96,5.09-1.65,7.08c-0.14,0.87,0.14,1.68,0.82,2.42c2.61,2.73,4.74,4.91,6.39,6.52
			c0.27,0.37,0.65,0.56,1.13,0.56c0.48,0,0.86-0.19,1.13-0.56c3.16-4.47,5.5-10.06,7.01-16.77c0.27-1.37,1.03-2.45,2.27-3.26
			c1.24-0.81,2.58-1.12,4.02-0.93c1.44,0.19,2.58,0.81,3.4,1.86c0.82,1.06,1.1,2.2,0.82,3.45c-0.55,2.24-1.17,4.47-1.86,6.71
			c-0.28,0.87-0.07,1.68,0.62,2.42C2497.42,1308.45,2500.85,1311.99,2503.05,1314.72z M2472.13,1318.26c-0.28-0.12-0.48-0.12-0.62,0
			c-0.69,0.62-1.44,0.87-2.27,0.75c-0.82-0.12-1.51-0.5-2.06-1.12c-1.24-1.61-2.47-3.04-3.71-4.29c-0.41-0.5-0.76-0.5-1.03,0
			c-0.82,1.74-1.79,3.42-2.89,5.03c-1.24,1.61-3.02,2.45-5.36,2.52c-2.34,0.06-4.33-0.59-5.98-1.96c-0.14-0.12-0.31-0.16-0.52-0.09
			c-0.21,0.06-0.31,0.22-0.31,0.47v4.47c0,1.24,0.69,1.86,2.06,1.86h52.79c1.37,0,2.06-0.62,2.06-1.86v-5.96
			c0-0.12-0.1-0.22-0.31-0.28c-0.21-0.06-0.38-0.03-0.52,0.09c-1.51,1.49-3.44,2.14-5.77,1.96c-2.34-0.19-4.19-1.15-5.57-2.89
			c-0.96-1.24-2.06-2.48-3.3-3.73c-0.69-0.75-1.31-0.68-1.86,0.19c-1.1,1.74-2.27,3.42-3.51,5.03c-1.37,1.49-3.13,2.24-5.26,2.24
			c-2.13,0-4.02-0.68-5.67-2.05C2472.26,1318.51,2472.13,1318.39,2472.13,1318.26z M2483.88,1345.46c0.27-1.24,0.96-2.27,2.06-3.07
			c1.1-0.81,2.37-1.15,3.81-1.02c1.44,0.12,2.61,0.71,3.51,1.77c0.89,1.06,1.2,2.2,0.93,3.45c-0.55,2.48-1.17,4.91-1.86,7.27
			c-0.41,0.87-0.21,1.61,0.62,2.24c3.99,3.85,7.35,7.33,10.1,10.43c0.14,0.25,0.38,0.34,0.72,0.28c0.34-0.06,0.52-0.28,0.52-0.65
			v-25.52c0-1.24-0.69-1.86-2.06-1.86h-52.79c-1.37,0-2.06,0.62-2.06,1.86v26.46c0,0.25,0.21,0.43,0.62,0.56
			c0.41,0.12,0.69,0.06,0.82-0.19c4.54-5.09,7.63-12.42,9.28-21.98c0.27-1.24,1-2.27,2.17-3.07c1.17-0.81,2.47-1.15,3.92-1.02
			c1.44,0.12,2.61,0.68,3.51,1.68c0.89,0.99,1.2,2.17,0.93,3.54c-0.41,2.73-0.96,5.15-1.65,7.27c-0.14,0.87,0.14,1.61,0.82,2.24
			c2.47,2.48,4.74,4.91,6.8,7.27c0.27,0.37,0.65,0.56,1.13,0.56c0.48,0,0.86-0.19,1.13-0.56
			C2480.3,1358.38,2482.64,1352.42,2483.88,1345.46z M2447.38,1376.95c0,1.24,0.69,1.86,2.06,1.86h52.79c1.37,0,2.06-0.62,2.06-1.86
			v-5.78c0-0.12-0.07-0.22-0.21-0.28c-0.14-0.06-0.28-0.03-0.41,0.09c-1.51,1.37-3.33,1.99-5.46,1.86
			c-2.13-0.12-3.81-0.99-5.05-2.61c-1.51-1.74-2.96-3.35-4.33-4.84c-0.69-0.75-1.31-0.68-1.86,0.19c-1.1,1.99-2.34,3.79-3.71,5.4
			c-1.1,1.49-2.75,2.27-4.95,2.33c-2.2,0.06-4.06-0.59-5.57-1.96c-0.14-0.12-0.21-0.25-0.21-0.37c-0.28-0.12-0.48-0.12-0.62,0
			c-0.55,0.5-1.24,0.71-2.06,0.65s-1.51-0.4-2.06-1.02c-1.24-1.61-2.61-3.29-4.12-5.03c-0.55-0.5-0.96-0.43-1.24,0.19
			c-0.96,1.74-1.99,3.35-3.09,4.84c-1.24,1.74-2.99,2.64-5.26,2.7s-4.23-0.59-5.88-1.96c-0.14-0.12-0.31-0.16-0.52-0.09
			c-0.21,0.06-0.31,0.16-0.31,0.28V1376.95z M2592.54,1316.77c4.95,0,9.18,1.58,12.68,4.75c3.51,3.17,5.26,6.99,5.26,11.46v34.65
			c0,3.97-0.52,7.08-1.55,9.32c-1.03,2.24-2.92,3.97-5.67,5.22c-1.93,0.99-4.26,1.68-7.01,2.05c-2.75,0.37-6.19,0.56-10.31,0.56
			h-0.21c-2.47,0-4.61-0.68-6.39-2.05c-2.06-1.49-3.44-3.35-4.12-5.59c-0.69-1.86-0.45-3.57,0.72-5.12
			c1.17-1.55,2.78-2.33,4.85-2.33c3.02,0.12,6.05,0.19,9.07,0.19c1.1-0.12,1.86-0.34,2.27-0.65s0.62-0.96,0.62-1.96v-32.98
			c0-1.24-0.69-1.86-2.06-1.86h-20.62c-1.37,0-2.06,0.62-2.06,1.86v60.74c0,2.24-0.82,4.13-2.47,5.68
			c-1.65,1.55-3.71,2.33-6.19,2.33c-2.47,0-4.57-0.78-6.29-2.33c-1.72-1.55-2.58-3.45-2.58-5.68v-60.74c0-1.24-0.69-1.86-2.06-1.86
			h-14.02c-2.34,0-4.36-0.78-6.08-2.33c-1.72-1.55-2.58-3.38-2.58-5.5s0.86-3.94,2.58-5.5c1.72-1.55,3.74-2.33,6.08-2.33H2592.54z"
			/>
		<path d="M2746.98,1282.12c-3.44,2.98-7.63,4.47-12.58,4.47c-4.95,0-9.14-1.49-12.58-4.47c-3.44-2.98-5.15-6.77-5.15-11.36
			c0-4.6,1.72-8.41,5.15-11.46c3.43-3.04,7.63-4.56,12.58-4.56c4.95,0,9.14,1.52,12.58,4.56c3.43,3.04,5.15,6.86,5.15,11.46
			C2752.13,1275.35,2750.41,1279.14,2746.98,1282.12z M2746.98,1374.53c-3.44,2.98-7.63,4.47-12.58,4.47
			c-4.95,0-9.14-1.49-12.58-4.47c-3.44-2.98-5.15-6.71-5.15-11.18c0-4.72,1.72-8.57,5.15-11.55c3.43-2.98,7.63-4.47,12.58-4.47
			c4.95,0,9.14,1.49,12.58,4.47c3.43,2.98,5.15,6.83,5.15,11.55C2752.13,1367.82,2750.41,1371.55,2746.98,1374.53z"/>
		<path d="M2896.47,1390.55c-16.63,0-31.14-4.29-43.51-12.86c-2.2-1.49-3.37-3.54-3.51-6.15c-0.14-0.25-0.21-0.56-0.21-0.93
			c0-2.11,0.75-4.04,2.27-5.78c1.51-1.86,3.57-2.92,6.19-3.17c0.27,0,0.62,0,1.03,0c2.2,0,4.19,0.62,5.98,1.86
			c8.66,6.09,18.28,9.13,28.87,9.13c8.93,0,16.32-2.7,22.17-8.1c5.84-5.4,8.76-12.7,8.76-21.89c0-9.19-2.68-16.36-8.04-21.52
			c-5.36-5.15-12.58-7.73-21.65-7.73c-6.46,0-12.72,1.55-18.76,4.66c-2.06,0.99-4.06,1.49-5.98,1.49c-2.06,0-4.06-0.56-5.98-1.68
			c-3.99-2.36-5.84-5.71-5.57-10.06l3.09-43.97c0.27-4.47,2.27-8.29,5.98-11.46c3.71-3.17,8.11-4.75,13.2-4.75h50.52
			c2.75,0,5.15,0.9,7.22,2.7c2.06,1.8,3.09,4.01,3.09,6.61s-1.03,4.81-3.09,6.61c-2.06,1.8-4.47,2.7-7.22,2.7h-45.36
			c-1.37,0-2.13,0.62-2.27,1.86l-3.3,32.23c0,0.37,0.21,0.68,0.62,0.93c0.41,0.25,0.75,0.31,1.03,0.19
			c6.46-2.73,12.99-4.1,19.59-4.1c13.88,0,25.22,3.76,34.02,11.27c8.8,7.51,13.2,18.6,13.2,33.26c0,10.06-2.47,18.85-7.42,26.36
			c-4.95,7.51-11.34,13.1-19.18,16.77C2914.41,1388.72,2905.82,1390.55,2896.47,1390.55z"/>
		<path d="M3064.51,1333.35c2.61,0,4.85,0.84,6.7,2.52c1.86,1.68,2.78,3.7,2.78,6.05s-0.93,4.35-2.78,5.96
			c-1.86,1.61-4.09,2.42-6.7,2.42h-8.25c-1.37,0-2.06,0.62-2.06,1.86v25.71c0,2.86-1.13,5.28-3.4,7.27
			c-2.27,1.99-4.95,2.98-8.04,2.98s-5.77-0.99-8.04-2.98c-2.27-1.99-3.4-4.41-3.4-7.27v-25.71c0-1.24-0.69-1.86-2.06-1.86h-56.91
			c-2.2,0-4.12-0.71-5.77-2.14c-1.65-1.43-2.47-3.14-2.47-5.12c0-4.97,1.51-9.5,4.54-13.6l49.9-70.98c2.34-3.35,5.43-5.99,9.28-7.92
			c3.85-1.93,7.97-2.89,12.37-2.89c3.85,0,7.15,1.24,9.9,3.73c2.75,2.48,4.12,5.46,4.12,8.94v71.17c0,1.24,0.69,1.86,2.06,1.86
			H3064.51z M2989.87,1331.86c-0.28,0.25-0.31,0.56-0.1,0.93c0.21,0.37,0.58,0.56,1.13,0.56h38.35c1.37,0,2.06-0.62,2.06-1.86
			v-35.03c0-2.98,0.41-11.86,1.24-26.64c0-0.25-0.14-0.37-0.41-0.37c-0.28,0-0.48,0.12-0.62,0.37c-3.44,6.46-7.49,13.54-12.17,21.24
			L2989.87,1331.86z"/>
	</g>
	<g>
		<path d="M2229.64,1593.37c-0.55,1.86-1.79,3.23-3.71,4.1c-1.93,0.87-3.89,0.99-5.88,0.37c-1.99-0.62-3.47-1.8-4.43-3.54
			c-0.69-1.12-1.03-2.24-1.03-3.35c0-0.75,0.14-1.43,0.41-2.05c3.3-10.56,5.77-22.61,7.42-36.14c0.27-1.74,1.17-3.17,2.68-4.29
			c1.51-1.12,3.23-1.49,5.15-1.12c2.06,0.25,3.71,1.09,4.95,2.52s1.78,3.01,1.65,4.75
			C2235.35,1568.78,2232.94,1581.7,2229.64,1593.37z M2356.04,1660.26c0,1.24,0.69,1.86,2.06,1.86h39.79c2.47,0,4.64,0.81,6.5,2.42
			s2.78,3.6,2.78,5.96s-0.93,4.35-2.78,5.96c-1.86,1.61-4.02,2.42-6.5,2.42h-110.93c-2.61,0-4.81-0.81-6.6-2.42
			c-1.79-1.61-2.68-3.6-2.68-5.96s0.89-4.35,2.68-5.96c1.78-1.61,3.99-2.42,6.6-2.42h47.42c1.37,0,2.06-0.62,2.06-1.86v-39.5
			c0-1.24-0.69-1.86-2.06-1.86h-31.75c-2.47,0-4.61-0.84-6.39-2.52c-1.79-1.68-2.68-3.63-2.68-5.87s0.93-4.19,2.78-5.87
			s3.95-2.52,6.29-2.52h31.75c1.37,0,2.06-0.62,2.06-1.86v-32.04c0-1.24-0.69-1.86-2.06-1.86h-23.3c-1.37,0-2.34,0.56-2.89,1.68
			c-2.47,6.71-5.23,12.92-8.25,18.63c-1.1,2.11-2.96,3.54-5.57,4.29c-0.96,0.12-1.93,0.19-2.89,0.19c-1.51,0-3.02-0.31-4.54-0.93
			c-2.34-1.12-3.92-2.79-4.74-5.03c-0.28-0.87-0.41-1.74-0.41-2.61c0-1.37,0.34-2.67,1.03-3.91c0.82-1.49,1.58-2.92,2.27-4.29
			c0.14-0.25,0.14-0.43,0-0.56c-0.14-0.12-0.34-0.12-0.62,0c-1.37,0.5-2.82,0.75-4.33,0.75c-1.24,0-2.55-0.25-3.92-0.75
			c-2.75-1.12-4.67-2.98-5.77-5.59c-2.2-5.59-5.02-11.61-8.45-18.07c0-0.25-0.14-0.34-0.41-0.28c-0.28,0.06-0.41,0.22-0.41,0.47
			v125.94c0,2.48-0.96,4.6-2.89,6.33c-1.93,1.74-4.23,2.61-6.91,2.61s-4.98-0.87-6.91-2.61c-1.93-1.74-2.89-3.85-2.89-6.33v-157.24
			c0-2.36,0.96-4.41,2.89-6.15c1.92-1.74,4.23-2.61,6.91-2.61s4.98,0.87,6.91,2.61c1.92,1.74,2.89,3.79,2.89,6.15v25.34
			c0,0.25,0.14,0.47,0.41,0.65c0.27,0.19,0.55,0.22,0.82,0.09c1.65-0.62,3.37-0.93,5.15-0.93c1.51,0,3.02,0.25,4.54,0.75
			c3.16,1.12,5.5,3.04,7.01,5.78c3.43,6.71,5.98,12.42,7.63,17.14c0.14,0.25,0.38,0.37,0.72,0.37c0.34,0,0.58-0.12,0.72-0.37
			c4.95-11.68,8.87-25.09,11.75-40.24c0.41-2.48,1.72-4.41,3.92-5.78c1.65-1.12,3.43-1.68,5.36-1.68c0.55,0,1.1,0.06,1.65,0.19
			c2.75,0.37,4.88,1.55,6.39,3.54c1.24,1.49,1.86,3.11,1.86,4.84c0,0.5-0.07,1.06-0.21,1.68c-1.1,5.22-2.47,10.99-4.12,17.33
			c-0.14,0.5-0.07,0.93,0.21,1.3c0.27,0.37,0.69,0.56,1.24,0.56h18.14c1.37,0,2.06-0.62,2.06-1.86v-27.76c0-2.48,0.96-4.6,2.89-6.33
			c1.92-1.74,4.23-2.61,6.91-2.61c2.68,0,4.98,0.87,6.91,2.61c1.92,1.74,2.89,3.85,2.89,6.33v27.76c0,1.24,0.69,1.86,2.06,1.86
			h34.23c2.61,0,4.81,0.81,6.6,2.42c1.78,1.61,2.68,3.6,2.68,5.96s-0.9,4.35-2.68,5.96c-1.79,1.61-3.99,2.42-6.6,2.42h-34.23
			c-1.37,0-2.06,0.62-2.06,1.86v32.04c0,1.24,0.69,1.86,2.06,1.86h29.69c2.61,0,4.81,0.84,6.6,2.52c1.78,1.68,2.68,3.63,2.68,5.87
			s-0.9,4.19-2.68,5.87c-1.79,1.68-3.99,2.52-6.6,2.52h-29.69c-1.37,0-2.06,0.62-2.06,1.86V1660.26z"/>
		<path d="M2477.49,1598.78c0,0.5,0.17,0.93,0.52,1.3c0.34,0.37,0.79,0.56,1.34,0.56h26.19c4.95,0,9.14,1.61,12.58,4.84
			c3.16,2.98,4.74,6.52,4.74,10.62c0,13.66-1.24,28.57-3.71,44.71c-1.37,8.82-3.37,14.59-5.98,17.33c-1.79,2.11-3.78,3.57-5.98,4.38
			c-2.2,0.81-5.02,1.4-8.45,1.77c-3.02,0.37-7.42,0.56-13.2,0.56c-0.96,0-1.99,0-3.09,0c-2.61,0-4.88-0.81-6.8-2.42
			c-1.93-1.61-3.3-3.6-4.12-5.96c-0.55-1.74-0.28-3.32,0.82-4.75c1.1-1.43,2.61-2.14,4.54-2.14c3.99,0.25,8.45,0.37,13.4,0.37
			c3.57,0,5.91-0.68,7.01-2.05c3.3-3.23,5.7-19.75,7.22-49.56c0.14-0.5,0-0.93-0.41-1.3c-0.41-0.37-0.9-0.56-1.44-0.56h-25.36
			c-1.37,0-2.13,0.62-2.27,1.86c-5.09,26.95-14.92,47.38-29.49,61.29c-1.65,1.37-3.64,2.05-5.98,2.05c-0.28,0-0.48,0-0.62,0
			c-2.47-0.25-4.67-1.24-6.6-2.98c-1.79-1.61-2.68-3.6-2.68-5.96c0-2.11,0.75-3.97,2.27-5.59c5.22-4.97,9.62-10.68,13.2-17.14
			c3.57-6.46,6.29-13.57,8.14-21.33s3.23-14.94,4.12-21.52c0.89-6.58,1.62-14.22,2.17-22.92c0-0.5-0.17-0.93-0.52-1.3
			c-0.34-0.37-0.79-0.56-1.34-0.56h-2.06c-4.95,0-9.18-1.58-12.68-4.75c-3.51-3.17-5.26-6.99-5.26-11.46v-30.93
			c0-4.47,1.75-8.29,5.26-11.46c3.51-3.17,7.73-4.75,12.68-4.75h48.46c4.95,0,9.18,1.58,12.68,4.75c3.51,3.17,5.26,6.99,5.26,11.46
			v30.93c0,4.47-1.75,8.29-5.26,11.46c-3.51,3.17-7.73,4.75-12.68,4.75h-23.09c-1.37,0-2.13,0.62-2.27,1.86
			C2478.31,1590.46,2477.9,1595.3,2477.49,1598.78z M2457.69,1534.69c-1.37,0-2.06,0.62-2.06,1.86v28.32c0,1.24,0.69,1.86,2.06,1.86
			h43.3c1.37,0,2.06-0.62,2.06-1.86v-28.32c0-1.24-0.69-1.86-2.06-1.86H2457.69z M2543.57,1535.71c1.86-1.68,4.09-2.52,6.7-2.52
			c2.61,0,4.85,0.84,6.7,2.52s2.78,3.7,2.78,6.05v88.12c0,2.36-0.93,4.38-2.78,6.06c-1.86,1.68-4.09,2.52-6.7,2.52
			c-2.61,0-4.85-0.84-6.7-2.52c-1.86-1.68-2.78-3.7-2.78-6.06v-88.12C2540.79,1539.41,2541.72,1537.39,2543.57,1535.71z
			 M2591.3,1522.95c0-2.48,0.96-4.6,2.89-6.33c1.92-1.74,4.23-2.61,6.91-2.61c2.68,0,4.98,0.87,6.91,2.61
			c1.92,1.74,2.89,3.85,2.89,6.33v139.92c0,5.46-0.79,9.66-2.37,12.58c-1.58,2.92-4.23,5.25-7.94,6.99
			c-5.64,1.86-15.33,2.86-29.07,2.98h-0.21c-3.02,0-5.77-0.9-8.25-2.7c-2.47-1.8-4.19-4.01-5.15-6.61
			c-0.28-0.75-0.41-1.49-0.41-2.24c0-1.24,0.41-2.42,1.24-3.54c1.37-1.86,3.23-2.79,5.57-2.79h0.21c2.75,0.12,9.83,0.19,21.24,0.19
			c2.06-0.12,3.51-0.53,4.33-1.21c0.82-0.68,1.24-1.89,1.24-3.63V1522.95z"/>
		<path d="M2746.98,1564.31c-3.44,2.98-7.63,4.47-12.58,4.47c-4.95,0-9.14-1.49-12.58-4.47c-3.44-2.98-5.15-6.77-5.15-11.36
			s1.72-8.41,5.15-11.46c3.43-3.04,7.63-4.56,12.58-4.56c4.95,0,9.14,1.52,12.58,4.56c3.43,3.04,5.15,6.86,5.15,11.46
			S2750.41,1561.33,2746.98,1564.31z M2746.98,1656.72c-3.44,2.98-7.63,4.47-12.58,4.47c-4.95,0-9.14-1.49-12.58-4.47
			c-3.44-2.98-5.15-6.71-5.15-11.18c0-4.72,1.72-8.57,5.15-11.55c3.43-2.98,7.63-4.47,12.58-4.47c4.95,0,9.14,1.49,12.58,4.47
			c3.43,2.98,5.15,6.83,5.15,11.55C2752.13,1650.01,2750.41,1653.74,2746.98,1656.72z"/>
		<path d="M3008.43,1614.43c4.95,0,9,1.61,12.17,4.84c3.02,2.73,4.47,5.9,4.33,9.5c0,0.62-0.07,1.24-0.21,1.86
			c-1.65,14.41-3.54,25.31-5.67,32.7c-2.13,7.39-4.85,12.45-8.14,15.18c-3.99,3.48-10.1,5.53-18.35,6.15
			c-2.34,0.12-5.36,0.19-9.07,0.19c-3.99,0-8.73-0.06-14.23-0.19c-2.75-0.12-5.15-0.99-7.22-2.61c-2.06-1.61-3.58-3.66-4.54-6.15
			c-0.69-1.74-0.48-3.38,0.62-4.94c1.1-1.55,2.68-2.27,4.74-2.14c8.11,0.37,15.67,0.56,22.68,0.56c4.4,0,7.42-0.62,9.07-1.86
			c4.12-3.35,7.49-15.15,10.1-35.4c0-0.5-0.17-0.93-0.52-1.3c-0.34-0.37-0.79-0.56-1.34-0.56h-57.11c-1.37,0-2.34,0.56-2.89,1.68
			c-5.23,12.3-13.61,22.67-25.16,31.11c-11.55,8.45-27.84,15.15-48.87,20.12c-0.96,0.25-1.93,0.37-2.89,0.37
			c-1.65,0-3.3-0.37-4.95-1.12c-2.61-1.12-4.67-2.79-6.19-5.03c-0.69-1.12-1.03-2.24-1.03-3.35c0-0.75,0.14-1.49,0.41-2.24
			c0.69-1.99,2.13-3.17,4.33-3.54c17.18-3.73,30.65-8.6,40.41-14.63c9.76-6.02,17.11-13.26,22.06-21.7c0.14-0.37,0.1-0.75-0.1-1.12
			c-0.21-0.37-0.59-0.56-1.13-0.56h-55.05c-2.34,0-4.36-0.78-6.08-2.33c-1.72-1.55-2.58-3.42-2.58-5.59s0.86-4.04,2.58-5.59
			c1.72-1.55,3.74-2.33,6.08-2.33h61.24c1.37,0,2.2-0.62,2.47-1.86c0.69-2.98,1.44-7.14,2.27-12.48c0.14-0.5,0-0.93-0.41-1.3
			c-0.41-0.37-0.9-0.56-1.44-0.56h-39.18c-4.95,0-9.18-1.58-12.68-4.75c-3.51-3.17-5.26-6.99-5.26-11.46v-45.64
			c0-4.47,1.75-8.29,5.26-11.46c3.51-3.17,7.73-4.75,12.68-4.75h111.76c4.95,0,9.18,1.58,12.68,4.75c3.51,3.17,5.26,6.99,5.26,11.46
			v45.64c0,4.47-1.75,8.29-5.26,11.46s-7.73,4.75-12.68,4.75h-47.63c-1.37,0-2.2,0.62-2.47,1.86c-0.55,3.73-1.31,7.89-2.27,12.48
			c-0.14,0.5,0,0.93,0.41,1.3c0.41,0.37,0.82,0.56,1.24,0.56H3008.43z M2893.38,1535.06c-1.37,0-2.06,0.62-2.06,1.86v13.23
			c0,1.24,0.69,1.86,2.06,1.86h39.38c1.37,0,2.06-0.62,2.06-1.86v-13.23c0-1.24-0.69-1.86-2.06-1.86H2893.38z M2893.38,1565.99
			c-1.37,0-2.06,0.62-2.06,1.86v13.79c0,1.24,0.69,1.86,2.06,1.86h39.38c1.37,0,2.06-0.62,2.06-1.86v-13.79
			c0-1.24-0.69-1.86-2.06-1.86H2893.38z M2996.88,1552.01c1.37,0,2.06-0.62,2.06-1.86v-13.23c0-1.24-0.69-1.86-2.06-1.86h-40.21
			c-1.37,0-2.06,0.62-2.06,1.86v13.23c0,1.24,0.69,1.86,2.06,1.86H2996.88z M2996.88,1583.5c1.37,0,2.06-0.62,2.06-1.86v-13.79
			c0-1.24-0.69-1.86-2.06-1.86h-40.21c-1.37,0-2.06,0.62-2.06,1.86v13.79c0,1.24,0.69,1.86,2.06,1.86H2996.88z"/>
	</g>
</g>
</svg>
