<?xml version="1.0" encoding="utf-8"?>
<!-- Generator: Adobe Illustrator 23.0.5, SVG Export Plug-In . SVG Version: 6.00 Build 0)  -->
<svg version="1.1" id="圖層_1" xmlns="http://www.w3.org/2000/svg" xmlns:xlink="http://www.w3.org/1999/xlink" x="0px" y="0px"
	 viewBox="0 0 3840 2160" style="enable-background:new 0 0 3840 2160;" xml:space="preserve">
<style type="text/css">
	.st0{fill:#FDFAEC;}
	.st1{fill:#FBC990;}
	.st2{fill:#261630;}
	.st3{fill:#FBFDFB;}
	.st4{fill:#522537;}
	.st5{fill:#FCFBF7;}
	.st6{fill:#F7C485;stroke:#CD7D58;stroke-miterlimit:10;}
	.st7{fill:#FC9F72;}
	.st8{fill:#C57B52;}
	.st9{fill:#2A182D;}
	.st10{fill:#F5F6D4;}
	.st11{fill:#D07C54;}
	.st12{fill:#D8B564;}
	.st13{fill:#CBAB52;}
	.st14{fill:#8AC9FE;stroke:#151ABC;stroke-width:4;stroke-miterlimit:10;}
	.st15{fill:#8D9CA8;stroke:#000000;stroke-miterlimit:10;}
</style>
<g>
	<g>
		<path class="st0" d="M1652.96,1894.25c-35.4-173.32-71.24-197.8-86.56-276.21c-1.33-6.79-4.98-26.69-21.99-43.72
			c-19.72-19.74-47.49-25.73-65.98-27.82c-158.36-1.32-316.71-2.65-475.07-3.97c-18.08,6.23-42.69,17.72-61.58,39.75
			c-14.38,16.76-19.84,33.08-21.99,39.75c-74.54,230.44-79.18,258.34-79.18,258.34c-0.61,3.69-1.23,7.42-1.85,11.13
			C1109.97,1902.23,1381.83,1909.25,1652.96,1894.25z"/>
		<g>
			<path class="st1" d="M1358.45,1681.64h-217.52c-17.67,0-32-14.33-32-32v-103.13h281.52v103.13
				C1390.45,1667.31,1376.12,1681.64,1358.45,1681.64z"/>
			<path class="st1" d="M1737.95,1224.57c-58.49,207.38-268.67,343.64-479.46,357.71c-43.6,2.91-227.66,9.96-378.29-115.26
				c-13.11-10.9-156.25-133.61-158.36-317.96c-3-261.86,280.05-517.52,567.44-504.76c168.88,7.49,284.21,105.23,316.71,135.13
				C1732.5,895.79,1782.17,1067.78,1737.95,1224.57z"/>
			<path class="st1" d="M1861.12,1280.21c-26.89,85.87-180.91,113.33-215.54,79.49c-16.94-16.55-3.96-53.43,21.99-127.18
				c26.75-76.02,40.13-114.03,65.98-119.24C1783.55,1103.22,1886.84,1198.09,1861.12,1280.21z"/>
			<path class="st1" d="M573.1,1300.09c28.28,83.08,182.35,112.72,215.54,79.49c12.9-12.92,1.82-29.62-21.99-127.18
				c-26.43-108.27-22.92-129.19-40.4-135.13C680.09,1101.57,541.96,1208.61,573.1,1300.09z"/>
			<path class="st2" d="M1100.13,831.09c-29.91,2.95-79.65,11.53-131.96,39.75c-33.87,18.27-58.32,39.11-74.78,55.64
				c7.33,14.57,14.66,29.15,21.99,43.72c17.14-13.46,49.55-35.33,96.77-47.69c40.45-10.59,75.3-9.89,96.77-7.95
				C1106,886.74,1103.06,858.91,1100.13,831.09z"/>
			<path class="st2" d="M1359.66,831.09c24.55-1.12,83.9-0.78,145.16,31.8c44.15,23.48,70.32,53.61,83.58,71.54
				c-5.87,11.92-11.73,23.85-17.6,35.77c-26.18-15.68-67.81-36.37-123.17-47.69c-37.87-7.75-71.25-8.89-96.77-7.95
				C1353.79,886.74,1356.73,858.91,1359.66,831.09z"/>
			<path class="st3" d="M1113.33,1184.82c-48.39,2.65-96.77,5.3-145.16,7.95c-11.28-14.54-27.32-40.12-30.79-74.38
				c-5.2-51.25,22.83-90.35,38.38-108.99c12.01-14.4,29.4-23.88,48.62-26.47c0.2-0.03,0.41-0.05,0.61-0.08
				c25.23-3.4,50.83,5.25,67.39,23.55c22.06,24.38,39.35,65.68,37.19,111.99C1128.86,1133.26,1125.84,1157,1113.33,1184.82z"/>
			<path class="st3" d="M1526.81,1188.8c-57.18,0-114.37,0-171.55,0c-11.23-29.51-13.22-54.42-13.2-70.41
				c0.06-43.29,17.62-84.11,38.38-108.99c12.01-14.4,29.4-23.88,48.62-26.47c0.2-0.03,0.41-0.05,0.61-0.08
				c25.23-3.4,50.83,5.25,67.39,23.55c30.83,34.07,36.49,88.4,37.19,111.99C1534.75,1135.55,1533.78,1159.88,1526.81,1188.8z"/>
			<path class="st4" d="M1073.74,1216.62c-24.93-1.32-49.85-2.65-74.78-3.97c-8.31-10.81-24.04-34.54-26.39-67.57
				c-2.44-34.27,10.72-61.67,22.01-78.55c8.61-12.88,24.05-21.04,40.7-21.1c2.46-0.01,5.02,0.08,7.67,0.29
				c0.14,0.01,0.28,0.02,0.41,0.03c18.46,1.54,34.13,12.9,40.61,28.59c7.5,18.16,14.48,43.99,11.76,74.71
				C1093.04,1179.48,1081.88,1202.81,1073.74,1216.62z"/>
			<path class="st4" d="M1478.42,1216.62c-24.93-1.32-49.85-2.65-74.78-3.97c-8.31-10.81-24.04-34.54-26.39-67.57
				c-2.44-34.27,10.72-61.67,22.01-78.55c8.61-12.88,24.05-21.04,40.7-21.1c2.46-0.01,5.02,0.08,7.67,0.29
				c0.14,0.01,0.28,0.02,0.41,0.03c18.46,1.54,34.13,12.9,40.61,28.59c7.5,18.16,14.48,43.99,11.76,74.71
				C1497.72,1179.48,1486.56,1202.81,1478.42,1216.62z"/>
			<ellipse class="st5" cx="1027.55" cy="1085.46" rx="24.19" ry="23.85"/>
			<ellipse class="st5" cx="1436.64" cy="1083.47" rx="24.19" ry="21.86"/>
			<ellipse class="st6" cx="1236.49" cy="1242.46" rx="83.58" ry="69.55"/>
			<ellipse class="st7" cx="961.57" cy="1250.4" rx="76.98" ry="49.68"/>
			<ellipse class="st7" cx="1535.61" cy="1240.47" rx="70.38" ry="55.64"/>
			<g>
				<g>
					<path class="st8" d="M1088.42,1382.69c21.82,12.98,46.8,19.35,71.75,22.88c26.71,3.79,53.94,5.24,80.9,5
						c27.83-0.25,55.75-2.81,82.91-9.06c23.49-5.4,46.39-13.69,67.51-25.36c20.16-11.14,38.8-25.46,53.61-43.18
						c1.74-2.08,3.42-4.2,5.05-6.36c1.17-1.54-1.44-3.04-2.59-1.51c-13.65,18.05-31.27,32.81-50.61,44.44
						c-20.14,12.11-42.17,20.94-64.88,26.9c-26.46,6.94-53.77,10.15-81.08,10.95c-26.88,0.79-53.98-0.43-80.69-3.51
						c-24.8-2.85-49.92-7.96-72.34-19.35c-2.73-1.38-5.4-2.86-8.03-4.43C1088.27,1379.11,1086.76,1381.7,1088.42,1382.69
						L1088.42,1382.69z"/>
				</g>
			</g>
			<g>
				<path class="st9" d="M1587.4,853.92c20.51,17.21,37.65,37.68,50.4,60.2c1.99,3.51,4.41,7.47,8.67,8.32
					c4.82,0.96,9.51-2.93,10.67-7.26c1.16-4.33-0.26-8.86-1.77-13.1c-5.73-16.14-13.01-31.83-21.71-46.85
					c-3.47-5.99-8.51-12.65-16-12.76c-11.18-0.16-15.47,13.46-24.92,18.87c11.85,10.23,23.7,20.46,35.55,30.69"/>
			</g>
			<g>
				<path class="st9" d="M1302.47,807.25c-41.6,0.14-98.3-3.59-162.75-19.87c-57.02-14.4-102.83-34.27-136.36-51.67
					c4.4-37.1,8.8-74.19,13.2-111.29c107.04,7.95,214.07,15.9,321.11,23.85C1325.93,701.26,1314.2,754.25,1302.47,807.25z"/>
				<path class="st9" d="M1641.18,866.86c-108.5-19.87-217.01-39.75-325.51-59.62c0-52.99,0-105.99,0-158.98
					c101.17,23.85,202.34,47.69,303.51,71.54C1626.52,768.82,1633.85,817.84,1641.18,866.86z"/>
				<path class="st9" d="M787.82,1252.39c-16.13-26.5-32.26-52.99-48.39-79.49c-8.3-17.52-21.37-51.75-17.6-95.39
					c5.22-60.27,39.31-100.8,52.79-115.26c14.66-21.2,29.32-42.39,43.99-63.59C808.35,1016.57,798.08,1134.48,787.82,1252.39z"/>
				<path class="st9" d="M1645.58,1252.39c16.14-13.5,42.97-39.52,60.91-79.49c18.84-41.96,18.14-77.64,17.59-95.39
					c-1.75-56.69-24.13-99.86-38.92-123.21c-19.06-30.47-38.12-60.94-57.18-91.41C1633.85,992.72,1639.71,1122.56,1645.58,1252.39z"
					/>
				<g>
					<path class="st9" d="M811.05,933.25c54.57-72.12,120.59-137.16,195.41-192.49c6.53-4.83,13.71-10.61,13.84-18.23
						c0.18-10.94-15.18-17.41-26.86-14.55c-11.68,2.86-20.33,11.45-29.15,18.94c-27.18,23.07-61.25,38.43-89.97,59.92
						c-36.59,27.38-63.32,63.77-89.49,99.6c-1.78,2.44-3.62,5.53-2.11,8.11c0.97,1.66,3.03,2.51,4.95,3.24
						c12.23,4.66,24.46,9.32,36.69,13.98"/>
				</g>
			</g>
			<path class="st9" d="M1751.15,1013.92c-20.53-1.32-41.06-2.65-61.58-3.97c-35.19-76.84-70.38-153.68-105.57-230.52
				c33.72,25.17,67.45,50.34,101.17,75.52C1707.16,907.93,1729.15,960.93,1751.15,1013.92z"/>
			<path class="st10" d="M1795.14,942.38c-3.07-108.97-70.38-187.6-101.17-222.57c-96.37-109.48-305.69-248.61-563.04-210.65
				c-81.9,12.08-157.29,40.44-222.88,79.13l39.57-48.56l-35.42-23.57l-60.67,74.45c-45.74-17.53-62.23-21.48-76.9-13.88
				c-1.03,0.53-13.27,7.08-17.6,19.87c-6.21,18.34,6.46,41.84,27.16,59.01c-44.48-2.1-94.78,16.64-97.54,40.35
				c-1.91,16.42,19.04,34.69,47.2,46.67c-50.03,66.93-79.6,139.88-82.39,207.7c-3.16,76.77,26.98,170.95,48.39,170.9
				c14.73-0.03,18.34-44.68,48.39-111.29c38.16-84.6,89.75-139.83,118.77-170.9c45.42-48.63,101.16-108.32,193.55-147.06
				c116.44-48.82,268.72-54.98,400.29,3.97c127.17,56.99,186.98,153.31,202.34,178.85c70.58,117.39,53.39,225.48,79.18,226.55
				C1764.65,1102.29,1797.39,1022.27,1795.14,942.38z"/>
			<g>
				<path class="st11" d="M726.57,1267.3c3.65-8.54-1.66-18.56-9.9-23.9c-8.24-5.33-18.69-6.93-28.78-7.76
					c-13.47-1.1-27.05-1.06-40.51,0.1c-2.73,0.24-5.75,0.45-7.96-1.02c-4.55-3.04-1.47-9.76,2.92-12.98
					c8.7-6.39,20.67-7.98,31.86-7.25c21.1,1.38,42.67,11.56,51.01,29.12c4.82,10.14,4.85,21.53,7.13,32.38
					c4.11,19.52,15.46,37.08,26.63,54.2"/>
				<g>
					<path class="st11" d="M728.01,1267.7c3.5-8.5-1.07-17.92-7.7-23.45c-7.92-6.6-18.59-8.69-28.57-9.74
						c-11.76-1.24-23.67-1.44-35.48-0.86c-3.1,0.15-6.18,0.39-9.27,0.64c-2.2,0.18-4.89,0.49-6.81-0.85
						c-3.5-2.42-0.27-7.45,1.93-9.54c3.37-3.21,8.24-5.11,12.66-6.3c4.85-1.31,9.88-1.79,14.9-1.76c9.44,0.05,18.9,1.89,27.66,5.42
						c8.21,3.32,15.92,8.34,21.58,15.22c6.52,7.91,8.59,17.73,10.02,27.64c0.78,5.41,1.51,10.83,2.89,16.13
						c1.35,5.17,3.2,10.2,5.34,15.09c4.42,10.09,10.16,19.54,16.1,28.79c1.47,2.28,2.95,4.55,4.43,6.82
						c1.05,1.61,3.65,0.11,2.59-1.51c-6.15-9.44-12.32-18.91-17.4-28.98c-5.07-10.05-8.59-20.5-10.27-31.64
						c-1.57-10.47-2.66-21.26-8.56-30.37c-4.93-7.62-12.24-13.46-20.28-17.54c-8.49-4.31-17.83-6.84-27.29-7.74
						c-10-0.95-20.65-0.2-29.81,4.23c-4.07,1.97-8.06,4.7-9.98,8.94c-1.72,3.8-1.2,8.34,2.97,10.21c2.3,1.03,4.88,0.93,7.33,0.72
						c3.09-0.25,6.18-0.48,9.27-0.64c6.09-0.3,12.2-0.37,18.3-0.21c6.02,0.16,12.05,0.49,18.04,1.16
						c5.23,0.59,10.48,1.53,15.45,3.28c8.6,3.04,17.66,9.91,18.16,19.83c0.11,2.15-0.28,4.2-1.1,6.19
						C724.38,1268.68,727.29,1269.46,728.01,1267.7L728.01,1267.7z"/>
				</g>
			</g>
			<g>
				<path class="st11" d="M1693.36,1263.07c-3.12-26.46,17.11-53.62,45.42-60.97c28.31-7.34,61.41,5.98,74.3,29.91
					c-20.74,0.98-41.66-1.03-62.25,1.41c-20.59,2.44-41.79,10.3-52.94,26.13"/>
			</g>
		</g>
		<g>
			<path class="st12" d="M1515.6,1900.12c-10.93-50.31-21.85-100.61-32.78-150.92c-12.74,13.61-96.45,99.98-237.53,103.34
				c-147.66,3.51-238.48-86.76-250.73-99.36c-7.48,47.73-14.95,95.47-22.43,143.2C1153.24,1902.42,1334.53,1905.5,1515.6,1900.12z"
				/>
		</g>
		<path class="st13" d="M1061.06,1899.09c4.29-64.44,7.15-130.3,8.29-197.58c0.78-45.77,0.75-90.82,0-135.13
			c-7.2-6.97-36.15-33.59-65.98-27.82c-12.47,2.41-22.98,10.88-43.99,27.82c-13.42,10.82-23.73,20.67-30.79,27.82
			c-34.96,86.04-68.67,185.48-95.3,297.07C909.16,1894.29,985.1,1897.03,1061.06,1899.09z"/>
		<path class="st13" d="M1672.17,1893.18c-25.88-128.51-67.34-234.86-105.77-314.88c-18.58-11.28-55.7-30.17-105.57-31.8
			c-18.65-0.61-35.04,1.33-48.39,3.97c10.86,117.09,21.72,234.19,32.58,351.28C1520.78,1900.39,1596.5,1897.66,1672.17,1893.18z"/>
	</g>
	<path class="st14" d="M3357.91,143.5H483.09C299.13,143.5,150,278.25,150,444.46v1270.07c0,166.22,149.13,300.96,333.09,300.96
		h2874.82c183.96,0,333.09-134.75,333.09-300.96V444.46C3691,278.25,3541.87,143.5,3357.91,143.5z M1997.48,1689.59H488.7V469.41
		h1508.77V1689.59z"/>
	<rect x="2179.75" y="459.68" class="st15" width="1328.42" height="333.86"/>
	<g>
		<path d="M2701.48,604.53c1.78-2.24,4.12-3.73,7.01-4.47c1.1-0.25,2.2-0.37,3.3-0.37c1.78,0,3.51,0.37,5.15,1.12
			c2.61,1.12,4.26,2.92,4.95,5.4c0.27,0.75,0.41,1.43,0.41,2.05c0,1.74-0.62,3.29-1.86,4.66c-8.11,9.81-17.19,19.07-27.22,27.76
			c-0.96,0.87-1.44,1.93-1.44,3.17v45.83c0,5.59-0.82,9.97-2.47,13.13c-1.65,3.17-4.54,5.5-8.66,6.99
			c-4.95,1.61-15.54,2.61-31.75,2.98h-0.21c-3.02,0-5.7-0.87-8.04-2.61c-2.47-1.86-4.26-4.16-5.36-6.89
			c-0.28-0.87-0.41-1.68-0.41-2.42c0-1.24,0.41-2.48,1.24-3.73c1.37-1.86,3.23-2.79,5.57-2.79h0.21c6.32,0.12,14.3,0.19,23.92,0.19
			c3.71-0.12,5.57-1.8,5.57-5.03V659.3c0-0.37-0.21-0.62-0.62-0.75s-0.76-0.12-1.03,0c-30.1,20.74-66.32,37.32-108.66,49.74
			c-1.52,0.37-2.96,0.56-4.33,0.56c-1.65,0-3.3-0.25-4.95-0.75c-3.17-0.99-5.7-2.73-7.63-5.22c-1.1-1.24-1.65-2.55-1.65-3.91
			c0-0.75,0.13-1.49,0.41-2.24c0.69-2.24,2.34-3.66,4.95-4.29c32.85-8.57,61.93-19.93,87.22-34.09c0.13-0.12,0.17-0.28,0.1-0.47
			c-0.07-0.19-0.24-0.28-0.52-0.28c-35.33,2.73-62.82,4.66-82.48,5.78c-0.28,0-0.55,0-0.82,0c-2.47,0-4.67-0.68-6.6-2.05
			c-2.2-1.61-3.51-3.66-3.92-6.15c-0.14-0.5-0.21-0.93-0.21-1.3c0-1.86,0.62-3.54,1.86-5.03c1.65-1.86,3.84-2.86,6.6-2.98
			l20.21-0.93c1.37-0.12,2.06-0.81,2.06-2.05v-70.8c0-4.47,1.75-8.29,5.26-11.46c3.51-3.17,7.73-4.75,12.68-4.75h23.3
			c1.37,0,2.34-0.56,2.89-1.68c1.1-2.48,2.13-4.78,3.09-6.89c1.24-2.86,3.3-5.15,6.19-6.89c2.34-1.37,4.88-2.05,7.63-2.05
			c0.55,0,1.16,0,1.86,0c3.02,0.37,5.08,1.74,6.19,4.1c0.69,1.12,1.03,2.24,1.03,3.35c0,1.12-0.41,2.3-1.24,3.54
			c-0.82,1.49-1.79,3.11-2.89,4.84c-0.28,0.37-0.31,0.75-0.1,1.12c0.21,0.37,0.52,0.56,0.93,0.56h35.67c4.95,0,9.18,1.58,12.68,4.75
			c3.51,3.17,5.26,6.99,5.26,11.46v41.73c0,0.37,0.17,0.59,0.52,0.65c0.34,0.06,0.58-0.03,0.72-0.28
			C2695.64,611.36,2698.46,608.13,2701.48,604.53z M2671.38,573.23c0-1.24-0.69-1.86-2.06-1.86h-76.29c-1.37,0-2.06,0.62-2.06,1.86
			v11.18c0,1.24,0.69,1.86,2.06,1.86h76.29c1.37,0,2.06-0.62,2.06-1.86V573.23z M2669.32,614.4c1.37,0,2.06-0.62,2.06-1.86v-11.36
			c0-1.24-0.69-1.86-2.06-1.86h-76.29c-1.37,0-2.06,0.62-2.06,1.86v11.36c0,1.24,0.69,1.86,2.06,1.86H2669.32z M2593.02,627.26
			c-1.37,0-2.06,0.62-2.06,1.86v12.86c0,0.5,0.21,0.93,0.62,1.3c0.41,0.37,0.89,0.5,1.44,0.37c35.19-1.61,58.15-2.73,68.87-3.35
			c1.37-0.12,2.61-0.56,3.71-1.3c1.1-0.99,2.54-2.17,4.33-3.54c0.96-0.87,1.44-1.93,1.44-3.17v-3.17c0-1.24-0.69-1.86-2.06-1.86
			H2593.02z"/>
		<path d="M2867.26,559.82c-0.82-1.24-1.31-2.55-1.44-3.91c0-0.99,0.27-1.93,0.82-2.79c0.96-2.36,2.68-3.97,5.15-4.84
			c1.37-0.5,2.75-0.75,4.12-0.75c1.37,0,2.68,0.19,3.92,0.56c2.75,0.99,4.88,2.61,6.39,4.84c6.05,9.44,13.4,18.88,22.06,28.32
			s17.53,17.7,26.6,24.78c2.47,1.99,3.71,4.47,3.71,7.45c0,2.73-1.03,5.03-3.09,6.89c-2.34,2.24-5.09,3.48-8.25,3.73
			c-0.28,0-0.62,0-1.03,0c-2.75,0-5.29-0.93-7.63-2.79c-2.47-2.24-4.88-4.53-7.22-6.89c-0.28-0.25-0.55-0.31-0.82-0.19
			c-0.41,0.12-0.69,0.37-0.82,0.75c0,2.73,0,4.6,0,5.59c-1.37,29.31-2.96,50.27-4.74,62.88c-1.79,12.61-4.47,20.77-8.04,24.5
			c-2.34,2.73-4.74,4.56-7.22,5.5c-2.47,0.93-5.85,1.71-10.1,2.33c-3.17,0.25-7.5,0.37-12.99,0.37c-2.75,0-5.85,0-9.28,0
			c-3.02-0.12-5.6-1.09-7.73-2.89c-2.13-1.8-3.75-4.07-4.85-6.8c-0.69-1.99-0.41-3.82,0.82-5.5c1.24-1.68,3.02-2.45,5.36-2.33
			c6.87,0.37,13.26,0.56,19.18,0.56c4.12,0,7.14-0.93,9.07-2.79c2.47-2.24,4.43-8.29,5.88-18.16s2.71-25.43,3.81-46.67
			c0-0.5-0.21-0.93-0.62-1.3c-0.41-0.37-0.9-0.56-1.44-0.56h-44.54c-1.37,0-2.2,0.62-2.47,1.86c-1.1,7.33-2.47,13.97-4.12,19.93
			c-1.65,5.96-4.02,12.11-7.11,18.44s-6.88,12.05-11.34,17.14c-4.47,5.09-10.07,10.03-16.8,14.81c-6.74,4.78-14.51,8.91-23.3,12.39
			c-1.52,0.62-3.02,0.93-4.54,0.93c-1.37,0-2.68-0.25-3.92-0.75c-3.02-0.87-5.36-2.48-7.01-4.84c-1.1-1.37-1.65-2.79-1.65-4.29
			c0-0.62,0.07-1.24,0.21-1.86c0.69-2.24,2.2-3.79,4.54-4.66c7.56-2.98,14.3-6.4,20.21-10.25c5.91-3.85,10.72-7.86,14.43-12.02
			c3.71-4.16,6.91-8.82,9.59-13.97c2.68-5.15,4.71-10.12,6.08-14.9c1.37-4.78,2.54-10.15,3.51-16.12c0-0.5-0.18-0.93-0.52-1.3
			c-0.34-0.37-0.79-0.56-1.34-0.56h-22.89c-3.99,0-7.39-1.3-10.21-3.91c-2.82-2.61-4.23-5.71-4.23-9.32c0-0.12-0.18-0.25-0.52-0.37
			c-0.34-0.12-0.59-0.12-0.72,0c-3.02,2.73-6.12,5.34-9.28,7.82c-2.2,1.74-4.74,2.55-7.63,2.42c-0.28,0-0.62,0-1.03,0
			c-3.17-0.12-5.91-1.18-8.25-3.17c-1.93-1.74-2.89-3.85-2.89-6.33c0-2.73,1.16-4.97,3.51-6.71c20.62-14.78,36.91-33.41,48.87-55.89
			c1.37-2.73,3.51-4.66,6.39-5.78c1.65-0.62,3.37-0.93,5.15-0.93c1.1,0,2.2,0.12,3.3,0.37c3.02,0.75,5.02,2.3,5.98,4.66
			c0.69,1.12,1.03,2.27,1.03,3.45s-0.34,2.39-1.03,3.63c-10.18,19-23.09,36.08-38.76,51.23c-0.28,0.25-0.34,0.56-0.21,0.93
			c0.13,0.37,0.41,0.56,0.82,0.56h122.89c0.41,0,0.72-0.19,0.93-0.56c0.21-0.37,0.17-0.68-0.1-0.93
			C2892.21,595.21,2878.67,578.2,2867.26,559.82z"/>
		<path d="M3022.73,573.42c2.2,0,4.05,0.68,5.57,2.05c1.51,1.37,2.27,3.01,2.27,4.94s-0.76,3.6-2.27,5.03
			c-1.52,1.43-3.37,2.14-5.57,2.14h-56.91c-2.2,0-4.06-0.71-5.57-2.14c-1.52-1.43-2.27-3.11-2.27-5.03s0.75-3.57,2.27-4.94
			c1.51-1.37,3.37-2.05,5.57-2.05H3022.73z M3006.85,650.55c4.95,0,9.14,1.55,12.58,4.66c3.43,3.11,5.15,6.96,5.15,11.55v23.47
			c0,4.47-1.75,8.26-5.26,11.36c-3.51,3.11-7.66,4.66-12.47,4.66h-23.09c-0.55,0-0.82,0.25-0.82,0.75v0.37
			c0,1.99-0.79,3.7-2.37,5.12c-1.58,1.43-3.51,2.14-5.77,2.14s-4.16-0.71-5.67-2.14c-1.52-1.43-2.27-3.14-2.27-5.12v-40.61
			c0-4.6,1.75-8.45,5.26-11.55c3.51-3.11,7.73-4.66,12.68-4.66H3006.85z M3135.1,571.37c1.65-1.24,3.54-1.86,5.67-1.86
			c2.13,0,3.99,0.71,5.57,2.14c1.58,1.43,2.23,3.07,1.96,4.94c-0.28,1.86-1.24,3.29-2.89,4.29c-4.26,2.73-8.39,5.15-12.37,7.27
			c-1.1,0.62-1.24,1.37-0.41,2.24c4.26,4.35,8.66,8.07,13.2,11.18c2.06,1.24,3.23,2.98,3.51,5.22c0.13,0.37,0.21,0.81,0.21,1.3
			c0,1.74-0.62,3.29-1.86,4.66c-1.93,1.99-4.2,3.23-6.8,3.73c-0.69,0.12-1.31,0.19-1.86,0.19c-1.93,0-3.71-0.5-5.36-1.49
			c-5.91-4.1-11.34-9-16.29-14.72c-0.14-0.12-0.28-0.16-0.41-0.09c-0.14,0.06-0.21,0.16-0.21,0.28c0,2.24-0.86,4.13-2.58,5.68
			c-1.72,1.55-3.81,2.33-6.29,2.33h-40c-1.93,0-3.58-0.62-4.95-1.86c-1.37-1.24-2.06-2.73-2.06-4.47h-0.21
			c-0.14-0.12-0.28-0.19-0.41-0.19c-4.54,5.09-9.56,9.63-15.05,13.6c-2.34,1.61-4.82,2.42-7.42,2.42c-0.96,0-1.86-0.12-2.68-0.37
			c-3.71-0.62-6.94-2.36-9.69-5.22c-0.41-0.25-0.82-0.56-1.24-0.93c-0.14,0-0.14,0,0,0c0,0.99-0.49,1.49-1.44,1.49h-48.04
			c-2.06,0-3.85-0.68-5.36-2.05c-1.52-1.37-2.27-2.98-2.27-4.84s0.72-3.48,2.17-4.84c1.44-1.37,3.26-2.05,5.46-2.05h39.79
			c2.75,0,5.05,0.87,6.91,2.61s2.78,3.85,2.78,6.33c0,0.12,0.13,0.25,0.41,0.37c0.27,0.12,0.48,0.19,0.62,0.19
			c7.7-3.97,15.05-9.63,22.06-16.95c0.82-0.99,0.75-1.93-0.21-2.79c-2.47-2.36-5.43-4.78-8.87-7.27c-1.52-1.24-2.34-2.79-2.47-4.66
			c-0.14-1.86,0.48-3.48,1.86-4.84c1.51-1.49,3.37-2.33,5.57-2.52c2.2-0.19,4.19,0.34,5.98,1.58c2.61,1.74,5.02,3.54,7.22,5.4
			c0.96,0.75,1.78,0.62,2.47-0.37c2.47-4.1,4.6-8.14,6.39-12.11c0.13-0.5,0.07-0.93-0.21-1.3c-0.28-0.37-0.69-0.56-1.24-0.56h-20.21
			c-2.06,0-3.85-0.65-5.36-1.96c-1.52-1.3-2.27-2.92-2.27-4.84c0-1.93,0.75-3.57,2.27-4.94c1.51-1.37,3.3-2.05,5.36-2.05h28.66
			c0.27,0,0.55-0.06,0.82-0.19c1.78-0.25,3.57-0.06,5.36,0.56l2.89,0.93c1.65,0.5,2.89,1.43,3.71,2.79
			c0.82,1.37,1.03,2.79,0.62,4.29c-3.99,13.04-9.9,25.03-17.73,35.96c-0.28,0.37-0.31,0.71-0.1,1.02c0.21,0.31,0.52,0.47,0.93,0.47
			h42.06c0.41,0,0.72-0.16,0.93-0.47c0.21-0.31,0.17-0.65-0.1-1.02c-7.84-10.81-14.3-24.22-19.38-40.24
			c-0.55-1.99-0.24-3.88,0.93-5.68c1.16-1.8,2.92-2.89,5.26-3.26c0.69-0.12,1.31-0.19,1.86-0.19c1.65,0,3.16,0.37,4.54,1.12
			c1.92,1.12,3.23,2.67,3.92,4.66c0.96,2.73,1.92,5.4,2.89,8.01c0.13,0.37,0.44,0.62,0.93,0.75c0.48,0.12,0.93,0.06,1.34-0.19
			c3.3-2.48,6.19-4.72,8.66-6.71c1.51-1.24,3.3-1.89,5.36-1.96c2.06-0.06,3.84,0.59,5.36,1.96c1.51,1.24,2.16,2.76,1.96,4.56
			c-0.21,1.8-1.07,3.2-2.58,4.19c-4.26,2.73-8.87,5.4-13.81,8.01c-1.1,0.62-1.31,1.49-0.62,2.61c1.65,3.11,3.16,5.65,4.54,7.64
			c0.82,1.12,1.78,1.24,2.89,0.37C3129.19,576.15,3132.35,573.73,3135.1,571.37z M3016.54,624.65c2.2,0,4.02,0.68,5.46,2.05
			c1.44,1.37,2.17,3.01,2.17,4.94s-0.72,3.57-2.17,4.94c-1.44,1.37-3.27,2.05-5.46,2.05h-41.86c-2.06,0-3.85-0.68-5.36-2.05
			c-1.52-1.37-2.27-3.01-2.27-4.94s0.72-3.57,2.17-4.94c1.44-1.37,3.26-2.05,5.46-2.05H3016.54z M3015.92,548.26
			c2.2,0,4.02,0.68,5.46,2.05c1.44,1.37,2.17,3.01,2.17,4.94c0,1.93-0.72,3.54-2.17,4.84s-3.27,1.96-5.46,1.96h-39.79
			c-2.2,0-4.06-0.65-5.57-1.96c-1.52-1.3-2.27-2.92-2.27-4.84c0-1.93,0.75-3.57,2.27-4.94c1.51-1.37,3.37-2.05,5.57-2.05H3015.92z
			 M3008.29,666.57c0-1.24-0.69-1.86-2.06-1.86H2985c-1.37,0-2.06,0.62-2.06,1.86v23.85c0,1.24,0.69,1.86,2.06,1.86h21.24
			c1.37,0,2.06-0.62,2.06-1.86V666.57z M3067.06,695.45c-0.14,0-0.21,0.06-0.21,0.19s0.07,0.19,0.21,0.19h74.23
			c2.34,0,4.33,0.75,5.98,2.24c1.65,1.49,2.47,3.29,2.47,5.4s-0.82,3.91-2.47,5.4c-1.65,1.49-3.64,2.24-5.98,2.24h-101.86
			c-2.34,0-4.33-0.75-5.98-2.24c-1.65-1.49-2.47-3.29-2.47-5.4s0.82-3.91,2.47-5.4c1.65-1.49,3.64-2.24,5.98-2.24h21.86
			c0.55,0,1-0.19,1.34-0.56c0.34-0.37,0.44-0.81,0.31-1.3c-1.24-5.71-3.3-12.05-6.19-19c-0.82-1.86-0.76-3.73,0.21-5.59
			c0.96-1.86,2.54-3.04,4.74-3.54c0.96-0.12,1.86-0.19,2.68-0.19c1.51,0,3.02,0.31,4.54,0.93c2.2,0.87,3.78,2.36,4.74,4.47
			c1.24,2.73,2.34,5.46,3.3,8.2c0.41,1.37,0.69,2.67,0.82,3.91c0,2.11-0.62,4.1-1.86,5.96
			C3074,692.34,3071.05,694.45,3067.06,695.45z M3116.34,619.06c4.95,0,9.18,1.58,12.68,4.75c3.51,3.17,5.26,6.99,5.26,11.46v12.3
			c0,4.47-1.75,8.29-5.26,11.46c-3.51,3.17-7.73,4.75-12.68,4.75h-53.82c-4.95,0-9.18-1.58-12.68-4.75
			c-3.51-3.17-5.26-6.99-5.26-11.46v-12.3c0-4.47,1.75-8.29,5.26-11.46c3.51-3.17,7.73-4.75,12.68-4.75H3116.34z M3113.25,649.8
			c1.37,0,2.06-0.62,2.06-1.86v-13.41c0-1.24-0.69-1.86-2.06-1.86h-48.87c-1.37,0-2.06,0.62-2.06,1.86v13.41
			c0,1.24,0.69,1.86,2.06,1.86H3113.25z M3105.82,671.97c0.69-2.24,2.2-3.97,4.54-5.22c1.51-0.75,3.09-1.12,4.74-1.12
			c0.82,0,1.65,0.06,2.47,0.19c2.34,0.5,4.12,1.74,5.36,3.73c0.55,1.12,0.82,2.24,0.82,3.35c0,0.99-0.21,1.93-0.62,2.79
			c-2.47,5.71-4.54,10.18-6.19,13.41c-0.82,1.99-2.34,3.42-4.54,4.29c-1.37,0.62-2.75,0.93-4.12,0.93c-0.96,0-1.86-0.06-2.68-0.19
			c-2.06-0.5-3.58-1.61-4.54-3.35c-0.96-1.74-1.1-3.54-0.41-5.4C3102.45,681.04,3104.17,676.57,3105.82,671.97z"/>
	</g>
	<g>
		<path d="M2362.26,938.05c1.78-2.24,4.12-3.73,7.01-4.47c1.1-0.25,2.2-0.37,3.3-0.37c1.78,0,3.51,0.37,5.16,1.12
			c2.61,1.12,4.26,2.92,4.95,5.4c0.27,0.75,0.41,1.43,0.41,2.05c0,1.74-0.62,3.29-1.86,4.66c-8.11,9.81-17.18,19.07-27.22,27.76
			c-0.96,0.87-1.44,1.93-1.44,3.17v45.83c0,5.59-0.82,9.97-2.47,13.13c-1.65,3.17-4.54,5.5-8.66,6.99
			c-4.95,1.61-15.54,2.61-31.75,2.98h-0.21c-3.02,0-5.7-0.87-8.04-2.61c-2.47-1.86-4.26-4.16-5.36-6.89
			c-0.28-0.87-0.41-1.68-0.41-2.42c0-1.24,0.41-2.48,1.24-3.73c1.37-1.86,3.23-2.79,5.57-2.79h0.21c6.32,0.12,14.3,0.19,23.92,0.19
			c3.71-0.12,5.57-1.8,5.57-5.03v-30.18c0-0.37-0.21-0.62-0.62-0.75c-0.41-0.12-0.76-0.12-1.03,0
			c-30.1,20.74-66.32,37.33-108.66,49.74c-1.51,0.37-2.96,0.56-4.33,0.56c-1.65,0-3.3-0.25-4.95-0.75c-3.16-1-5.7-2.73-7.63-5.22
			c-1.1-1.24-1.65-2.54-1.65-3.91c0-0.75,0.14-1.49,0.41-2.24c0.69-2.24,2.34-3.66,4.95-4.29c32.85-8.57,61.93-19.93,87.22-34.09
			c0.14-0.12,0.17-0.28,0.1-0.47c-0.07-0.19-0.24-0.28-0.52-0.28c-35.33,2.73-62.82,4.66-82.48,5.78c-0.28,0-0.55,0-0.82,0
			c-2.47,0-4.67-0.68-6.6-2.05c-2.2-1.61-3.51-3.66-3.92-6.15c-0.14-0.49-0.21-0.93-0.21-1.3c0-1.86,0.62-3.54,1.86-5.03
			c1.65-1.86,3.85-2.86,6.6-2.98l20.21-0.93c1.37-0.12,2.06-0.81,2.06-2.05v-70.8c0-4.47,1.75-8.29,5.26-11.46
			c3.51-3.17,7.73-4.75,12.68-4.75h23.3c1.37,0,2.34-0.56,2.89-1.68c1.1-2.48,2.13-4.78,3.09-6.89c1.24-2.86,3.3-5.15,6.19-6.89
			c2.34-1.37,4.88-2.05,7.63-2.05c0.55,0,1.17,0,1.86,0c3.02,0.37,5.08,1.74,6.19,4.1c0.69,1.12,1.03,2.24,1.03,3.35
			s-0.41,2.3-1.24,3.54c-0.82,1.49-1.79,3.11-2.89,4.84c-0.28,0.37-0.31,0.75-0.1,1.12c0.21,0.37,0.52,0.56,0.93,0.56h35.67
			c4.95,0,9.18,1.58,12.68,4.75c3.51,3.17,5.26,6.99,5.26,11.46v41.73c0,0.37,0.17,0.59,0.52,0.65c0.34,0.06,0.58-0.03,0.72-0.28
			C2356.42,944.88,2359.24,941.65,2362.26,938.05z M2332.16,906.75c0-1.24-0.69-1.86-2.06-1.86h-76.29c-1.37,0-2.06,0.62-2.06,1.86
			v11.18c0,1.24,0.69,1.86,2.06,1.86h76.29c1.37,0,2.06-0.62,2.06-1.86V906.75z M2330.1,947.92c1.37,0,2.06-0.62,2.06-1.86v-11.36
			c0-1.24-0.69-1.86-2.06-1.86h-76.29c-1.37,0-2.06,0.62-2.06,1.86v11.36c0,1.24,0.69,1.86,2.06,1.86H2330.1z M2253.8,960.77
			c-1.37,0-2.06,0.62-2.06,1.86v12.86c0,0.5,0.21,0.93,0.62,1.3c0.41,0.37,0.89,0.5,1.44,0.37c35.19-1.61,58.15-2.73,68.87-3.35
			c1.37-0.12,2.61-0.56,3.71-1.3c1.1-0.99,2.54-2.17,4.33-3.54c0.96-0.87,1.44-1.93,1.44-3.17v-3.17c0-1.24-0.69-1.86-2.06-1.86
			H2253.8z"/>
		<path d="M2528.04,893.33c-0.82-1.24-1.31-2.54-1.44-3.91c0-0.99,0.27-1.93,0.82-2.79c0.96-2.36,2.68-3.97,5.15-4.84
			c1.37-0.49,2.75-0.75,4.12-0.75c1.37,0,2.68,0.19,3.92,0.56c2.75,1,4.88,2.61,6.39,4.84c6.05,9.44,13.4,18.88,22.06,28.32
			c8.66,9.44,17.53,17.7,26.6,24.78c2.47,1.99,3.71,4.47,3.71,7.45c0,2.73-1.03,5.03-3.09,6.89c-2.34,2.24-5.09,3.48-8.25,3.73
			c-0.28,0-0.62,0-1.03,0c-2.75,0-5.29-0.93-7.63-2.79c-2.47-2.24-4.88-4.53-7.22-6.89c-0.28-0.25-0.55-0.31-0.82-0.19
			c-0.41,0.12-0.69,0.37-0.82,0.75c0,2.73,0,4.6,0,5.59c-1.37,29.31-2.96,50.27-4.74,62.88c-1.79,12.61-4.47,20.77-8.04,24.5
			c-2.34,2.73-4.74,4.56-7.22,5.5s-5.84,1.71-10.1,2.33c-3.16,0.25-7.49,0.37-12.99,0.37c-2.75,0-5.84,0-9.28,0
			c-3.02-0.12-5.6-1.09-7.73-2.89c-2.13-1.8-3.75-4.07-4.85-6.8c-0.69-1.99-0.41-3.82,0.82-5.5s3.02-2.45,5.36-2.33
			c6.87,0.37,13.27,0.56,19.18,0.56c4.12,0,7.15-0.93,9.07-2.79c2.47-2.24,4.43-8.29,5.88-18.16s2.71-25.43,3.81-46.67
			c0-0.49-0.21-0.93-0.62-1.3s-0.9-0.56-1.44-0.56h-44.54c-1.37,0-2.2,0.62-2.47,1.86c-1.1,7.33-2.47,13.97-4.12,19.93
			c-1.65,5.96-4.02,12.11-7.11,18.44c-3.09,6.33-6.88,12.05-11.34,17.14c-4.47,5.09-10.07,10.03-16.8,14.81
			c-6.74,4.78-14.5,8.91-23.3,12.39c-1.51,0.62-3.02,0.93-4.54,0.93c-1.37,0-2.68-0.25-3.92-0.75c-3.02-0.87-5.36-2.49-7.01-4.84
			c-1.1-1.37-1.65-2.79-1.65-4.29c0-0.62,0.07-1.24,0.21-1.86c0.69-2.24,2.2-3.79,4.54-4.66c7.56-2.98,14.3-6.4,20.21-10.25
			c5.91-3.85,10.72-7.85,14.43-12.02c3.71-4.16,6.91-8.82,9.59-13.97c2.68-5.15,4.71-10.12,6.08-14.9
			c1.37-4.78,2.54-10.15,3.51-16.12c0-0.49-0.17-0.93-0.52-1.3c-0.34-0.37-0.79-0.56-1.34-0.56h-22.89c-3.99,0-7.39-1.3-10.21-3.91
			c-2.82-2.61-4.23-5.71-4.23-9.32c0-0.12-0.17-0.25-0.52-0.37c-0.34-0.12-0.59-0.12-0.72,0c-3.02,2.73-6.12,5.34-9.28,7.82
			c-2.2,1.74-4.74,2.55-7.63,2.42c-0.28,0-0.62,0-1.03,0c-3.16-0.12-5.91-1.18-8.25-3.17c-1.93-1.74-2.89-3.85-2.89-6.33
			c0-2.73,1.17-4.97,3.51-6.71c20.62-14.78,36.91-33.41,48.87-55.89c1.37-2.73,3.51-4.66,6.39-5.78c1.65-0.62,3.37-0.93,5.15-0.93
			c1.1,0,2.2,0.12,3.3,0.37c3.02,0.75,5.02,2.3,5.98,4.66c0.69,1.12,1.03,2.27,1.03,3.45c0,1.18-0.34,2.39-1.03,3.63
			c-10.17,19-23.09,36.08-38.76,51.23c-0.28,0.25-0.34,0.56-0.21,0.93c0.14,0.37,0.41,0.56,0.82,0.56h122.89
			c0.41,0,0.72-0.19,0.93-0.56c0.21-0.37,0.17-0.68-0.1-0.93C2552.99,928.73,2539.45,911.71,2528.04,893.33z"/>
		<path d="M2728.46,929.48c-3.44,2.98-7.63,4.47-12.58,4.47c-4.95,0-9.14-1.49-12.58-4.47c-3.44-2.98-5.15-6.77-5.15-11.36
			c0-4.59,1.72-8.41,5.15-11.46c3.43-3.04,7.63-4.56,12.58-4.56c4.95,0,9.14,1.52,12.58,4.56c3.43,3.04,5.15,6.86,5.15,11.46
			C2733.61,922.71,2731.89,926.49,2728.46,929.48z M2728.46,1021.88c-3.44,2.98-7.63,4.47-12.58,4.47c-4.95,0-9.14-1.49-12.58-4.47
			c-3.44-2.98-5.15-6.71-5.15-11.18c0-4.72,1.72-8.57,5.15-11.55c3.43-2.98,7.63-4.47,12.58-4.47c4.95,0,9.14,1.49,12.58,4.47
			c3.43,2.98,5.15,6.83,5.15,11.55C2733.61,1015.18,2731.89,1018.9,2728.46,1021.88z"/>
		<path d="M2889.08,932.08c-1.37,0-2.06,0.62-2.06,1.86v10.62c0,1.24,0.48,2.3,1.44,3.17c5.36,5.09,13.27,12.98,23.71,23.66
			c2.2,2.24,3.3,4.78,3.3,7.64c0,2.49-0.9,4.78-2.68,6.89c-1.37,1.61-3.16,2.42-5.36,2.42c-0.14,0-0.28,0-0.41,0
			c-2.47-0.12-4.4-1.05-5.77-2.79c-3.44-4.72-7.7-10.12-12.78-16.21c-0.28-0.25-0.59-0.34-0.93-0.28c-0.34,0.06-0.52,0.22-0.52,0.47
			v72.29c0,2.36-0.93,4.38-2.78,6.05s-4.09,2.52-6.7,2.52c-2.61,0-4.85-0.84-6.7-2.52s-2.78-3.7-2.78-6.05v-74.71
			c0-0.12-0.1-0.22-0.31-0.28c-0.21-0.06-0.31,0.03-0.31,0.28c-7.42,17.26-15.12,31.3-23.09,42.11c-1.37,1.86-3.27,2.67-5.67,2.42
			c-2.41-0.25-4.16-1.37-5.26-3.35c-1.37-2.24-2.06-4.59-2.06-7.08c0-3.23,0.96-6.08,2.89-8.57c6.19-7.82,11.99-16.95,17.42-27.39
			c5.43-10.43,9.86-20.87,13.3-31.3c0.14-0.49,0.07-0.93-0.21-1.3c-0.28-0.37-0.69-0.56-1.24-0.56h-21.24
			c-2.47,0-4.64-0.81-6.5-2.42c-1.86-1.61-2.78-3.57-2.78-5.87c0-2.3,0.93-4.29,2.78-5.96s4.02-2.52,6.5-2.52h23.71
			c1.37,0,2.06-0.62,2.06-1.86v-29.44c0-2.36,0.93-4.38,2.78-6.05s4.09-2.52,6.7-2.52c2.61,0,4.85,0.87,6.7,2.61
			c1.86,1.74,2.78,3.73,2.78,5.96v29.44c0,1.24,0.69,1.86,2.06,1.86h18.76c2.47,0,4.64,0.84,6.5,2.52s2.78,3.66,2.78,5.96
			c0,2.3-0.93,4.26-2.78,5.87c-1.86,1.61-4.02,2.42-6.5,2.42H2889.08z M3015.89,914.94c2.47,0,4.64,0.84,6.5,2.52
			c1.86,1.68,2.78,3.66,2.78,5.96c0,2.3-0.93,4.29-2.78,5.96s-4.02,2.52-6.5,2.52h-10.72c-1.37,0-2.06,0.62-2.06,1.86v93.71
			c0,5.71-0.79,10.03-2.37,12.95c-1.58,2.92-4.36,5.12-8.35,6.61c-5.23,2.11-14.5,3.23-27.84,3.35h-0.21
			c-3.02,0-5.77-0.87-8.25-2.61c-2.47-1.86-4.26-4.16-5.36-6.89c-0.28-0.87-0.41-1.68-0.41-2.42c0-1.24,0.48-2.49,1.44-3.73
			c1.37-1.86,3.23-2.79,5.57-2.79h0.21c2.47,0.12,9.21,0.19,20.21,0.19c2.06-0.12,3.47-0.49,4.23-1.12c0.75-0.62,1.13-1.8,1.13-3.54
			v-93.71c0-1.24-0.69-1.86-2.06-1.86h-48.66c-2.61,0-4.81-0.84-6.6-2.52c-1.79-1.68-2.68-3.66-2.68-5.96c0-2.3,0.89-4.29,2.68-5.96
			c1.78-1.68,3.99-2.52,6.6-2.52h48.66c1.37,0,2.06-0.62,2.06-1.86v-28.5c0-2.48,1-4.59,2.99-6.33c1.99-1.74,4.33-2.61,7.01-2.61
			c2.68,0,5.02,0.87,7.01,2.61c1.99,1.74,2.99,3.85,2.99,6.33v28.5c0,1.24,0.69,1.86,2.06,1.86H3015.89z M2965.78,984.81
			c0.55,1.24,0.89,2.49,1.03,3.73c0,1.24-0.34,2.42-1.03,3.54c-0.96,2.36-2.75,4.16-5.36,5.4c-1.24,0.5-2.55,0.75-3.92,0.75
			c-0.96,0-1.99-0.19-3.09-0.56c-2.47-0.87-4.19-2.42-5.15-4.66c-4.12-9.56-9.83-19.68-17.11-30.37c-0.82-1.12-1.24-2.36-1.24-3.73
			c0-0.62,0.07-1.3,0.21-2.05c0.69-1.99,2.06-3.42,4.12-4.29c1.51-0.62,3.02-0.93,4.54-0.93c0.96,0,1.92,0.06,2.89,0.19
			c2.47,0.62,4.47,1.93,5.98,3.91C2955.34,966.18,2961.38,975.87,2965.78,984.81z"/>
		<path d="M3228.68,964.5c1.78,1.61,2.68,3.57,2.68,5.87c0,2.3-0.9,4.26-2.68,5.87c-1.79,1.61-3.92,2.42-6.39,2.42h-54.43
			c-0.55,0-0.96,0.19-1.24,0.56c-0.28,0.37-0.34,0.81-0.21,1.3c4.81,14.04,11.06,25.52,18.76,34.47c7.84,9.07,15.74,13.6,23.71,13.6
			c0.14,0,0.27,0,0.41,0c3.02,0,5.15-2.05,6.39-6.15c0.82-2.73,1.51-6.96,2.06-12.67c0.27-1.86,1.37-3.2,3.3-4.01
			c1.92-0.81,3.78-0.71,5.57,0.28c2.75,1.24,4.88,2.98,6.39,5.22c1.24,1.74,1.86,3.6,1.86,5.59c0,0.5-0.07,1-0.21,1.49
			c-1.51,9.57-3.85,16.33-7.01,20.31c-3.99,5.09-10.38,7.64-19.18,7.64c-13.75,0-26.26-6.21-37.53-18.63
			c-11-12.05-19.45-27.76-25.36-47.14c-0.41-1.24-1.31-1.86-2.68-1.86h-54.64c-1.37,0-2.06,0.62-2.06,1.86v38.19
			c0,0.5,0.21,0.9,0.62,1.21c0.41,0.31,0.89,0.47,1.44,0.47c7.01-0.87,16.91-2.11,29.69-3.73c8.11-0.99,14.85-1.8,20.21-2.42
			c0.41-0.12,0.82-0.19,1.24-0.19c2.06,0,3.92,0.68,5.57,2.05c1.92,1.49,2.96,3.35,3.09,5.59c0.14,1.74-0.21,3.32-1.03,4.75
			c-0.82,1.43-1.93,2.61-3.3,3.54c-1.37,0.93-2.96,1.52-4.74,1.77c-25.16,3.35-51.89,6.83-80.21,10.43
			c-0.55,0.12-1.1,0.19-1.65,0.19c-2.2,0-4.33-0.62-6.39-1.86c-2.34-1.61-3.85-3.66-4.54-6.15c-0.14-0.75-0.21-1.43-0.21-2.05
			c0-1.74,0.62-3.35,1.86-4.84c1.65-2.11,3.85-3.29,6.6-3.54c3.02-0.37,6.25-0.68,9.69-0.93c1.37-0.12,2.06-0.81,2.06-2.05V896.69
			c0-4.47,1.75-8.26,5.26-11.36c3.51-3.1,7.73-4.66,12.68-4.66h114.02c4.95,0,9.18,1.55,12.68,4.66c3.51,3.11,5.26,6.89,5.26,11.36
			v26.46c0,4.47-1.75,8.29-5.26,11.46c-3.51,3.17-7.73,4.75-12.68,4.75h-38.35c-0.55,0-1.03,0.19-1.44,0.56s-0.55,0.81-0.41,1.3
			c0.55,6.21,1.51,12.55,2.89,19c0.27,1.24,1.1,1.86,2.47,1.86h58.97C3224.76,962.08,3226.89,962.89,3228.68,964.5z M3196.1,898.73
			c0-1.24-0.69-1.86-2.06-1.86h-105.78c-1.37,0-2.06,0.62-2.06,1.86v22.17c0,1.24,0.69,1.86,2.06,1.86h105.78
			c1.37,0,2.06-0.62,2.06-1.86V898.73z M3086.2,960.22c0,1.24,0.69,1.86,2.06,1.86h50.52c0.55,0,1-0.19,1.34-0.56
			c0.34-0.37,0.44-0.81,0.31-1.3c-1.24-7.08-2.13-13.41-2.68-19c-0.14-1.24-0.9-1.86-2.27-1.86h-47.22c-1.37,0-2.06,0.62-2.06,1.86
			V960.22z"/>
	</g>
	<g>
		<path d="M2379.38,1295.19c2.61,0,4.85,0.84,6.7,2.52s2.78,3.73,2.78,6.15c0,2.42-0.93,4.47-2.78,6.15
			c-1.86,1.68-4.09,2.52-6.7,2.52h-62.68c-1.37,0-2.06,0.62-2.06,1.86v31.11c0,2.48-0.96,4.63-2.89,6.43c-1.93,1.8-4.3,2.7-7.11,2.7
			c-2.82,0-5.23-0.9-7.22-2.7c-1.99-1.8-2.99-3.94-2.99-6.43v-31.11c0-1.24-0.69-1.86-2.06-1.86h-84.54c-2.61,0-4.85-0.84-6.7-2.52
			c-1.86-1.68-2.78-3.73-2.78-6.15c0-2.42,0.93-4.47,2.78-6.15s4.09-2.52,6.7-2.52h22.47c1.37,0,2.06-0.62,2.06-1.86v-32.23
			c0-4.47,1.75-8.29,5.26-11.46c3.51-3.17,7.73-4.75,12.68-4.75h42.06c1.37,0,2.06-0.62,2.06-1.86v-22.54
			c0-1.24-0.69-1.86-2.06-1.86h-44.13c-1.37,0-2.34,0.5-2.89,1.49c-6.88,10.43-14.3,19.69-22.27,27.76
			c-2.06,1.99-4.61,3.04-7.63,3.17c-0.28,0-0.55,0-0.82,0c-2.61,0-5.02-0.75-7.22-2.24c-2.47-1.61-3.71-3.79-3.71-6.52
			c0-2.11,0.89-3.97,2.68-5.59c14.16-13.16,25.7-29.62,34.64-49.37c1.1-2.36,2.96-4.16,5.57-5.4c1.65-0.75,3.3-1.12,4.95-1.12
			c0.96,0,1.99,0.12,3.09,0.37c2.61,0.62,4.54,1.99,5.77,4.1c0.69,1.24,1.03,2.49,1.03,3.73c0,1-0.28,2.05-0.82,3.17
			c-1.1,2.24-2.27,4.72-3.51,7.45c-0.28,0.5-0.28,0.93,0,1.3c0.27,0.37,0.69,0.56,1.24,0.56h110.73c2.61,0,4.85,0.84,6.7,2.52
			s2.78,3.7,2.78,6.05c0,2.36-0.93,4.38-2.78,6.05s-4.09,2.52-6.7,2.52h-52.37c-1.37,0-2.06,0.62-2.06,1.86v22.54
			c0,1.24,0.69,1.86,2.06,1.86h47.84c2.47,0,4.6,0.81,6.39,2.42c1.78,1.61,2.68,3.57,2.68,5.87c0,2.3-0.9,4.26-2.68,5.87
			c-1.79,1.61-3.92,2.42-6.39,2.42h-47.84c-1.37,0-2.06,0.62-2.06,1.86v30c0,1.24,0.69,1.86,2.06,1.86H2379.38z M2251.95,1293.33
			c-0.14,1.24,0.48,1.86,1.86,1.86h38.56c1.37,0,2.06-0.62,2.06-1.86v-30c0-1.24-0.69-1.86-2.06-1.86h-38.56
			c-1.37,0-1.99,0.62-1.86,1.86V1293.33z"/>
		<path d="M2538.76,1186.95c0.96-2.24,2.54-4.03,4.74-5.4c2.2-1.37,4.6-2.05,7.22-2.05c2.75,0,5.26,0.65,7.53,1.96
			c2.27,1.3,3.95,3.07,5.05,5.31c9.76,17.89,20.89,32.6,33.4,44.15c2.06,1.86,3.23,4.04,3.51,6.52c0.14,0.5,0.21,1,0.21,1.49
			c0,2.11-0.62,4.04-1.86,5.78c-1.37,1.99-3.3,3.17-5.77,3.54c-0.41,0-0.82,0-1.24,0c-1.93,0-3.64-0.68-5.15-2.05
			c-13.33-13.04-24.74-28.75-34.23-47.14c-0.14-0.25-0.38-0.37-0.72-0.37c-0.34,0-0.59,0.12-0.72,0.37
			c-6.46,13.79-14.64,26.58-24.54,38.38c-0.14,0.37-0.14,0.72,0,1.02c0.14,0.31,0.41,0.47,0.82,0.47h44.54
			c2.2,0,4.05,0.72,5.57,2.14c1.51,1.43,2.27,3.14,2.27,5.12c0,1.99-0.76,3.7-2.27,5.12c-1.51,1.43-3.37,2.14-5.57,2.14h-35.26
			c-3.58,0-6.6-1.12-9.07-3.35c-2.47-2.24-3.71-4.91-3.71-8.01c0-0.25-0.1-0.4-0.31-0.47c-0.21-0.06-0.38-0.03-0.52,0.09
			c-2.06,2.24-4.12,4.41-6.19,6.52c-1.65,1.61-3.64,2.21-5.98,1.77c-2.34-0.43-4.19-1.58-5.57-3.45c-0.41-0.75-0.9-1.49-1.44-2.24
			c-1.1-1.37-1.55-2.86-1.34-4.47c0.21-1.61,0.93-3.04,2.17-4.29c0-0.12-0.03-0.25-0.1-0.37c-0.07-0.12-0.17-0.19-0.31-0.19h-88.46
			c-2.06,0-3.85-0.68-5.36-2.05c-1.51-1.37-2.27-3.01-2.27-4.94c0-1.93,0.72-3.57,2.17-4.94c1.44-1.37,3.26-2.05,5.46-2.05h4.74
			c0.96,0,1.44-0.43,1.44-1.3v-22.54c0-1.99,0.75-3.66,2.27-5.03c1.51-1.37,3.33-2.05,5.46-2.05c2.13,0,3.95,0.68,5.46,2.05
			c1.51,1.37,2.27,3.04,2.27,5.03v21.98c0,1.24,0.69,1.86,2.06,1.86h10.1c1.37,0,2.06-0.62,2.06-1.86v-32.04
			c0-1.99,0.86-3.73,2.58-5.22c1.72-1.49,3.68-2.24,5.88-2.24c2.2,0,4.12,0.75,5.77,2.24c1.65,1.49,2.47,3.23,2.47,5.22v6.52
			c0,1.12,0.55,1.68,1.65,1.68h23.92c2.06,0,3.81,0.65,5.26,1.96c1.44,1.3,2.17,2.89,2.17,4.75s-0.72,3.45-2.17,4.75
			c-1.44,1.3-3.2,1.96-5.26,1.96h-23.51c-1.37,0-2.06,0.62-2.06,1.86v8.57c0,1.24,0.69,1.86,2.06,1.86h25.57
			c3.16,0,5.88,1.02,8.14,3.07c2.27,2.05,3.4,4.5,3.4,7.36c0,0.12,0.14,0.25,0.41,0.37c0.27,0.12,0.48,0.12,0.62,0
			C2520.75,1219.3,2530.93,1204.34,2538.76,1186.95z M2484.53,1266.13c0.14,0.25,0.38,0.31,0.72,0.19c0.34-0.12,0.52-0.31,0.52-0.56
			v-18.63c0-1.86,0.72-3.42,2.17-4.66c1.44-1.24,3.16-1.86,5.15-1.86c1.99,0,3.68,0.62,5.05,1.86c1.37,1.24,2.06,2.79,2.06,4.66
			v96.88c0,1.86-0.69,3.42-2.06,4.66c-1.37,1.24-3.06,1.86-5.05,1.86c-1.99,0-3.71-0.62-5.15-1.86c-1.44-1.24-2.17-2.79-2.17-4.66
			c0-0.62-0.28-0.93-0.82-0.93h-54.85c-0.82,0-1.24,0.37-1.24,1.12v2.24c0,1.86-0.69,3.42-2.06,4.66c-1.37,1.24-3.02,1.86-4.95,1.86
			c-1.93,0-3.58-0.62-4.95-1.86c-1.37-1.24-2.06-2.79-2.06-4.66v-99.49c0-1.74,0.69-3.23,2.06-4.47c1.37-1.24,3.02-1.86,4.95-1.86
			c1.92,0,3.57,0.62,4.95,1.86c1.37,1.24,2.06,2.73,2.06,4.47v19.19c0,0.37,0.21,0.62,0.62,0.75c0.41,0.12,0.69,0.06,0.82-0.19
			c4.67-5.09,7.84-12.3,9.48-21.61c0.14-1.37,0.79-2.45,1.96-3.26c1.17-0.81,2.47-1.15,3.92-1.02c1.44,0.12,2.61,0.72,3.51,1.77
			c0.89,1.06,1.2,2.21,0.93,3.45c-0.41,2.73-0.96,5.09-1.65,7.08c-0.14,0.87,0.14,1.68,0.82,2.42c2.61,2.73,4.74,4.91,6.39,6.52
			c0.27,0.37,0.65,0.56,1.13,0.56c0.48,0,0.86-0.19,1.13-0.56c3.16-4.47,5.5-10.06,7.01-16.77c0.27-1.37,1.03-2.45,2.27-3.26
			c1.24-0.81,2.58-1.12,4.02-0.93c1.44,0.19,2.58,0.81,3.4,1.86c0.82,1.06,1.1,2.21,0.82,3.45c-0.55,2.24-1.17,4.47-1.86,6.71
			c-0.28,0.87-0.07,1.68,0.62,2.42C2478.9,1259.86,2482.33,1263.4,2484.53,1266.13z M2453.6,1269.67c-0.28-0.12-0.48-0.12-0.62,0
			c-0.69,0.62-1.44,0.87-2.27,0.75c-0.82-0.12-1.51-0.49-2.06-1.12c-1.24-1.61-2.47-3.04-3.71-4.29c-0.41-0.49-0.76-0.49-1.03,0
			c-0.82,1.74-1.79,3.42-2.89,5.03c-1.24,1.61-3.02,2.45-5.36,2.52c-2.34,0.06-4.33-0.59-5.98-1.96c-0.14-0.12-0.31-0.16-0.52-0.09
			c-0.21,0.06-0.31,0.22-0.31,0.47v4.47c0,1.24,0.69,1.86,2.06,1.86h52.79c1.37,0,2.06-0.62,2.06-1.86v-5.96
			c0-0.12-0.1-0.22-0.31-0.28c-0.21-0.06-0.38-0.03-0.52,0.09c-1.51,1.49-3.44,2.14-5.77,1.96c-2.34-0.19-4.19-1.15-5.57-2.89
			c-0.96-1.24-2.06-2.48-3.3-3.73c-0.69-0.75-1.31-0.68-1.86,0.19c-1.1,1.74-2.27,3.42-3.51,5.03c-1.37,1.49-3.13,2.24-5.26,2.24
			c-2.13,0-4.02-0.68-5.67-2.05C2453.74,1269.92,2453.6,1269.79,2453.6,1269.67z M2465.36,1296.87c0.27-1.24,0.96-2.26,2.06-3.07
			c1.1-0.81,2.37-1.15,3.81-1.02c1.44,0.12,2.61,0.72,3.51,1.77c0.89,1.06,1.2,2.21,0.93,3.45c-0.55,2.49-1.17,4.91-1.86,7.27
			c-0.41,0.87-0.21,1.61,0.62,2.24c3.99,3.85,7.35,7.33,10.1,10.43c0.14,0.25,0.38,0.34,0.72,0.28c0.34-0.06,0.52-0.28,0.52-0.65
			v-25.52c0-1.24-0.69-1.86-2.06-1.86h-52.79c-1.37,0-2.06,0.62-2.06,1.86v26.46c0,0.25,0.21,0.44,0.62,0.56
			c0.41,0.12,0.69,0.06,0.82-0.19c4.54-5.09,7.63-12.42,9.28-21.98c0.27-1.24,1-2.26,2.17-3.07c1.17-0.81,2.47-1.15,3.92-1.02
			c1.44,0.12,2.61,0.68,3.51,1.68c0.89,1,1.2,2.17,0.93,3.54c-0.41,2.73-0.96,5.15-1.65,7.27c-0.14,0.87,0.14,1.61,0.82,2.24
			c2.47,2.49,4.74,4.91,6.8,7.27c0.27,0.37,0.65,0.56,1.13,0.56c0.48,0,0.86-0.19,1.13-0.56
			C2461.78,1309.79,2464.12,1303.83,2465.36,1296.87z M2428.86,1328.36c0,1.24,0.69,1.86,2.06,1.86h52.79
			c1.37,0,2.06-0.62,2.06-1.86v-5.78c0-0.12-0.07-0.22-0.21-0.28c-0.14-0.06-0.28-0.03-0.41,0.09c-1.51,1.37-3.33,1.99-5.46,1.86
			c-2.13-0.12-3.81-0.99-5.05-2.61c-1.51-1.74-2.96-3.35-4.33-4.84c-0.69-0.75-1.31-0.68-1.86,0.19c-1.1,1.99-2.34,3.79-3.71,5.4
			c-1.1,1.49-2.75,2.27-4.95,2.33c-2.2,0.06-4.06-0.59-5.57-1.96c-0.14-0.12-0.21-0.25-0.21-0.37c-0.28-0.12-0.48-0.12-0.62,0
			c-0.55,0.5-1.24,0.72-2.06,0.65c-0.82-0.06-1.51-0.4-2.06-1.02c-1.24-1.61-2.61-3.29-4.12-5.03c-0.55-0.49-0.96-0.43-1.24,0.19
			c-0.96,1.74-1.99,3.35-3.09,4.84c-1.24,1.74-2.99,2.64-5.26,2.7c-2.27,0.06-4.23-0.59-5.88-1.96c-0.14-0.12-0.31-0.16-0.52-0.09
			c-0.21,0.06-0.31,0.16-0.31,0.28V1328.36z M2574.02,1268.18c4.95,0,9.18,1.58,12.68,4.75c3.51,3.17,5.26,6.99,5.26,11.46v34.65
			c0,3.98-0.52,7.08-1.55,9.32c-1.03,2.24-2.92,3.98-5.67,5.22c-1.93,1-4.26,1.68-7.01,2.05c-2.75,0.37-6.19,0.56-10.31,0.56h-0.21
			c-2.47,0-4.61-0.68-6.39-2.05c-2.06-1.49-3.44-3.35-4.12-5.59c-0.69-1.86-0.45-3.57,0.72-5.12c1.17-1.55,2.78-2.33,4.85-2.33
			c3.02,0.12,6.05,0.19,9.07,0.19c1.1-0.12,1.86-0.34,2.27-0.65c0.41-0.31,0.62-0.96,0.62-1.96v-32.98c0-1.24-0.69-1.86-2.06-1.86
			h-20.62c-1.37,0-2.06,0.62-2.06,1.86v60.74c0,2.24-0.82,4.13-2.47,5.68c-1.65,1.55-3.71,2.33-6.19,2.33
			c-2.47,0-4.57-0.78-6.29-2.33c-1.72-1.55-2.58-3.45-2.58-5.68v-60.74c0-1.24-0.69-1.86-2.06-1.86h-14.02
			c-2.34,0-4.36-0.77-6.08-2.33c-1.72-1.55-2.58-3.38-2.58-5.5c0-2.11,0.86-3.94,2.58-5.5c1.72-1.55,3.74-2.33,6.08-2.33H2574.02z"
			/>
		<path d="M2728.46,1233.53c-3.44,2.98-7.63,4.47-12.58,4.47c-4.95,0-9.14-1.49-12.58-4.47c-3.44-2.98-5.15-6.77-5.15-11.36
			c0-4.59,1.72-8.41,5.15-11.46c3.43-3.04,7.63-4.56,12.58-4.56c4.95,0,9.14,1.52,12.58,4.56c3.43,3.04,5.15,6.86,5.15,11.46
			C2733.61,1226.76,2731.89,1230.55,2728.46,1233.53z M2728.46,1325.93c-3.44,2.98-7.63,4.47-12.58,4.47
			c-4.95,0-9.14-1.49-12.58-4.47c-3.44-2.98-5.15-6.71-5.15-11.18c0-4.72,1.72-8.57,5.15-11.55c3.43-2.98,7.63-4.47,12.58-4.47
			c4.95,0,9.14,1.49,12.58,4.47c3.43,2.98,5.15,6.83,5.15,11.55C2733.61,1319.23,2731.89,1322.95,2728.46,1325.93z"/>
		<path d="M2877.95,1341.96c-17.32,0-31.82-4.35-43.51-13.04c-2.34-1.74-3.51-4.1-3.51-7.08c0-2.24,0.75-4.29,2.27-6.15
			c1.65-1.86,3.78-2.86,6.39-2.98c0.27-0.12,0.55-0.19,0.82-0.19c2.2,0,4.19,0.68,5.98,2.05c9.07,6.33,18.9,9.5,29.49,9.5
			c8.94,0,16.12-2.08,21.55-6.24c5.43-4.16,8.14-9.84,8.14-17.05c0-7.57-2.85-13.54-8.56-17.89c-5.7-4.35-15.23-6.89-28.56-7.64
			c-2.47-0.12-4.61-0.99-6.39-2.61c-1.79-1.61-2.68-3.51-2.68-5.68c0-2.17,0.89-4.07,2.68-5.68c1.78-1.61,3.92-2.54,6.39-2.79
			c21.17-1.74,31.75-9.81,31.75-24.22c0-6.21-2.17-11.15-6.49-14.81c-4.33-3.66-10.14-5.56-17.42-5.68
			c-8.11,0.12-15.95,2.67-23.51,7.64c-1.93,1.24-4.06,1.86-6.39,1.86c-0.28,0-0.55,0-0.82,0c-2.75-0.12-4.95-1.12-6.6-2.98
			c-1.51-1.61-2.27-3.54-2.27-5.78c0-2.86,1.24-5.09,3.71-6.71c11.55-7.57,23.78-11.36,36.7-11.36c14.3,0,25.81,3.2,34.54,9.59
			c8.73,6.4,13.09,15.31,13.09,26.73c0,7.82-2.34,14.53-7.01,20.12c-4.67,5.59-11.13,9.81-19.38,12.67
			c-0.28,0.12-0.41,0.34-0.41,0.65c0,0.31,0.14,0.47,0.41,0.47c9.35,2.24,16.94,6.4,22.78,12.48c5.84,6.09,8.76,13.6,8.76,22.54
			c0,12.3-4.95,22.08-14.85,29.34S2892.79,1341.96,2877.95,1341.96z"/>
		<path d="M3001.66,1341.96c-15.67,0-27.97-6.21-36.91-18.63c-8.94-12.42-13.4-30.62-13.4-54.59c0-23.72,4.47-41.7,13.4-53.94
			c8.94-12.23,21.24-18.35,36.91-18.35c15.53,0,27.8,6.15,36.81,18.44c9,12.3,13.51,30.25,13.51,53.84
			c0,23.97-4.5,42.17-13.51,54.59C3029.46,1335.75,3017.2,1341.96,3001.66,1341.96z M2981.87,1311.22
			c4.81,8.94,11.41,13.41,19.79,13.41c8.38,0,14.98-4.47,19.79-13.41c4.81-8.94,7.22-23.1,7.22-42.48c0-36.64-9-54.96-27.01-54.96
			c-18.01,0-27.01,18.32-27.01,54.96C2974.65,1288.11,2977.05,1302.27,2981.87,1311.22z"/>
	</g>
	<g>
		<path d="M2211.12,1558.69c-0.55,1.86-1.79,3.23-3.71,4.1c-1.93,0.87-3.89,1-5.88,0.37c-1.99-0.62-3.47-1.8-4.43-3.54
			c-0.69-1.12-1.03-2.24-1.03-3.35c0-0.75,0.14-1.43,0.41-2.05c3.3-10.56,5.77-22.61,7.42-36.14c0.27-1.74,1.17-3.17,2.68-4.29
			c1.51-1.12,3.23-1.49,5.16-1.12c2.06,0.25,3.71,1.09,4.95,2.52c1.24,1.43,1.78,3.01,1.65,4.75
			C2216.83,1534.1,2214.42,1547.02,2211.12,1558.69z M2337.52,1625.58c0,1.24,0.69,1.86,2.06,1.86h39.79c2.47,0,4.64,0.81,6.5,2.42
			c1.86,1.61,2.78,3.6,2.78,5.96s-0.93,4.35-2.78,5.96c-1.86,1.61-4.02,2.42-6.5,2.42h-110.93c-2.61,0-4.81-0.81-6.6-2.42
			c-1.79-1.61-2.68-3.6-2.68-5.96s0.89-4.35,2.68-5.96c1.78-1.61,3.99-2.42,6.6-2.42h47.42c1.37,0,2.06-0.62,2.06-1.86v-39.5
			c0-1.24-0.69-1.86-2.06-1.86h-31.75c-2.47,0-4.61-0.84-6.39-2.52c-1.79-1.68-2.68-3.63-2.68-5.87c0-2.24,0.93-4.19,2.78-5.87
			c1.86-1.68,3.95-2.52,6.29-2.52h31.75c1.37,0,2.06-0.62,2.06-1.86v-32.04c0-1.24-0.69-1.86-2.06-1.86h-23.3
			c-1.37,0-2.34,0.56-2.89,1.68c-2.47,6.71-5.23,12.92-8.25,18.63c-1.1,2.11-2.96,3.54-5.57,4.29c-0.96,0.12-1.93,0.19-2.89,0.19
			c-1.51,0-3.02-0.31-4.54-0.93c-2.34-1.12-3.92-2.79-4.74-5.03c-0.28-0.87-0.41-1.74-0.41-2.61c0-1.37,0.34-2.67,1.03-3.91
			c0.82-1.49,1.58-2.92,2.27-4.29c0.14-0.25,0.14-0.43,0-0.56c-0.14-0.12-0.34-0.12-0.62,0c-1.37,0.5-2.82,0.75-4.33,0.75
			c-1.24,0-2.55-0.25-3.92-0.75c-2.75-1.12-4.67-2.98-5.77-5.59c-2.2-5.59-5.02-11.61-8.45-18.07c0-0.25-0.14-0.34-0.41-0.28
			c-0.28,0.06-0.41,0.22-0.41,0.47v125.94c0,2.48-0.96,4.59-2.89,6.33c-1.93,1.74-4.23,2.61-6.91,2.61s-4.98-0.87-6.91-2.61
			c-1.93-1.74-2.89-3.85-2.89-6.33v-157.24c0-2.36,0.96-4.41,2.89-6.15c1.92-1.74,4.23-2.61,6.91-2.61s4.98,0.87,6.91,2.61
			c1.92,1.74,2.89,3.79,2.89,6.15v25.34c0,0.25,0.14,0.47,0.41,0.65c0.27,0.19,0.55,0.22,0.82,0.09c1.65-0.62,3.37-0.93,5.15-0.93
			c1.51,0,3.02,0.25,4.54,0.75c3.16,1.12,5.5,3.04,7.01,5.78c3.43,6.71,5.98,12.42,7.63,17.14c0.14,0.25,0.38,0.37,0.72,0.37
			c0.34,0,0.58-0.12,0.72-0.37c4.95-11.67,8.87-25.09,11.75-40.24c0.41-2.48,1.72-4.41,3.92-5.78c1.65-1.12,3.43-1.68,5.36-1.68
			c0.55,0,1.1,0.06,1.65,0.19c2.75,0.37,4.88,1.55,6.39,3.54c1.24,1.49,1.86,3.1,1.86,4.84c0,0.5-0.07,1.06-0.21,1.68
			c-1.1,5.22-2.47,10.99-4.12,17.33c-0.14,0.5-0.07,0.93,0.21,1.3c0.27,0.37,0.69,0.56,1.24,0.56h18.14c1.37,0,2.06-0.62,2.06-1.86
			v-27.76c0-2.48,0.96-4.59,2.89-6.33c1.92-1.74,4.23-2.61,6.91-2.61c2.68,0,4.98,0.87,6.91,2.61c1.92,1.74,2.89,3.85,2.89,6.33
			v27.76c0,1.24,0.69,1.86,2.06,1.86h34.23c2.61,0,4.81,0.81,6.6,2.42c1.78,1.61,2.68,3.6,2.68,5.96c0,2.36-0.9,4.35-2.68,5.96
			c-1.79,1.61-3.99,2.42-6.6,2.42h-34.23c-1.37,0-2.06,0.62-2.06,1.86v32.04c0,1.24,0.69,1.86,2.06,1.86h29.69
			c2.61,0,4.81,0.84,6.6,2.52c1.78,1.68,2.68,3.63,2.68,5.87c0,2.24-0.9,4.19-2.68,5.87c-1.79,1.68-3.99,2.52-6.6,2.52h-29.69
			c-1.37,0-2.06,0.62-2.06,1.86V1625.58z"/>
		<path d="M2458.97,1564.09c0,0.5,0.17,0.93,0.52,1.3c0.34,0.37,0.79,0.56,1.34,0.56h26.19c4.95,0,9.14,1.61,12.58,4.84
			c3.16,2.98,4.74,6.52,4.74,10.62c0,13.66-1.24,28.57-3.71,44.71c-1.37,8.82-3.37,14.59-5.98,17.33c-1.79,2.11-3.78,3.57-5.98,4.38
			c-2.2,0.81-5.02,1.4-8.45,1.77c-3.02,0.37-7.42,0.56-13.2,0.56c-0.96,0-1.99,0-3.09,0c-2.61,0-4.88-0.81-6.8-2.42
			c-1.93-1.61-3.3-3.6-4.12-5.96c-0.55-1.74-0.28-3.32,0.82-4.75c1.1-1.43,2.61-2.14,4.54-2.14c3.99,0.25,8.45,0.37,13.4,0.37
			c3.57,0,5.91-0.68,7.01-2.05c3.3-3.23,5.7-19.75,7.22-49.56c0.14-0.49,0-0.93-0.41-1.3c-0.41-0.37-0.9-0.56-1.44-0.56h-25.36
			c-1.37,0-2.13,0.62-2.27,1.86c-5.09,26.95-14.92,47.39-29.49,61.29c-1.65,1.37-3.64,2.05-5.98,2.05c-0.28,0-0.48,0-0.62,0
			c-2.47-0.25-4.67-1.24-6.6-2.98c-1.79-1.61-2.68-3.6-2.68-5.96c0-2.11,0.75-3.97,2.27-5.59c5.22-4.97,9.62-10.68,13.2-17.14
			c3.57-6.46,6.29-13.57,8.14-21.33c1.86-7.76,3.23-14.93,4.12-21.52c0.89-6.58,1.62-14.22,2.17-22.92c0-0.49-0.17-0.93-0.52-1.3
			c-0.34-0.37-0.79-0.56-1.34-0.56h-2.06c-4.95,0-9.18-1.58-12.68-4.75c-3.51-3.17-5.26-6.99-5.26-11.46v-30.93
			c0-4.47,1.75-8.29,5.26-11.46c3.51-3.17,7.73-4.75,12.68-4.75h48.46c4.95,0,9.18,1.58,12.68,4.75c3.51,3.17,5.26,6.99,5.26,11.46
			v30.93c0,4.47-1.75,8.29-5.26,11.46c-3.51,3.17-7.73,4.75-12.68,4.75h-23.09c-1.37,0-2.13,0.62-2.27,1.86
			C2459.79,1555.78,2459.38,1560.62,2458.97,1564.09z M2439.17,1500.01c-1.37,0-2.06,0.62-2.06,1.86v28.32
			c0,1.24,0.69,1.86,2.06,1.86h43.3c1.37,0,2.06-0.62,2.06-1.86v-28.32c0-1.24-0.69-1.86-2.06-1.86H2439.17z M2525.05,1501.03
			c1.86-1.68,4.09-2.52,6.7-2.52c2.61,0,4.85,0.84,6.7,2.52s2.78,3.7,2.78,6.05v88.12c0,2.36-0.93,4.38-2.78,6.05
			s-4.09,2.52-6.7,2.52c-2.61,0-4.85-0.84-6.7-2.52s-2.78-3.7-2.78-6.05v-88.12C2522.27,1504.73,2523.19,1502.71,2525.05,1501.03z
			 M2572.78,1488.27c0-2.48,0.96-4.59,2.89-6.33c1.92-1.74,4.23-2.61,6.91-2.61c2.68,0,4.98,0.87,6.91,2.61
			c1.92,1.74,2.89,3.85,2.89,6.33v139.92c0,5.47-0.79,9.66-2.37,12.58c-1.58,2.92-4.23,5.25-7.94,6.99
			c-5.64,1.86-15.33,2.86-29.07,2.98h-0.21c-3.02,0-5.77-0.9-8.25-2.7c-2.47-1.8-4.19-4.01-5.15-6.61
			c-0.28-0.75-0.41-1.49-0.41-2.24c0-1.24,0.41-2.42,1.24-3.54c1.37-1.86,3.23-2.79,5.57-2.79h0.21c2.75,0.12,9.83,0.19,21.24,0.19
			c2.06-0.12,3.51-0.53,4.33-1.21c0.82-0.68,1.24-1.89,1.24-3.63V1488.27z"/>
		<path d="M2728.46,1529.63c-3.44,2.98-7.63,4.47-12.58,4.47c-4.95,0-9.14-1.49-12.58-4.47c-3.44-2.98-5.15-6.77-5.15-11.36
			c0-4.59,1.72-8.41,5.15-11.46c3.43-3.04,7.63-4.56,12.58-4.56c4.95,0,9.14,1.52,12.58,4.56c3.43,3.04,5.15,6.86,5.15,11.46
			C2733.61,1522.86,2731.89,1526.65,2728.46,1529.63z M2728.46,1622.04c-3.44,2.98-7.63,4.47-12.58,4.47
			c-4.95,0-9.14-1.49-12.58-4.47c-3.44-2.98-5.15-6.71-5.15-11.18c0-4.72,1.72-8.57,5.15-11.55c3.43-2.98,7.63-4.47,12.58-4.47
			c4.95,0,9.14,1.49,12.58,4.47c3.43,2.98,5.15,6.83,5.15,11.55C2733.61,1615.33,2731.89,1619.05,2728.46,1622.04z"/>
		<path d="M2989.91,1579.74c4.95,0,9,1.61,12.17,4.84c3.02,2.73,4.47,5.9,4.33,9.5c0,0.62-0.07,1.24-0.21,1.86
			c-1.65,14.41-3.54,25.31-5.67,32.7c-2.13,7.39-4.85,12.45-8.14,15.18c-3.99,3.48-10.1,5.53-18.35,6.15
			c-2.34,0.12-5.36,0.19-9.07,0.19c-3.99,0-8.73-0.06-14.23-0.19c-2.75-0.12-5.15-1-7.22-2.61c-2.06-1.61-3.58-3.66-4.54-6.15
			c-0.69-1.74-0.48-3.38,0.62-4.94c1.1-1.55,2.68-2.26,4.74-2.14c8.11,0.37,15.67,0.56,22.68,0.56c4.4,0,7.42-0.62,9.07-1.86
			c4.12-3.35,7.49-15.15,10.1-35.4c0-0.49-0.17-0.93-0.52-1.3c-0.34-0.37-0.79-0.56-1.34-0.56h-57.11c-1.37,0-2.34,0.56-2.89,1.68
			c-5.23,12.3-13.61,22.67-25.16,31.11c-11.55,8.45-27.84,15.15-48.87,20.12c-0.96,0.25-1.93,0.37-2.89,0.37
			c-1.65,0-3.3-0.37-4.95-1.12c-2.61-1.12-4.67-2.79-6.19-5.03c-0.69-1.12-1.03-2.24-1.03-3.35c0-0.75,0.14-1.49,0.41-2.24
			c0.69-1.99,2.13-3.17,4.33-3.54c17.18-3.73,30.65-8.6,40.41-14.63c9.76-6.02,17.11-13.26,22.06-21.7c0.14-0.37,0.1-0.75-0.1-1.12
			c-0.21-0.37-0.59-0.56-1.13-0.56h-55.05c-2.34,0-4.36-0.77-6.08-2.33c-1.72-1.55-2.58-3.42-2.58-5.59c0-2.17,0.86-4.03,2.58-5.59
			c1.72-1.55,3.74-2.33,6.08-2.33h61.24c1.37,0,2.2-0.62,2.47-1.86c0.69-2.98,1.44-7.14,2.27-12.48c0.14-0.49,0-0.93-0.41-1.3
			c-0.41-0.37-0.9-0.56-1.44-0.56h-39.18c-4.95,0-9.18-1.58-12.68-4.75c-3.51-3.17-5.26-6.99-5.26-11.46v-45.64
			c0-4.47,1.75-8.29,5.26-11.46c3.51-3.17,7.73-4.75,12.68-4.75h111.76c4.95,0,9.18,1.58,12.68,4.75c3.51,3.17,5.26,6.99,5.26,11.46
			v45.64c0,4.47-1.75,8.29-5.26,11.46c-3.51,3.17-7.73,4.75-12.68,4.75h-47.63c-1.37,0-2.2,0.62-2.47,1.86
			c-0.55,3.73-1.31,7.89-2.27,12.48c-0.14,0.5,0,0.93,0.41,1.3c0.41,0.37,0.82,0.56,1.24,0.56H2989.91z M2874.85,1500.38
			c-1.37,0-2.06,0.62-2.06,1.86v13.23c0,1.24,0.69,1.86,2.06,1.86h39.38c1.37,0,2.06-0.62,2.06-1.86v-13.23
			c0-1.24-0.69-1.86-2.06-1.86H2874.85z M2874.85,1531.3c-1.37,0-2.06,0.62-2.06,1.86v13.79c0,1.24,0.69,1.86,2.06,1.86h39.38
			c1.37,0,2.06-0.62,2.06-1.86v-13.79c0-1.24-0.69-1.86-2.06-1.86H2874.85z M2978.36,1517.33c1.37,0,2.06-0.62,2.06-1.86v-13.23
			c0-1.24-0.69-1.86-2.06-1.86h-40.21c-1.37,0-2.06,0.62-2.06,1.86v13.23c0,1.24,0.69,1.86,2.06,1.86H2978.36z M2978.36,1548.82
			c1.37,0,2.06-0.62,2.06-1.86v-13.79c0-1.24-0.69-1.86-2.06-1.86h-40.21c-1.37,0-2.06,0.62-2.06,1.86v13.79
			c0,1.24,0.69,1.86,2.06,1.86H2978.36z"/>
	</g>
</g>
</svg>
